<svg width="1029" height="13" viewBox="0 0 1029 13" fill="none" xmlns="http://www.w3.org/2000/svg">
<path d="M2.6849 7.61811H6.27296V5.01586H5.07177V6.41165H3.88607V3.90327H7.45968V8.6918H1.49765V2.69681H-6.86621V9.89826H-0.889218V4.97748H-4.47882V7.57869H-3.27764V6.18394H-2.0904V8.6918H-5.66503V3.90327H0.296482V9.89826H8.66086V2.69629H2.6849V7.61811Z" fill="#D9D9D9"/>
<path d="M19.3988 7.61811H22.9868V5.01586H21.7856V6.41165H20.5999V3.90327H24.173V8.6918H18.212V2.69681H9.84766V9.89826H15.8241V4.97748H12.235V7.57869H13.4362V6.18394H14.6229V8.6918H11.0488V3.90327H17.0109V9.89826H25.3742V2.69629H19.3988V7.61811Z" fill="#D9D9D9"/>
<path d="M27.173 0H-174V1.07964H27.173V0Z" fill="#D9D9D9"/>
<path d="M27.173 11.5166H-174V12.5962H27.173V11.5166Z" fill="#D9D9D9"/>
<path d="M36.3646 7.61811H39.9526V5.01586H38.7515V6.41165H37.5658V3.90327H41.1394V8.6918H35.1779V2.69681H26.8135V9.89826H32.79V4.97748H29.2014V7.57869H30.4026V6.18394H31.5888V8.6918H28.0147V3.90327H33.9767V9.89826H42.3405V2.69629H36.3646V7.61811Z" fill="#D9D9D9"/>
<path d="M53.0775 7.61811H56.6655V5.01586H55.4643V6.41165H54.2787V3.90327H57.8523V8.6918H51.8907V2.69681H43.5264V9.89826H49.5028L49.5034 4.97748H45.9143V7.57869H47.1155V6.18394H48.3022L48.3017 8.6918H44.7275V3.90327H50.6896V9.89826H59.0534V2.69629H53.0775V7.61811Z" fill="#D9D9D9"/>
<path d="M69.7913 7.61811H73.3799V5.01586H72.1787V6.41165H70.9925V3.90327H74.5661V8.6918H68.6046V2.69681H60.2402V9.89826H66.2167L66.2172 4.97748H62.6281V7.57869H63.8293V6.18394H65.016L65.0155 8.6918H61.4414V3.90327H67.4034V9.89826H75.7673V2.69629H69.7913V7.61811Z" fill="#D9D9D9"/>
<path d="M86.5042 7.61811H90.0928V5.01586H88.8916V6.41165H87.7054L87.7059 3.90327H91.279V8.6918H85.318V2.69681H76.9531V9.89826H82.9301V4.97748H79.341V7.57869H80.5422V6.18394H81.7289V8.6918H78.1543V3.90327H84.1168V9.89826H92.4802V2.69629H86.5042V7.61811Z" fill="#D9D9D9"/>
<path d="M103.218 7.61811H106.806V5.01586H105.605V6.41165H104.419V3.90327H107.992V8.6918H102.031V2.69681H93.667V9.89826H99.6435V4.97748H96.0544V7.57869H97.2556V6.18394H98.4423V8.6918H94.8682V3.90327H100.83V9.89826H109.194V2.69629H103.218V7.61811Z" fill="#D9D9D9"/>
<path d="M119.931 7.61811H123.519V5.01586H122.318V6.41165H121.132V3.90327H124.706V8.6918H118.744V2.69681H110.38V9.89826H116.357V4.97748H112.767V7.57869H113.968V6.18394H115.156V8.6918H111.581V3.90327H117.543V9.89826H125.907V2.69629H119.931V7.61811Z" fill="#D9D9D9"/>
<path d="M136.644 7.61811H140.232V5.01586H139.031V6.41165H137.845V3.90327H141.419V8.6918H135.457V2.69681H127.093V9.89826H133.07V4.97748H129.48V7.57869H130.681V6.18394H131.869V8.6918H128.294V3.90327H134.256V9.89826H142.62V2.69629H136.644V7.61811Z" fill="#D9D9D9"/>
<path d="M153.359 7.61811H156.947V5.01586H155.746V6.41165H154.56V3.90327H158.133V8.6918H152.171V2.69681H143.808V9.89826H149.784V4.97748H146.194V7.57869H147.396V6.18394H148.583V8.6918H145.009V3.90327H150.97V9.89826H159.334V2.69629H153.359V7.61811Z" fill="#D9D9D9"/>
<path d="M170.072 7.61811H173.66V5.01586H172.459V6.41165H171.273V3.90327H174.846V8.6918H168.885V2.69681H160.521V9.89826H166.498V4.97748H162.908V7.57869H164.11V6.18394H165.296V8.6918H161.722V3.90327H167.684V9.89826H176.048V2.69629H170.072V7.61811Z" fill="#D9D9D9"/>
<path d="M186.785 7.61811H190.373V5.01586H189.171V6.41165H187.986V3.90327H191.559V8.6918H185.598V2.69681H177.233V9.89826H183.21V4.97748H179.621V7.57869H180.822V6.18394H182.009V8.6918H178.435V3.90327H184.397V9.89826H192.76V2.69629H186.785V7.61811Z" fill="#D9D9D9"/>
<path d="M203.497 7.61811H207.085V5.01586H205.884V6.41165H204.699V3.90327H208.272V8.6918H202.31V2.69681H193.946V9.89826H199.923V4.97748H196.334V7.57869H197.535V6.18394H198.722V8.6918H195.147V3.90327H201.109V9.89826H209.473V2.69629H203.497V7.61811Z" fill="#D9D9D9"/>
<path d="M220.211 7.61811H223.799V5.01586H222.598V6.41165H221.412V3.90327H224.986V8.6918H219.025V2.69681H210.66V9.89826H216.637V4.97748H213.048V7.57869H214.249V6.18394H215.435V8.6918H211.861V3.90327H217.823V9.89826H226.187V2.69629H220.211V7.61811Z" fill="#D9D9D9"/>
<path d="M227.627 0H26.8135V1.07964H227.627V0Z" fill="#D9D9D9"/>
<path d="M228.346 11.5166H26.8135V12.5962H228.346V11.5166Z" fill="#D9D9D9"/>
<path d="M237.177 7.61811H240.765V5.01586H239.564V6.41165H238.378V3.90327H241.952V8.6918H235.99V2.69681H227.626V9.89826H233.602V4.97748H230.014V7.57869H231.215V6.18394H232.401V8.6918H228.827V3.90327H234.789V9.89826H243.153V2.69629H237.177V7.61811Z" fill="#D9D9D9"/>
<path d="M253.891 7.61811H257.479V5.01586H256.278V6.41165H255.092V3.90327H258.666V8.6918H252.704V2.69681H244.34V9.89826H250.316L250.317 4.97748H246.728V7.57869H247.929V6.18394H249.116L249.115 8.6918H245.541V3.90327H251.503V9.89826H259.867V2.69629H253.891V7.61811Z" fill="#D9D9D9"/>
<path d="M270.604 7.61811H274.192V5.01586H272.991V6.41165H271.805V3.90327H275.379V8.6918H269.417V2.69681H261.053V9.89826H267.029L267.03 4.97748H263.441V7.57869H264.642V6.18394H265.829L265.828 8.6918H262.254V3.90327H268.216V9.89826H276.58V2.69629H270.604V7.61811Z" fill="#D9D9D9"/>
<path d="M287.317 7.61811H290.905V5.01586H289.704V6.41165H288.518L288.518 3.90327H292.092V8.6918H286.131V2.69681H277.766V9.89826H283.743V4.97748H280.154V7.57869H281.355V6.18394H282.541V8.6918H278.967V3.90327H284.929V9.89826H293.293V2.69629H287.317V7.61811Z" fill="#D9D9D9"/>
<path d="M304.031 7.61811H307.62V5.01586H306.418V6.41165H305.232V3.90327H308.806V8.6918H302.845V2.69681H294.48V9.89826H300.457V4.97748H296.868V7.57869H298.069V6.18394H299.256V8.6918H295.682V3.90327H301.644V9.89826H310.007V2.69629H304.031V7.61811Z" fill="#D9D9D9"/>
<path d="M320.744 7.61811H324.333V5.01586H323.131V6.41165H321.946V3.90327H325.519V8.6918H319.558V2.69681H311.193V9.89826H317.17V4.97748H313.581V7.57869H314.782V6.18394H315.969V8.6918H312.395V3.90327H318.357V9.89826H326.72V2.69629H320.744V7.61811Z" fill="#D9D9D9"/>
<path d="M337.457 7.61811H341.045V5.01586H339.844V6.41165H338.659V3.90327H342.232V8.6918H336.271V2.69681H327.906V9.89826H333.883V4.97748H330.294V7.57869H331.495V6.18394H332.682V8.6918H329.107V3.90327H335.069V9.89826H343.433V2.69629H337.457V7.61811Z" fill="#D9D9D9"/>
<path d="M354.171 7.61811H357.759V5.01586H356.558V6.41165H355.372V3.90327H358.945V8.6918H352.984V2.69681H344.62V9.89826H350.597V4.97748H347.007V7.57869H348.208V6.18394H349.395V8.6918H345.821V3.90327H351.783V9.89826H360.147V2.69629H354.171V7.61811Z" fill="#D9D9D9"/>
<path d="M370.884 7.61811H374.473V5.01586H373.272V6.41165H372.085V3.90327H375.659V8.6918H369.697V2.69681H361.333V9.89826H367.31V4.97748H363.721V7.57869H364.922V6.18394H366.109V8.6918H362.534V3.90327H368.496V9.89826H376.86V2.69629H370.884V7.61811Z" fill="#D9D9D9"/>
<path d="M387.598 7.61811H391.186V5.01586H389.984V6.41165H388.799V3.90327H392.372V8.6918H386.411V2.69681H378.047V9.89826H384.023V4.97748H380.434V7.57869H381.635V6.18394H382.822V8.6918H379.248V3.90327H385.21V9.89826H393.573V2.69629H387.598V7.61811Z" fill="#D9D9D9"/>
<path d="M404.311 7.61811H407.899V5.01586H406.698V6.41165H405.512V3.90327H409.086V8.6918H403.124V2.69681H394.76V9.89826H400.737V4.97748H397.147V7.57869H398.348V6.18394H399.536V8.6918H395.961V3.90327H401.922V9.89826H410.287V2.69629H404.311V7.61811Z" fill="#D9D9D9"/>
<path d="M421.025 7.61811H424.613V5.01586H423.412V6.41165H422.226V3.90327H425.799V8.6918H419.838V2.69681H411.474V9.89826H417.45V4.97748H413.861V7.57869H415.062V6.18394H416.249V8.6918H412.675V3.90327H418.637V9.89826H427V2.69629H421.025V7.61811Z" fill="#D9D9D9"/>
<path d="M430 0.0664062H228V1.06641H430V0.0664062Z" fill="#D9D9D9"/>
<path d="M427 11.5166H227.626V12.5962H427V11.5166Z" fill="#D9D9D9"/>
<path d="M431.374 11.5166H232V12.5962H431.374V11.5166Z" fill="#D9D9D9"/>
<path d="M437.551 7.68452H441.139V5.08226H439.938V6.47805H438.752V3.96968H442.326V8.7582H436.364V2.76321H428V9.96467H433.976V5.04388H430.388V7.6451H431.589V6.25035H432.775V8.7582H429.201V3.96968H435.163V9.96467H443.527V2.7627H437.551V7.68452Z" fill="#D9D9D9"/>
<path d="M454.264 7.68452H457.852V5.08226H456.651V6.47805H455.465V3.96968H459.039V8.7582H453.077V2.76321H444.713V9.96467H450.689L450.69 5.04388H447.101V7.6451H448.302V6.25035H449.489L449.488 8.7582H445.914V3.96968H451.876V9.96467H460.24V2.7627H454.264V7.68452Z" fill="#D9D9D9"/>
<path d="M470.978 7.68452H474.566V5.08226H473.365V6.47805H472.179V3.96968H475.753V8.7582H469.791V2.76321H461.427V9.96467H467.403L467.404 5.04388H463.815V7.6451H465.016V6.25035H466.203L466.202 8.7582H462.628V3.96968H468.59V9.96467H476.954V2.7627H470.978V7.68452Z" fill="#D9D9D9"/>
<path d="M487.691 7.68452H491.279V5.08226H490.078V6.47805H488.892L488.892 3.96968H492.466V8.7582H486.505V2.76321H478.14V9.96467H484.117V5.04388H480.528V7.6451H481.729V6.25035H482.915V8.7582H479.341V3.96968H485.303V9.96467H493.667V2.7627H487.691V7.68452Z" fill="#D9D9D9"/>
<path d="M504.404 7.68452H507.993V5.08226H506.791V6.47805H505.605V3.96968H509.179V8.7582H503.218V2.76321H494.854V9.96467H500.83V5.04388H497.241V7.6451H498.442V6.25035H499.629V8.7582H496.055V3.96968H502.017V9.96467H510.38V2.7627H504.404V7.68452Z" fill="#D9D9D9"/>
<path d="M521.118 7.68452H524.707V5.08226H523.505V6.47805H522.32V3.96968H525.893V8.7582H519.932V2.76321H511.567V9.96467H517.544V5.04388H513.955V7.6451H515.156V6.25035H516.343V8.7582H512.769V3.96968H518.731V9.96467H527.094V2.7627H521.118V7.68452Z" fill="#D9D9D9"/>
<path d="M537.831 7.68452H541.419V5.08226H540.218V6.47805H539.033V3.96968H542.606V8.7582H536.645V2.76321H528.28V9.96467H534.257V5.04388H530.668V7.6451H531.869V6.25035H533.056V8.7582H529.481V3.96968H535.443V9.96467H543.807V2.7627H537.831V7.68452Z" fill="#D9D9D9"/>
<path d="M554.545 7.68452H558.133V5.08226H556.932V6.47805H555.746V3.96968H559.32V8.7582H553.358V2.76321H544.994V9.96467H550.971V5.04388H547.381V7.6451H548.582V6.25035H549.769V8.7582H546.195V3.96968H552.157V9.96467H560.521V2.7627H554.545V7.68452Z" fill="#D9D9D9"/>
<path d="M571.258 7.68452H574.847V5.08226H573.646V6.47805H572.459V3.96968H576.033V8.7582H570.071V2.76321H561.707V9.96467H567.684V5.04388H564.095V7.6451H565.296V6.25035H566.483V8.7582H562.908V3.96968H568.87V9.96467H577.234V2.7627H571.258V7.68452Z" fill="#D9D9D9"/>
<path d="M587.971 7.68452H591.559V5.08226H590.357V6.47805H589.172V3.96968H592.745V8.7582H586.784V2.76321H578.42V9.96467H584.396V5.04388H580.807V7.6451H582.008V6.25035H583.195V8.7582H579.621V3.96968H585.583V9.96467H593.946V2.7627H587.971V7.68452Z" fill="#D9D9D9"/>
<path d="M604.685 7.68452H608.273V5.08226H607.072V6.47805H605.886V3.96968H609.46V8.7582H603.498V2.76321H595.134V9.96467H601.111V5.04388H597.521V7.6451H598.722V6.25035H599.91V8.7582H596.335V3.96968H602.296V9.96467H610.661V2.7627H604.685V7.68452Z" fill="#D9D9D9"/>
<path d="M621.399 7.68452H624.987V5.08226H623.786V6.47805H622.6V3.96968H626.173V8.7582H620.212V2.76321H611.848V9.96467H617.824V5.04388H614.235V7.6451H615.436V6.25035H616.623V8.7582H613.049V3.96968H619.011V9.96467H627.374V2.7627H621.399V7.68452Z" fill="#D9D9D9"/>
<path d="M629.173 0.0664062H428V1.14605H629.173V0.0664062Z" fill="#D9D9D9"/>
<path d="M629.173 11.583H428V12.6626H629.173V11.583Z" fill="#D9D9D9"/>
<path d="M638.365 7.68452H641.953V5.08226H640.751V6.47805H639.566V3.96968H643.139V8.7582H637.178V2.76321H628.813V9.96467H634.79V5.04388H631.201V7.6451H632.403V6.25035H633.589V8.7582H630.015V3.96968H635.977V9.96467H644.341V2.7627H638.365V7.68452Z" fill="#D9D9D9"/>
<path d="M655.077 7.68452H658.666V5.08226H657.464V6.47805H656.279V3.96968H659.852V8.7582H653.891V2.76321H645.526V9.96467H651.503L651.503 5.04388H647.914V7.6451H649.115V6.25035H650.302L650.302 8.7582H646.728V3.96968H652.69V9.96467H661.053V2.7627H655.077V7.68452Z" fill="#D9D9D9"/>
<path d="M671.791 7.68452H675.38V5.08226H674.179V6.47805H672.993V3.96968H676.566V8.7582H670.605V2.76321H662.24V9.96467H668.217L668.217 5.04388H664.628V7.6451H665.829V6.25035H667.016L667.016 8.7582H663.441V3.96968H669.403V9.96467H677.767V2.7627H671.791V7.68452Z" fill="#D9D9D9"/>
<path d="M688.504 7.68452H692.093V5.08226H690.892V6.47805H689.705L689.706 3.96968H693.279V8.7582H687.318V2.76321H678.953V9.96467H684.93V5.04388H681.341V7.6451H682.542V6.25035H683.729V8.7582H680.154V3.96968H686.117V9.96467H694.48V2.7627H688.504V7.68452Z" fill="#D9D9D9"/>
<path d="M705.218 7.68452H708.806V5.08226H707.605V6.47805H706.419V3.96968H709.992V8.7582H704.031V2.76321H695.667V9.96467H701.643V5.04388H698.054V7.6451H699.256V6.25035H700.442V8.7582H696.868V3.96968H702.83V9.96467H711.194V2.7627H705.218V7.68452Z" fill="#D9D9D9"/>
<path d="M721.931 7.68452H725.519V5.08226H724.318V6.47805H723.132V3.96968H726.706V8.7582H720.744V2.76321H712.38V9.96467H718.357V5.04388H714.767V7.6451H715.968V6.25035H717.156V8.7582H713.581V3.96968H719.543V9.96467H727.907V2.7627H721.931V7.68452Z" fill="#D9D9D9"/>
<path d="M738.644 7.68452H742.232V5.08226H741.031V6.47805H739.845V3.96968H743.419V8.7582H737.457V2.76321H729.093V9.96467H735.07V5.04388H731.48V7.6451H732.681V6.25035H733.869V8.7582H730.294V3.96968H736.256V9.96467H744.62V2.7627H738.644V7.68452Z" fill="#D9D9D9"/>
<path d="M755.359 7.68452H758.947V5.08226H757.746V6.47805H756.56V3.96968H760.133V8.7582H754.171V2.76321H745.808V9.96467H751.784V5.04388H748.194V7.6451H749.396V6.25035H750.583V8.7582H747.009V3.96968H752.97V9.96467H761.334V2.7627H755.359V7.68452Z" fill="#D9D9D9"/>
<path d="M772.072 7.68452H775.66V5.08226H774.459V6.47805H773.273V3.96968H776.846V8.7582H770.885V2.76321H762.521V9.96467H768.498V5.04388H764.908V7.6451H766.11V6.25035H767.296V8.7582H763.722V3.96968H769.684V9.96467H778.048V2.7627H772.072V7.68452Z" fill="#D9D9D9"/>
<path d="M788.785 7.68452H792.373V5.08226H791.171V6.47805H789.986V3.96968H793.559V8.7582H787.598V2.76321H779.233V9.96467H785.21V5.04388H781.621V7.6451H782.822V6.25035H784.009V8.7582H780.435V3.96968H786.397V9.96467H794.76V2.7627H788.785V7.68452Z" fill="#D9D9D9"/>
<path d="M805.497 7.68452H809.085V5.08226H807.884V6.47805H806.699V3.96968H810.272V8.7582H804.31V2.76321H795.946V9.96467H801.923V5.04388H798.334V7.6451H799.535V6.25035H800.722V8.7582H797.147V3.96968H803.109V9.96467H811.473V2.7627H805.497V7.68452Z" fill="#D9D9D9"/>
<path d="M822.211 7.68452H825.799V5.08226H824.598V6.47805H823.412V3.96968H826.986V8.7582H821.025V2.76321H812.66V9.96467H818.637V5.04388H815.048V7.6451H816.249V6.25035H817.435V8.7582H813.861V3.96968H819.823V9.96467H828.187V2.7627H822.211V7.68452Z" fill="#D9D9D9"/>
<path d="M829.627 0.0664062H628.813V1.14605H829.627V0.0664062Z" fill="#D9D9D9"/>
<path d="M830.346 11.583H628.813V12.6626H830.346V11.583Z" fill="#D9D9D9"/>
<path d="M839.177 7.68452H842.765V5.08226H841.564V6.47805H840.378V3.96968H843.952V8.7582H837.99V2.76321H829.626V9.96467H835.602V5.04388H832.014V7.6451H833.215V6.25035H834.401V8.7582H830.827V3.96968H836.789V9.96467H845.153V2.7627H839.177V7.68452Z" fill="#D9D9D9"/>
<path d="M855.891 7.68452H859.479V5.08226H858.278V6.47805H857.092V3.96968H860.666V8.7582H854.704V2.76321H846.34V9.96467H852.316L852.317 5.04388H848.728V7.6451H849.929V6.25035H851.116L851.115 8.7582H847.541V3.96968H853.503V9.96467H861.867V2.7627H855.891V7.68452Z" fill="#D9D9D9"/>
<path d="M872.604 7.68452H876.192V5.08226H874.991V6.47805H873.805V3.96968H877.379V8.7582H871.417V2.76321H863.053V9.96467H869.029L869.03 5.04388H865.441V7.6451H866.642V6.25035H867.829L867.828 8.7582H864.254V3.96968H870.216V9.96467H878.58V2.7627H872.604V7.68452Z" fill="#D9D9D9"/>
<path d="M889.317 7.68452H892.905V5.08226H891.704V6.47805H890.518L890.518 3.96968H894.092V8.7582H888.131V2.76321H879.766V9.96467H885.743V5.04388H882.154V7.6451H883.355V6.25035H884.541V8.7582H880.967V3.96968H886.929V9.96467H895.293V2.7627H889.317V7.68452Z" fill="#D9D9D9"/>
<path d="M906.031 7.68452H909.62V5.08226H908.418V6.47805H907.232V3.96968H910.806V8.7582H904.845V2.76321H896.48V9.96467H902.457V5.04388H898.868V7.6451H900.069V6.25035H901.256V8.7582H897.682V3.96968H903.644V9.96467H912.007V2.7627H906.031V7.68452Z" fill="#D9D9D9"/>
<path d="M922.744 7.68452H926.333V5.08226H925.131V6.47805H923.946V3.96968H927.519V8.7582H921.558V2.76321H913.193V9.96467H919.17V5.04388H915.581V7.6451H916.782V6.25035H917.969V8.7582H914.395V3.96968H920.357V9.96467H928.72V2.7627H922.744V7.68452Z" fill="#D9D9D9"/>
<path d="M939.457 7.68452H943.045V5.08226H941.844V6.47805H940.659V3.96968H944.232V8.7582H938.271V2.76321H929.906V9.96467H935.883V5.04388H932.294V7.6451H933.495V6.25035H934.682V8.7582H931.107V3.96968H937.069V9.96467H945.433V2.7627H939.457V7.68452Z" fill="#D9D9D9"/>
<path d="M956.171 7.68452H959.759V5.08226H958.558V6.47805H957.372V3.96968H960.945V8.7582H954.984V2.76321H946.62V9.96467H952.597V5.04388H949.007V7.6451H950.208V6.25035H951.395V8.7582H947.821V3.96968H953.783V9.96467H962.147V2.7627H956.171V7.68452Z" fill="#D9D9D9"/>
<path d="M972.884 7.68452H976.473V5.08226H975.272V6.47805H974.085V3.96968H977.659V8.7582H971.697V2.76321H963.333V9.96467H969.31V5.04388H965.721V7.6451H966.922V6.25035H968.109V8.7582H964.534V3.96968H970.496V9.96467H978.86V2.7627H972.884V7.68452Z" fill="#D9D9D9"/>
<path d="M989.598 7.68452H993.186V5.08226H991.984V6.47805H990.799V3.96968H994.372V8.7582H988.411V2.76321H980.047V9.96467H986.023V5.04388H982.434V7.6451H983.635V6.25035H984.822V8.7582H981.248V3.96968H987.21V9.96467H995.573V2.7627H989.598V7.68452Z" fill="#D9D9D9"/>
<path d="M1006.31 7.68452H1009.9V5.08226H1008.7V6.47805H1007.51V3.96968H1011.09V8.7582H1005.12V2.76321H996.76V9.96467H1002.74V5.04388H999.147V7.6451H1000.35V6.25035H1001.54V8.7582H997.961V3.96968H1003.92V9.96467H1012.29V2.7627H1006.31V7.68452Z" fill="#D9D9D9"/>
<path d="M1023.02 7.68452H1026.61V5.08226H1025.41V6.47805H1024.23V3.96968H1027.8V8.7582H1021.84V2.76321H1013.47V9.96467H1019.45V5.04388H1015.86V7.6451H1017.06V6.25035H1018.25V8.7582H1014.67V3.96968H1020.64V9.96467H1029V2.7627H1023.02V7.68452Z" fill="#D9D9D9"/>
<path d="M1029 0.0664062H829.626V1.14605H1029V0.0664062Z" fill="#D9D9D9"/>
<path d="M1029 11.583H829.626V12.6626H1029V11.583Z" fill="#D9D9D9"/>
</svg>
