<?xml version="1.0" encoding="UTF-8"?>
<svg id="Camada_2" data-name="Camada 2" xmlns="http://www.w3.org/2000/svg" version="1.1" viewBox="0 0 389.1 340.2">
  <defs>
    <style>
      .cls-1 {
        fill: #121212;
        stroke-width: 0px;
      }
    </style>
  </defs>
  <g id="Camada_1-2" data-name="Camada 1-2">
    <path class="cls-1" d="M202.9,0H54.9L0,.6l24,25.2c9.2,9.7,14.3,22.5,14.3,35.8v164.7c0,72.1-3.3,101.6-28.4,105.6-3.8.6-6.5,3.9-6.5,7.8h0c56.2,0,81.4-34.9,81.4-113.3v-30c-3.6-21-10.9-23.4-41.2-26.2,30.2-2.8,37.6-5.1,41.2-25.9V29c0,0,3.8,3.8,3.8,3.8v109.3c3.4,22.5,10.3,25.1,40.8,27.9V12.7c0-3.5,2.8-6.3,6.3-6.3h67.2c95.2,3.4,142,57.8,142,163.7s-46.8,160.3-142,163.7h-64.1c-5.2,0-9.5-4.3-9.5-9.5v-154.1c-30.6,2.8-37.4,5.4-40.8,27.9l-.2,142.1h114.5c105,0,186.2-46.8,186.2-170.1S307.9,0,202.9,0Z"/>
    <path class="cls-1" d="M130,170.1c-.2,0-.5,0-.7,0h0c.2.1.5,0,.7,0h0Z"/>
  </g>
</svg>