<?xml version="1.0" encoding="UTF-8"?>
<svg id="Camada_2" data-name="Camada 2" xmlns="http://www.w3.org/2000/svg" version="1.1" viewBox="0 0 904.5 340.2">
  <defs>
    <style>
      .cls-1 {
        fill: #121212;
        stroke-width: 0px;
      }
    </style>
  </defs>
  <g id="Camada_1-2" data-name="Camada 1-2">
    <path class="cls-1" d="M202.9,0H54.9L0,.6l24,25.2c9.2,9.7,14.3,22.5,14.3,35.8v164.7c0,72.1-3.3,101.6-28.4,105.6-3.8.6-6.5,3.9-6.5,7.8h0c56.2,0,81.4-34.9,81.4-113.3v-30c-3.6-21-10.9-23.4-41.2-26.2,30.2-2.8,37.6-5.1,41.2-25.9V29c0,0,3.8,3.8,3.8,3.8v109.3c3.4,22.5,10.3,25.1,40.8,27.9V12.7c0-3.5,2.8-6.3,6.3-6.3h67.2c95.2,3.4,142,57.8,142,163.7s-46.8,160.3-142,163.7h-64.1c-5.2,0-9.5-4.3-9.5-9.5v-154.1c-30.6,2.8-37.4,5.4-40.8,27.9l-.2,142.1h114.5c105,0,186.2-46.8,186.2-170.1S307.9,0,202.9,0Z"/>
    <path class="cls-1" d="M130,170.1c-.2,0-.5,0-.7,0h0c.2.1.5,0,.7,0h0Z"/>
    <path class="cls-1" d="M490.8,331.3c-45.3,0-87.8-35-87.8-89.2s42.5-89.2,87.8-89.2,59.6,13.4,74.3,36.3c1.7,2.7-.3,6.2-3.4,6.2h-98.6c-2.1,1.7-3.8,3.4-5.8,5.5-35.3,35-41.9,79.6-21.6,99.1,19.9,19.5,60.4,18.2,95.7-16.8,13.4-13.1,23-27,30.5-40.6,2.7-5,8.1-8.1,13.8-8.1h0c1,61.8-34.7,96.7-84.7,96.7h0ZM469.6,190.3h86.3c1.6,0,2.5-1.9,1.4-3.1-.6-.7-1.2-1.4-1.9-2-18.5-18.2-53.5-19.2-85.8,5.1h0Z"/>
    <path class="cls-1" d="M663,327.9h-61.5l1.4-5.1v-190.9c0-10.8-4.3-21.2-12-28.9l-15.1-15.1h53c4.1,0,7.5,3.3,7.4,7.5l-.3,168.7c0,22.8,8.7,44.8,24.4,61.3l2.6,2.7h0Z"/>
    <path class="cls-1" d="M744.5,328h-48c0-.1.4-125.7.4-125.7,0-10.8-4-21.2-11.4-29.1l-15.7-16.9h53.2c4,0,7.3,3.3,7.2,7.3l-.7,126.5c0,14.1,5.2,27.7,14.9,37.9h0Z"/>
    <path class="cls-1" d="M904.5,280.9c0,29.2-19.9,50.4-69.3,50.4s-55.9-14.4-66.9-26.1l-4.1,22.6h-5.2l13.7-73.1h0c2.8,0,5.1,2.3,5.2,5.1.9,38.5,15.8,66.3,57.2,66.3s54.5-19.2,54.5-35-9.3-26.8-38.1-34l-36.7-8.9c-32.9-7.9-51.5-25-51.5-52.5s17.8-42.9,60.4-42.9,56.6,12.7,65.5,20.6l3.1-17.1h5.2l-12,64.2h0c-2.8,0-5.1-2.2-5.2-5-.8-35.8-18.2-57.4-56.6-57.4s-44.6,17.8-44.6,29.2,4.8,23.3,36,30.9l36,8.9c43.2,11,53.2,29.2,53.2,53.9h0Z"/>
  </g>
</svg>