<?xml version="1.0" encoding="UTF-8"?><svg id="Camada_2" xmlns="http://www.w3.org/2000/svg" viewBox="0 0 904.51 340.16"><defs><style>.cls-1{fill:#fff;}</style></defs><g id="Camada_1-2"><path class="cls-1" d="m202.87,0H54.9L0,.55l23.95,25.16c9.19,9.66,14.32,22.48,14.32,35.82v164.74c0,72.13-3.31,101.58-28.35,105.59-3.78.61-6.53,3.92-6.53,7.75h0c56.19,0,81.37-34.88,81.37-113.34l-.02-30.03c-3.55-21-10.93-23.37-41.23-26.16,30.18-2.78,37.62-5.13,41.19-25.91l-.09-115.2,3.87,3.77v109.33c3.41,22.54,10.27,25.1,40.82,27.94V12.71c0-3.5,2.83-6.33,6.33-6.33h67.23c95.24,3.41,142.02,57.83,142.02,163.71s-46.77,160.3-142.02,163.7h-64.06c-5.25,0-9.51-4.26-9.51-9.51v-154.13c-30.55,2.84-37.41,5.4-40.82,27.94l-.17,142.07h114.55c105.03,0,186.24-46.77,186.24-170.08S307.9,0,202.87,0Z"/><path class="cls-1" d="m130.01,170.08c-.24-.02-.47-.04-.71-.07v.13c.24-.02.46-.04.71-.07Z"/><path class="cls-1" d="m490.82,331.34c-45.28,0-87.82-34.99-87.82-89.19s42.54-89.19,87.82-89.19c34.72,0,59.57,13.36,74.27,36.34,1.71,2.68-.26,6.2-3.44,6.2h-98.62c-2.06,1.71-3.77,3.43-5.83,5.49-35.33,34.99-41.85,79.58-21.61,99.14,19.9,19.55,60.37,18.18,95.71-16.81,13.43-13.14,23.05-27.01,30.45-40.59,2.74-5.03,8.06-8.12,13.8-8.12h0c1.03,61.75-34.65,96.74-84.73,96.74Zm-21.27-140.99h86.25c1.61,0,2.47-1.89,1.42-3.1-.6-.68-1.22-1.36-1.9-2.04-18.52-18.18-53.51-19.21-85.76,5.15Z"/><path class="cls-1" d="m663.02,327.91h-61.45l1.41-5.15v-190.94c0-10.85-4.31-21.25-11.98-28.92l-15.12-15.12h52.99c4.12,0,7.45,3.34,7.44,7.46l-.33,168.65c-.04,22.82,8.71,44.77,24.44,61.3l2.59,2.72Z"/><path class="cls-1" d="m744.51,328.05l-47.95-.14.36-125.55c.03-10.8-4.04-21.21-11.39-29.12l-15.66-16.85h53.18c4.01,0,7.26,3.26,7.24,7.27l-.67,126.46c-.07,14.08,5.25,27.66,14.88,37.93h0Z"/><path class="cls-1" d="m904.51,280.92c0,29.16-19.9,50.43-69.29,50.43-46.31,0-55.91-14.41-66.89-26.07l-4.12,22.64h-5.15l13.72-73.07h0c2.83,0,5.12,2.27,5.18,5.09.87,38.54,15.83,66.26,57.25,66.26s54.54-19.21,54.54-34.99c0-17.49-9.26-26.76-38.08-33.96l-36.71-8.92c-32.93-7.89-51.45-25.04-51.45-52.48,0-22.3,17.84-42.88,60.37-42.88s56.6,12.69,65.52,20.58l3.09-17.15h5.15l-12.01,64.15h0c-2.79,0-5.09-2.21-5.16-5-.85-35.79-18.21-57.43-56.59-57.43s-44.59,17.84-44.59,29.16c0,12.69,4.8,23.33,36.02,30.87l36.02,8.92c43.22,10.98,53.17,29.16,53.17,53.86Z"/></g></svg>