<?xml version="1.0" encoding="UTF-8"?><svg id="Camada_2" xmlns="http://www.w3.org/2000/svg" viewBox="0 0 389.11 340.16"><defs><style>.cls-1{fill:#fff;}</style></defs><g id="Camada_1-2"><path class="cls-1" d="m202.87,0H54.9L0,.55l23.95,25.16c9.19,9.66,14.32,22.48,14.32,35.82v164.74c0,72.13-3.31,101.58-28.35,105.59-3.78.61-6.53,3.92-6.53,7.75h0c56.19,0,81.37-34.88,81.37-113.34l-.02-30.03c-3.55-21-10.93-23.37-41.23-26.16,30.18-2.78,37.62-5.13,41.19-25.91l-.09-115.2,3.87,3.77v109.33c3.41,22.54,10.27,25.1,40.82,27.94V12.71c0-3.5,2.83-6.33,6.33-6.33h67.23c95.24,3.41,142.02,57.83,142.02,163.71s-46.77,160.3-142.02,163.7h-64.06c-5.25,0-9.51-4.26-9.51-9.51v-154.13c-30.55,2.84-37.41,5.4-40.82,27.94l-.17,142.07h114.55c105.03,0,186.24-46.77,186.24-170.08S307.9,0,202.87,0Z"/><path class="cls-1" d="m130.01,170.08c-.24-.02-.47-.04-.71-.07v.13c.24-.02.46-.04.71-.07Z"/></g></svg>