<svg width="874" height="101" viewBox="0 0 874 101" fill="none" xmlns="http://www.w3.org/2000/svg">
<path d="M29.7667 51.4292V59.8786C29.7667 94.1347 35.9475 98.8181 38.4987 98.8181C40.2438 98.8181 42.5283 96.404 42.5283 92.125C42.5283 80.7545 45.752 65.4974 60.5315 61.7555C61.0648 61.6167 61.4707 62.0211 61.3374 62.2866C58.247 68.5754 58.9136 73.3915 58.9136 77.1394C58.9136 84.6352 60.9254 95.6073 63.2099 100.152C63.3432 100.423 63.4765 100.689 62.9432 100.689H0.716797V98.2749H2.60134C4.74646 93.5915 11.8665 76.5962 11.8665 49.0392C11.7775 33.1533 8.63233 17.4315 2.60134 2.72465H0.716797V0.310547H60.2285C60.7678 0.310547 60.9011 0.576098 60.7678 1.11324C59.0227 7.53475 57.8107 15.966 57.8107 20.1122C57.8107 24.1257 58.4833 33.3898 61.0345 38.4413C61.3071 38.9785 61.0345 39.244 60.5012 39.1112C40.7528 34.1684 40.6195 16.2617 40.6195 10.0816C40.6195 6.46048 40.0802 2.72465 37.3897 2.72465C31.4816 2.72465 29.7667 24.6689 29.7667 41.6581V48.484H32.3178C37.0201 48.484 40.2438 45.2732 40.2438 39.1173C40.2438 36.3048 39.3046 33.8968 37.6927 30.8248C37.5594 30.5532 37.42 30.2877 37.6927 30.0221L38.7653 29.2134C39.1713 28.9479 39.4379 28.9479 39.5712 29.2134C41.7224 31.8931 48.3032 38.7189 48.3032 49.2867C48.3032 60.1502 43.6009 66.4148 40.1105 69.8911C39.8439 70.1566 39.5712 70.4282 39.3046 70.1566L37.9593 68.9496C37.5594 68.5452 37.6927 68.4124 38.3653 67.6097C41.0498 64.1334 40.6498 58.243 39.4379 55.8349C38.8078 54.4917 37.7994 53.3596 36.5354 52.5764C35.2714 51.7932 33.8062 51.3925 32.3178 51.4232L29.7667 51.4292Z" fill="#FFF1F1"/>
<path d="M98.3887 58.4819C98.3887 79.6455 105.431 93.6225 107.559 97.7471H110.477V100.149H71.2803V97.7471H73.1442C75.7993 91.7433 80.714 75.1186 80.714 46.9005C80.714 20.8137 75.0022 6.83674 73.1442 2.71209H71.2803V0.310547H113.804C121.505 0.310547 136.789 2.97026 136.789 25.5988C136.789 39.0414 130.142 47.4288 117.52 50.2146V50.4848C131.473 54.8736 136.255 60.8654 136.255 85.091C136.255 89.3477 136.525 92.5418 139.048 92.5418C139.838 92.5065 140.59 92.1943 141.173 91.6598C141.755 91.1253 142.132 90.4025 142.237 89.6179C142.236 89.5827 142.242 89.5477 142.255 89.515C142.268 89.4822 142.287 89.4524 142.312 89.4272C142.336 89.402 142.366 89.382 142.398 89.3684C142.431 89.3547 142.465 89.3477 142.5 89.3477H143.567C143.831 89.3477 143.831 89.6179 143.831 89.8821C143.831 91.8754 143.034 100.689 129.081 100.689C116.992 100.689 113.804 92.2836 113.804 84.8448C113.804 80.7202 115.398 76.4394 115.398 68.8746C115.398 61.1536 114.068 51.9737 104.1 51.9737H98.3887V58.4819ZM101.709 49.296C113.139 49.296 114.895 39.3116 114.895 25.3406C114.895 14.5337 113.432 2.71209 106.258 2.71209C98.5505 2.71209 98.4186 33.1937 98.4186 42.5116V49.296H101.709Z" fill="#FFF1F1"/>
<path d="M209.425 98.2743V100.689H170.879V98.2743H173.319C176.161 93.8555 177.241 82.0778 177.241 78.9991C177.307 76.4465 177.128 73.8935 176.704 71.3747H162.631C162.204 73.8037 162.022 76.2688 162.089 78.7335C162.089 84.2209 163.577 93.5898 166.011 98.2743H168.451V100.689H143.831V98.2743H146.271C158.032 82.8807 166.285 36.5791 176.424 0.310547H181.834C185.348 27.6086 193.601 72.8477 207.259 98.2743H209.425ZM176.424 68.4288C176.155 62.8086 171.69 42.4709 170.208 35.5046H169.933C168.176 42.2174 163.577 63.3459 163.04 68.4288H176.424Z" fill="#FFF1F1"/>
<path d="M339.963 58.5311C339.963 80.8656 346.523 92.7874 348.659 98.2745H350.802V100.689H310.797V98.2745H312.674C315.347 92.2381 321.901 75.5235 321.901 47.1526C321.901 19.319 314.279 5.39919 312.674 2.72509H310.797V0.310547H354.948C360.035 0.310547 380.366 0.576145 380.366 24.9328C380.366 45.4081 370.065 51.9636 344.646 51.9636H339.963V58.5311ZM342.775 49.2955C357.09 49.2955 357.627 40.4643 357.627 25.4761C357.627 14.6107 355.75 2.72509 348.394 2.72509C339.945 2.72509 339.945 33.1 339.945 42.4684V49.2955H342.775Z" fill="#FFF1F1"/>
<path d="M410.817 58.4784C410.817 79.6407 417.954 93.6169 420.111 97.7413H423.075V100.143H383.348V97.7413H385.231C387.922 91.7378 392.909 75.1141 392.909 46.8977C392.909 20.8125 387.114 6.83635 385.231 2.71195H383.348V0.310547H426.441C434.252 0.31655 449.755 2.97009 449.755 25.6033C449.755 39.0451 443.024 47.432 430.225 50.2176V50.4878C444.367 54.8763 449.214 60.8678 449.214 85.0919C449.214 89.3484 449.487 92.5423 452.045 92.5423C452.846 92.5093 453.609 92.1979 454.2 91.663C454.792 91.1281 455.173 90.4041 455.276 89.6186C455.276 89.5834 455.282 89.5484 455.295 89.5156C455.308 89.4829 455.328 89.453 455.353 89.4279C455.377 89.4027 455.407 89.3827 455.44 89.3691C455.473 89.3554 455.508 89.3484 455.544 89.3484H456.625C456.892 89.3484 456.892 89.6186 456.892 89.8827C456.892 91.8759 456.084 100.689 441.943 100.689C429.69 100.689 426.459 92.2841 426.459 84.8458C426.459 80.7214 428.075 76.4409 428.075 68.8765C428.075 61.156 426.726 51.9766 416.624 51.9766H410.817V58.4784ZM414.182 49.2931C425.766 49.2931 427.516 39.3093 427.516 25.3391C427.516 14.5328 426.034 2.71195 418.762 2.71195C410.95 2.71195 410.817 33.1917 410.817 42.5091V49.2931H414.182Z" fill="#FFF1F1"/>
<path d="M497.616 2.72509H495.794C488.435 16.3163 484.548 31.6008 484.494 47.1526C484.494 74.7206 493.473 93.5903 495.818 98.2745H497.64V100.689H457.886V98.2745H459.707C462.058 93.5903 470.967 74.7327 470.967 47.1526C470.967 22.2647 460.748 4.59635 459.707 2.72509H457.886V0.310547H497.616V2.72509Z" fill="#FFF1F1"/>
<path d="M666.594 2.72509H664.771C657.398 16.3128 653.5 31.5982 653.442 47.1526C653.442 74.7206 662.425 93.5903 664.771 98.2745H666.594V100.689H626.84V98.2745H628.668C631.02 93.5903 639.932 74.7327 639.932 47.1526C639.932 22.2647 629.709 4.59635 628.668 2.72509H626.84V0.310547H666.594V2.72509Z" fill="#FFF1F1"/>
<path d="M529.673 0.316583C529.125 3.26232 529.261 7.40929 529.261 9.5522C529.261 20.9247 540.038 46.0842 548.901 69.9157H549.172V50.364C549.172 42.74 547.265 15.172 539.219 2.72509H537.054V0.310547H563.233V2.72509H561.044C556.818 13.0291 551.632 23.5988 551.632 51.1668C551.632 57.2031 551.903 95.3287 552.45 100.665H538.918C537.577 95.6004 517.118 37.3918 514.91 30.2931H514.639V50.364C514.639 57.9939 516.552 85.8275 524.321 98.2745H526.505V100.689H500.621V98.2745H502.799C504.982 94.7915 512.21 80.6121 512.21 50.0984C512.21 19.313 505.53 8.47773 502.799 2.72509H500.621V0.310547L529.673 0.316583Z" fill="#FFF1F1"/>
<path d="M591.557 57.121C591.557 82.8055 591.557 97.7741 602.774 97.7741C612.648 97.7741 615.983 85.1947 615.983 76.0558C615.983 69.4376 617.489 59.5939 614.382 48.7765C613.897 47.1805 613.272 45.6296 612.515 44.1414C612.383 43.8786 612.648 43.7472 612.78 43.8786C622.66 48.7765 623.859 56.8582 623.859 63.4764C623.859 91.5501 613.051 100.689 599.035 100.689C589.559 100.689 568.203 92.8762 568.203 50.6342C568.203 7.62763 591.961 0.310547 598.499 0.310547C604.905 0.310547 608.132 3.22543 610.378 5.87153C614.382 1.8994 618.067 1.63658 620.999 1.63658C621.136 1.65089 621.264 1.71149 621.361 1.80826C621.459 1.90503 621.52 2.03209 621.535 2.16819C621.535 2.43101 621.041 38.449 621.041 38.8492C621.041 39.2494 621.041 39.6376 620.505 39.6376C610.499 39.6376 606.657 31.9622 606.657 12.89C606.657 6.14032 603.99 3.48825 600.92 3.48825C592.762 3.48228 591.557 20.7028 591.557 48.5137V57.121Z" fill="#FFF1F1"/>
<path d="M700.15 58.5311C700.15 80.8656 706.803 92.7874 708.969 98.2745H711.142V100.689H670.569V98.2745H672.473C675.184 92.2381 681.831 75.5235 681.831 47.1526C681.831 19.319 674.101 5.39919 672.473 2.72509H670.569V0.310547H715.347C720.506 0.310547 741.132 0.576145 741.132 24.9328C741.132 45.4081 730.685 51.9636 704.899 51.9636H700.15V58.5311ZM703.002 49.2955C717.52 49.2955 718.064 40.4643 718.064 25.4761C718.064 14.6107 716.161 2.72509 708.7 2.72509C700.131 2.72509 700.131 33.1 700.131 42.4684V49.2955H703.002Z" fill="#FFF1F1"/>
<path d="M744.114 100.689V98.274H746.002C748.974 92.5204 755.588 76.3219 755.588 48.767C755.588 24.1403 747.062 4.59713 746.002 2.72552H744.114V0.310547H785.288V2.72552H783.4C782.316 4.59713 773.815 24.1403 773.815 48.767C773.815 63.3595 773.949 98.274 782.724 98.274C786.774 98.274 787.316 88.3666 787.316 83.6815C787.316 70.5682 799.197 61.4638 806.889 61.4638C807.431 61.4638 807.431 61.7355 807.297 62.0011C804.861 66.8311 804.459 74.4503 804.459 77.6622C804.459 82.6129 805.135 96.2636 808.509 100.146C808.783 100.417 808.783 100.683 808.509 100.683L744.114 100.689Z" fill="#FFF1F1"/>
<path d="M840.268 51.4203V59.8712C840.268 94.1335 846.348 98.8177 848.866 98.8177C850.584 98.8177 852.834 96.4032 852.834 92.1234C852.834 80.7509 856.008 65.4911 870.554 61.7485C871.085 61.6097 871.485 62.0141 871.347 62.2797C868.304 68.5696 868.961 73.3866 868.961 77.1352C868.961 84.6323 870.948 95.6064 873.197 100.152C873.328 100.423 873.459 100.689 872.928 100.689H811.695V98.2745H813.545C815.663 93.5903 822.673 76.5919 822.673 49.0299C822.584 33.1466 819.485 17.428 813.545 2.72509H811.695V0.310547H870.291C870.822 0.310547 870.954 0.576146 870.822 1.11338C869.098 7.53606 867.911 15.9688 867.911 20.1158C867.911 24.13 868.573 33.3958 871.085 38.4482C871.347 38.9854 871.085 39.251 870.554 39.1182C851.115 34.1684 850.978 16.2344 850.978 10.0774C850.978 6.45555 850.453 2.71905 847.804 2.71905C841.987 2.71905 840.268 24.6672 840.268 41.6595V48.4867H842.78C847.41 48.4867 850.584 45.2753 850.584 39.1182C850.584 36.3053 849.659 33.8968 848.066 30.8243C847.935 30.5527 847.804 30.2871 848.066 30.0215L849.128 29.2126C849.522 28.947 849.791 28.947 849.922 29.2126C852.04 31.8927 858.52 38.7198 858.52 49.2895C858.52 60.1549 853.89 66.4207 850.453 69.8976C850.185 70.1632 849.922 70.4348 849.659 70.1632L848.335 68.9559C847.935 68.5515 848.066 68.4187 848.729 67.6159C851.378 64.1389 850.978 58.2474 849.791 55.8389C849.17 54.4954 848.177 53.3631 846.933 52.5798C845.688 51.7964 844.246 51.3957 842.78 51.4264L840.268 51.4203Z" fill="#FFF1F1"/>
<path d="M296.883 50.5028C274.831 57.005 264.154 69.1345 257.129 90.7506V10.249C263.349 34.2323 277.541 45.0913 296.883 50.5028Z" fill="#FFF1F1"/>
<path d="M257.129 10.249V90.7506C251.249 70.1832 237.004 56.7673 214.394 50.5028C238.158 43.5831 252.403 30.1652 257.129 10.249Z" fill="#FFF1F1"/>
</svg>
