<svg width="163" height="121" viewBox="0 0 163 121" fill="none" xmlns="http://www.w3.org/2000/svg">
<path d="M34.0851 62.116V72.0889C34.0851 112.606 41.3391 118.143 44.3304 118.143C46.3848 118.143 49.0616 115.294 49.0616 110.233C49.0616 96.7928 52.8425 78.7353 70.1812 74.2999C70.8103 74.1453 71.2854 74.6225 71.1248 74.9719C67.5045 82.4113 68.2874 88.1034 68.2874 92.5388C68.2874 101.403 70.6563 114.38 73.3331 119.763C73.4937 120.079 73.6476 120.395 73.0186 120.395H0.0768288V117.545H2.28516C4.74778 112.008 13.0993 91.8466 13.0993 59.2666C12.9957 40.475 9.3042 21.8777 2.22493 4.48257H0.0166016V1.65332H69.8399C70.469 1.65332 70.6296 1.96917 70.469 2.60088C68.4212 10.2016 67.0026 20.1745 67.0026 25.0803C67.0026 29.8249 67.7922 40.7454 70.7835 46.7601C71.098 47.4321 70.7835 47.7143 70.1544 47.5531C46.9871 41.6997 46.7997 20.4904 46.7997 13.219C46.7997 8.94486 46.1707 4.48257 43.0188 4.48257C36.0927 4.48257 34.0851 30.4566 34.0851 50.5638V58.6281H37.0831C42.5972 58.6281 46.3848 54.8244 46.3848 47.5463C46.3848 44.1862 45.2806 41.3704 43.3868 37.7347C43.2262 37.4188 43.0723 37.103 43.3868 36.7871L44.6449 35.8328C45.12 35.517 45.4346 35.517 45.5952 35.8328C48.118 38.9981 55.8405 47.0692 55.8405 59.5757C55.8405 72.398 50.3197 79.8374 46.2242 83.9503C45.9097 84.2661 45.5952 84.582 45.2806 84.2661L43.7014 82.8414C43.2262 82.371 43.3868 82.2097 44.1765 81.2621C47.3284 77.1426 46.8532 70.1803 45.4346 67.3309C44.6952 65.7421 43.5125 64.403 42.03 63.4761C40.5475 62.5492 38.829 62.0744 37.0831 62.1092L34.0851 62.116Z" fill="#FFF1F1"/>
<path d="M112.675 69.5161C112.675 95.9545 120.362 110.044 122.864 116.538H125.373V119.388H78.5059V116.538H80.7021C83.8368 109.412 91.5172 89.6491 91.5172 56.038C91.5172 23.0992 82.579 6.64319 80.7021 3.47702H78.5059V0.646973H130.232C136.188 0.646973 160.015 0.962912 160.015 29.7743C160.015 53.9743 147.948 61.7586 118.165 61.7586H112.675V69.5161ZM115.969 58.6194C132.741 58.6194 133.366 48.173 133.366 30.4398C133.366 17.6138 131.177 3.55097 122.551 3.55097C112.675 3.55097 112.675 39.4879 112.675 50.5729V58.6395L115.969 58.6194Z" fill="#FFF1F1"/>
<path d="M162.026 104.801C154.21 106.998 150.423 111.088 147.938 118.382V91.2124C150.141 99.307 155.171 102.974 162.026 104.801Z" fill="#FFF1F1"/>
<path d="M147.939 91.2124V118.382C145.999 111.446 141.303 106.918 133.851 104.801C141.687 102.458 146.383 97.9281 147.939 91.2124Z" fill="#FFF1F1"/>
<path d="M133.851 104.801C141.667 106.998 145.448 111.088 147.939 118.382V91.2124C145.756 99.307 140.713 102.974 133.851 104.801Z" fill="#FFF1F1"/>
<path d="M147.938 91.2124V118.382C149.874 111.446 154.57 106.918 162.026 104.801C154.208 102.458 149.512 97.9281 147.938 91.2124Z" fill="#FFF1F1"/>
</svg>
