<svg width="300" height="193" viewBox="0 0 300 193" fill="none" xmlns="http://www.w3.org/2000/svg">
<path d="M45.9266 93.6519V105.334C45.9266 152.811 54.5867 159.301 58.1666 159.301C60.6101 159.301 63.8491 155.944 63.8491 150.025C63.8491 134.27 68.3951 113.099 89.0906 107.93C89.8406 107.751 90.4089 108.299 90.2271 108.68C85.897 117.385 86.8176 124.065 86.8176 129.257C86.8176 139.641 89.6361 154.848 92.841 161.159C93.0342 161.528 93.216 161.897 92.4659 161.897H5.24023V158.54H7.93371C10.9454 152.05 20.9238 128.496 20.9238 90.2839C20.7864 68.3026 16.3771 46.5503 7.93371 26.2011H5.29705V22.8442H88.7383C89.4883 22.8442 89.6702 23.2135 89.4883 23.9632C87.0335 32.9149 85.3401 44.5408 85.3401 50.2923C85.3401 55.8871 86.2834 68.6544 89.8861 75.7038C90.2611 76.4423 89.8861 76.8228 89.136 76.6326C61.4511 69.7622 61.2579 44.9213 61.2579 36.3501C61.2579 31.3483 60.5078 26.1564 56.7119 26.1564C48.4269 26.1564 45.9834 56.5696 45.9834 80.1125V89.5789H49.5634C56.155 89.5789 60.6669 85.1031 60.6669 76.599C60.6669 72.705 59.3486 69.3593 57.087 65.0961C56.9051 64.7269 56.7119 64.3576 57.087 63.9771L58.5985 62.8582C59.1667 62.4927 59.5456 62.4927 59.735 62.8582C62.7581 66.5731 71.9864 76.0283 71.9864 90.6755C71.9864 105.692 65.3947 114.409 60.4964 119.231C60.1214 119.601 59.735 119.97 59.3599 119.601L57.4165 117.956C56.8483 117.396 57.0301 117.217 57.9734 116.109C61.7466 111.287 61.1783 103.118 59.485 99.7838C58.6026 97.9216 57.1898 96.3519 55.4184 95.2653C53.647 94.1788 51.5932 93.6221 49.5066 93.6631L45.9266 93.6519Z" fill="#0B0B0C"/>
<path d="M141.415 103.857C141.415 133.341 151.393 152.811 154.417 158.563H158.553V161.92H102.99V158.563H105.672C109.446 150.215 116.412 127.03 116.412 87.7214C116.412 51.3777 108.309 31.9078 105.672 26.1787H103.036V22.8442H163.27C174.203 22.8442 195.864 26.548 195.864 58.069C195.864 76.8004 186.443 88.4823 168.589 92.3763V92.7456C188.363 98.8663 195.137 107.214 195.137 140.961C195.137 146.903 195.512 151.345 199.092 151.345C200.216 151.305 201.29 150.873 202.122 150.128C202.954 149.382 203.491 148.371 203.638 147.272C203.636 147.223 203.645 147.175 203.663 147.129C203.682 147.084 203.709 147.042 203.744 147.008C203.779 146.973 203.821 146.946 203.868 146.928C203.914 146.91 203.963 146.902 204.013 146.903H205.525C205.9 146.903 205.9 147.272 205.9 147.642C205.9 150.417 204.763 162.658 184.988 162.658C167.85 162.658 163.327 150.976 163.327 140.592C163.327 134.841 165.6 128.91 165.6 118.336C165.6 107.583 163.724 94.838 149.598 94.838H141.495L141.415 103.857ZM146.12 91.1007C162.326 91.1007 164.77 77.192 164.77 57.7222C164.77 42.661 162.702 26.2011 152.53 26.2011C141.608 26.2011 141.415 68.7215 141.415 81.6455V91.1007H146.12Z" fill="#0B0B0C"/>
<path d="M297.739 158.563V161.92H244.063V158.563H247.472C251.427 152.442 252.927 136.117 252.927 131.854C253.02 128.317 252.769 124.78 252.177 121.291H232.573C231.982 124.656 231.731 128.07 231.823 131.484C231.823 139.093 233.891 152.073 237.289 158.563H240.699V161.92H206.399V158.563H209.809C226.197 137.236 237.687 73.0747 251.859 22.8223H259.394C264.281 60.6431 275.771 123.327 294.796 158.563H297.739ZM251.791 117.162C251.416 109.329 245.199 81.1871 243.119 71.5417H242.744C240.301 80.8179 233.891 110.112 233.141 117.162H251.791Z" fill="#0B0B0C"/>
<path d="M53.3946 50.7287C58.361 60.5755 70.9079 65.9018 81.4886 62.0302C86.6347 60.174 90.9869 56.6504 93.8309 52.0379C96.854 47.0697 98.195 40.2329 94.9674 35.0185C91.933 30.0392 85.6936 27.6222 79.9771 28.2041C76.7048 28.5718 73.5339 29.5516 70.6351 31.091C68.0098 32.4449 65.6459 34.3024 62.8956 35.4325C61.2477 36.1039 58.8952 36.7417 57.6223 35.1081C56.3494 33.4744 56.8381 31.1134 57.395 29.3454C58.2701 26.5928 59.9067 24.1423 60.8045 21.412C61.7993 18.6765 61.8433 15.6931 60.9295 12.9303C57.0541 2.19948 42.3933 -1.3588 32.324 1.90856C29.6546 2.71995 27.1923 4.08434 25.1028 5.9101C23.0132 7.73586 21.3446 9.98071 20.209 12.4939C19.1093 14.8488 18.5762 17.4218 18.6511 20.0127C18.726 22.6035 19.4069 25.1425 20.6409 27.432C23.2548 31.9078 27.903 34.4367 32.6308 36.2718C34.9607 37.1781 37.3473 37.9278 39.6885 38.7782C40.6886 39.1475 41.6887 39.5168 42.6547 39.9643C43.7796 40.3587 44.8343 40.9251 45.7801 41.6428C45.3027 41.1952 46.3142 41.2623 45.5755 41.6428C45.2983 41.848 45.0362 42.0723 44.7913 42.3141C43.5728 43.1094 42.2646 43.7628 40.8931 44.2611C37.9705 45.3261 34.9925 46.2375 31.9717 46.9914C26.2892 48.4908 20.5045 50.035 15.5835 53.3583C11.1284 56.3683 7.12798 60.6986 6.15059 66.1032C5.66339 68.8223 5.89811 71.6193 6.83199 74.2228C7.76587 76.8264 9.36722 79.1481 11.4807 80.963C16.4699 85.2038 22.6865 85.4388 28.8804 83.9953C32.0058 83.2904 35.0857 82.2274 38.2792 81.7574C39.9612 81.5336 42.9956 81.2875 43.7457 83.2568C43.9844 83.8611 43.8821 84.096 43.2116 84.4653C41.8078 85.1397 40.3524 85.7047 38.8588 86.1549L29.1759 89.702C23.698 91.7161 18.0497 93.5289 12.89 96.3039C8.57133 98.6313 4.29813 101.899 2.11606 106.374C-0.611517 111.969 0.422689 118.124 3.44576 123.371C6.19607 128.172 10.8216 132.704 16.5609 133.588C23.2775 134.617 28.4826 130.533 33.4264 126.717C36.779 124.121 41.9614 120.541 46.0074 123.774C47.7689 125.184 47.553 126.74 46.2915 128.642C44.6524 130.877 42.8802 133.014 40.9841 135.042C37.2791 139.384 34.3583 144.195 34.4492 150.047C34.5897 155.348 36.6959 160.415 40.3703 164.292C48.2235 172.594 62.1228 172.706 71.1693 166.239C73.7205 164.601 75.703 162.235 76.8517 159.458C77.3038 157.946 77.4139 156.355 77.1744 154.797C76.9348 153.239 76.3514 151.751 75.4652 150.439C73.6634 147.741 71.6896 145.159 69.5555 142.707C67.3658 140.214 65.3243 137.599 63.4411 134.874C62.9638 134.08 62.9865 133.979 63.7139 133.532C64.5364 133.091 65.4771 132.911 66.4074 133.017C68.4083 133.199 70.3462 133.802 72.0898 134.785C76.2835 136.922 80.2726 139.932 85.0118 140.76C87.6403 141.216 90.3472 140.89 92.7865 139.824C95.2259 138.757 97.287 136.999 98.7065 134.774C101.855 130.298 102.502 124.502 101.525 119.22C99.6839 109.317 90.6601 99.4146 79.8521 99.6607C74.9652 99.7838 70.351 102.055 68.7144 106.811L72.2035 104.864C71.2002 104.519 70.3036 103.926 69.5993 103.142C68.8949 102.359 68.4064 101.411 68.1803 100.388C67.3052 96.8969 61.8273 98.374 62.691 101.876C63.1892 103.823 64.1801 105.613 65.5713 107.081C66.9624 108.548 68.7084 109.645 70.6465 110.268C71.3739 110.452 72.1454 110.351 72.7984 109.986C73.4514 109.62 73.9348 109.02 74.1469 108.31C74.4062 107.674 74.8139 107.106 75.337 106.653C75.8602 106.2 76.4842 105.875 77.1586 105.703C78.923 105.183 80.7936 105.117 82.591 105.513C86.9217 106.672 90.638 109.419 92.9786 113.189C95.5413 116.955 96.6537 121.499 96.1153 126.001C95.5357 129.884 93.2172 134.371 89.0122 135.3C85.3186 136.105 81.3522 133.565 78.0337 131.674C74.181 129.436 69.9419 127.198 65.3391 127.456C63.9582 127.468 62.6 127.802 61.3753 128.43C60.1507 129.058 59.0944 129.963 58.2928 131.07C56.5199 133.89 57.7473 136.821 59.6225 139.216C61.4977 141.611 63.6684 144.307 65.6914 146.847C67.6948 149.073 69.4724 151.487 70.9988 154.053C73.3627 158.697 67.8621 162.188 64.1117 163.732C59.6162 165.6 54.5695 165.724 49.9851 164.079C47.9855 163.292 46.1734 162.104 44.6633 160.593C43.1532 159.081 41.9778 157.277 41.2114 155.295C40.3712 153.256 40.0272 151.052 40.2068 148.858C40.3864 146.665 41.0845 144.543 42.2456 142.662C45.0186 138.186 49.701 134.83 52.008 130.018C54.5879 124.681 51.4511 119.41 46.0755 117.508C40.6999 115.606 35.313 118.291 31.0852 121.447C27.2211 124.323 22.5956 129.078 17.2541 128.015C12.5377 127.064 8.98046 122.488 7.24163 118.325C6.29177 116.319 5.96307 114.082 6.29656 111.893C6.63005 109.704 7.61095 107.66 9.11684 106.016C12.1172 102.76 16.2767 100.645 20.334 98.9558C26.0165 96.5724 31.949 94.6254 37.7564 92.4994C42.5638 90.7315 51.2807 88.8964 49.2805 81.9253C47.4507 75.5584 40.1885 75.592 34.7788 76.7109C29.3691 77.8299 23.4139 80.6497 18.0156 78.4677C16.07 77.6255 14.4186 76.239 13.2669 74.4803C12.1152 72.7216 11.5138 70.6685 11.5376 68.5761C11.6739 64.1786 14.947 60.486 18.4588 58.1138C23.0048 55.0591 28.2326 53.7051 33.4719 52.3176C36.3245 51.5567 39.1543 50.7958 41.9387 49.7664C44.7231 48.737 47.6212 47.6516 49.6555 45.5815C51.8376 43.3436 52.2921 39.9867 49.9282 37.6257C48.1894 35.9249 45.5755 34.985 43.3593 34.0898C36.3244 31.2588 24.539 29.379 24.4368 19.8231C24.4265 17.7128 24.9386 15.6318 25.9287 13.7602C26.9188 11.8885 28.3571 10.2825 30.1192 9.08108C34.2892 6.50222 39.3152 5.62329 44.1322 6.63056C48.4508 7.45859 53.0991 9.60699 55.2016 13.6352C57.6678 18.3461 53.5991 23.0792 52.0989 27.432C50.4965 32.0645 50.9625 38.2411 55.9289 40.714C61.2932 43.4107 66.9302 39.7853 71.4307 37.0662C75.738 34.4479 81.3181 32.3218 86.2732 34.5598C87.2846 34.9706 88.2008 35.579 88.9665 36.3483C89.7322 37.1176 90.3316 38.0318 90.7283 39.0356C91.4275 41.5314 91.2431 44.1872 90.2055 46.5662C88.5357 50.6708 85.3707 54.0144 81.3295 55.9431C79.2994 56.9196 77.0885 57.4787 74.8318 57.5864C72.575 57.6942 70.3196 57.3482 68.203 56.5697C63.8828 55.0096 60.3382 51.8722 58.3042 47.8082C56.6677 44.5856 51.7694 47.4166 53.3946 50.628V50.7287Z" fill="#BF92EA"/>
<path d="M144.654 178.637C144.654 183.269 141.472 185.686 136.381 185.686H130.528L129.278 191.851H128.755L132.414 173.903H138.551C142.415 173.903 144.654 175.582 144.654 178.637ZM144.143 178.637C144.143 175.884 142.154 174.34 138.574 174.34H132.892L130.698 185.194H136.381C141.29 185.194 144.143 182.989 144.143 178.637Z" fill="#0B0B0C" stroke="#0B0B0C"/>
<path d="M160.643 185.473L164.292 191.851H163.689L160.087 185.585C159.491 185.654 158.891 185.687 158.291 185.686H152.438L151.188 191.851H150.665L154.313 173.903H160.462C164.326 173.903 166.565 175.627 166.565 178.681C166.565 182.519 164.348 184.836 160.643 185.473ZM166.042 178.637C166.042 175.884 164.064 174.34 160.484 174.34H154.734L152.54 185.194H158.223C163.201 185.194 166.042 182.989 166.042 178.637Z" fill="#0B0B0C" stroke="#0B0B0C"/>
<path d="M176.646 173.903H177.169L173.509 191.807H172.986L176.646 173.903Z" fill="#0B0B0C" stroke="#0B0B0C"/>
<path d="M202.103 173.903L198.444 191.807H198L188.079 174.664L184.613 191.807H184.09L187.738 173.903H188.181L198.114 191.046L201.58 173.903H202.103Z" fill="#0B0B0C" stroke="#0B0B0C"/>
<path d="M208.763 184.657C208.713 183.22 208.962 181.788 209.496 180.45C210.03 179.111 210.836 177.895 211.866 176.876C212.896 175.857 214.128 175.056 215.484 174.524C216.84 173.991 218.293 173.738 219.753 173.78C222.503 173.78 224.663 174.597 225.89 176.018L225.526 176.354C224.77 175.607 223.858 175.031 222.853 174.666C221.849 174.301 220.775 174.155 219.708 174.239C218.32 174.213 216.941 174.464 215.656 174.979C214.37 175.494 213.205 176.261 212.23 177.233C211.255 178.206 210.491 179.363 209.985 180.636C209.479 181.908 209.241 183.269 209.286 184.634C209.286 188.674 211.923 191.426 217.037 191.426C219.375 191.516 221.659 190.715 223.413 189.188L223.731 189.602C221.836 191.131 219.44 191.926 216.991 191.84C211.661 191.93 208.763 188.998 208.763 184.657Z" fill="#0B0B0C" stroke="#0B0B0C"/>
<path d="M234.881 173.903H235.393L231.744 191.807H231.222L234.881 173.903Z" fill="#0B0B0C" stroke="#0B0B0C"/>
<path d="M258.223 178.637C258.223 183.269 255.03 185.686 249.938 185.686H244.097L242.835 191.807H242.312L245.972 173.903H252.109C255.973 173.903 258.223 175.582 258.223 178.637ZM257.701 178.637C257.701 175.884 255.712 174.34 252.132 174.34H246.392L244.199 185.194H249.882C254.848 185.194 257.701 182.989 257.701 178.637Z" fill="#0B0B0C" stroke="#0B0B0C"/>
<path d="M267.885 173.903H268.407L264.85 191.415H275.738L275.635 191.896H264.271L267.885 173.903Z" fill="#0B0B0C" stroke="#0B0B0C"/>
<path d="M287.079 174.34L285.431 182.463H295.466L295.364 182.956H285.283L283.579 191.37H295.228L295.125 191.851H282.965L286.658 173.903H298.432L298.33 174.384L287.079 174.34Z" fill="#0B0B0C" stroke="#0B0B0C"/>
<path d="M120.186 183.425C116.004 181.187 113.841 178.05 113.697 174.015V173.914V174.004C112.88 175.854 111.538 177.434 109.833 178.553C108.128 179.672 106.131 180.284 104.082 180.315C108.287 182.452 109.98 185.249 110.571 189.747V189.826C111.426 187.995 112.774 186.43 114.469 185.301C116.165 184.173 118.142 183.524 120.186 183.425Z" fill="#0B0B0C"/>
</svg>
