<svg width="167" height="156" viewBox="0 0 167 156" fill="none" xmlns="http://www.w3.org/2000/svg">
<path d="M37.4115 82.1737V92.1598C37.4115 132.73 44.7059 138.275 47.7139 138.275C49.7797 138.275 52.4714 135.422 52.4714 130.355C52.4714 116.896 56.2734 98.8149 73.7086 94.3736C74.3412 94.2189 74.819 94.6966 74.6575 95.0466C71.017 102.496 71.8043 108.195 71.8043 112.637C71.8043 121.512 74.1864 134.506 76.8781 139.896C77.0396 140.213 77.1943 140.529 76.5618 140.529H3.21388V137.676H5.43451C7.91084 132.131 16.3088 111.944 16.3088 79.3205C16.2047 60.5042 12.4926 41.8824 5.37394 24.4643H3.15332V21.6313H73.3654C73.998 21.6313 74.1595 21.9476 73.998 22.5802C71.9389 30.1908 70.5123 40.1769 70.5123 45.0892C70.5123 49.84 71.3063 60.7749 74.3143 66.7975C74.6305 67.4704 74.3143 67.7531 73.6817 67.5916C50.3853 61.7304 50.1969 40.4932 50.1969 33.2122C50.1969 28.9325 49.5644 24.4643 46.3949 24.4643C39.4303 24.4643 37.4115 50.4726 37.4115 70.6062V78.6812H40.4262C45.971 78.6812 49.7797 74.8725 49.7797 67.5848C49.7797 64.2202 48.6694 61.4007 46.765 57.7602C46.6035 57.444 46.4488 57.1277 46.765 56.8114L48.0301 55.8559C48.5079 55.5396 48.8242 55.5396 48.9857 55.8559C51.5226 59.0253 59.288 67.1071 59.288 79.63C59.288 92.4693 53.7365 99.9185 49.6182 104.037C49.3019 104.353 48.9857 104.669 48.6694 104.353L47.0813 102.926C46.6035 102.455 46.7651 102.294 47.5591 101.345C50.7285 97.2201 50.2508 90.2487 48.8242 87.3955C48.0807 85.8046 46.8914 84.4638 45.4007 83.5356C43.91 82.6075 42.1819 82.132 40.4262 82.1669L37.4115 82.1737Z" fill="#BF92EA"/>
<path d="M44.4502 45.0352C48.4877 53.1775 58.6689 57.5043 67.2419 54.2138C71.3955 52.6459 74.8819 49.6942 77.1135 45.8562C79.462 41.7446 80.4781 36.0652 77.5779 31.9604C74.8256 28.071 69.9133 26.5771 65.3375 27.25C62.6737 27.6745 60.1156 28.6041 57.8008 29.9888C55.7821 31.1529 53.8508 32.6064 51.6369 33.4207C49.7998 34.0936 47.559 34.3089 46.3814 32.4046C45.4259 30.8568 45.7085 28.7439 46.2065 27.0952C46.94 24.666 48.38 22.5127 49.1673 20.1036C49.9379 17.9295 49.9545 15.5592 49.2144 13.3745C46.0046 4.55926 33.8046 1.88105 25.7767 4.81497C23.6702 5.53807 21.7437 6.70539 20.1276 8.23789C18.5115 9.77039 17.2436 11.6323 16.4097 13.6975C14.862 17.6071 15.0101 22.3041 17.4258 25.81C19.8416 29.3159 23.5224 31.1058 27.3379 32.5391C29.2826 33.2659 31.2677 33.885 33.2125 34.6454C34.0738 34.9818 34.9284 35.3183 35.7628 35.7422C36.3415 36.0181 38.1786 36.6641 38.2324 37.4582C38.2862 38.2522 36.9404 39.053 36.3752 39.376C35.1722 40.0349 33.9189 40.5975 32.627 41.0583C30.2314 41.96 27.7618 42.6329 25.299 43.3058C20.6289 44.5642 15.9185 45.9167 11.9281 48.7564C8.36837 51.2933 5.33351 54.88 4.68751 59.3212C4.39666 61.5323 4.68675 63.7811 5.52923 65.846C6.37171 67.9109 7.73752 69.7207 9.49214 71.0973C13.6104 74.3407 18.6573 74.0783 23.4955 72.8872C25.9921 72.2749 28.4751 71.4472 31.0322 71.1444C32.9366 70.9156 36.1329 70.9963 36.4963 73.4861C36.6309 74.3878 36.032 74.906 35.2783 75.2828C34.1103 75.8132 32.9128 76.2761 31.6917 76.669L23.1389 79.8452C18.6438 81.5207 14.0141 83.0079 9.82187 85.3766C6.33616 87.3078 2.89755 89.9658 1.2018 93.6736C-0.904425 98.2764 0.131868 103.31 2.64858 107.542C4.99033 111.479 8.7923 115.019 13.5296 115.516C18.7717 116.062 22.863 112.367 26.7188 109.406C29.8748 106.984 34.74 104.07 38.2997 107.489C39.8205 108.949 39.6455 110.671 38.5689 112.361C37.2634 114.44 35.5071 116.21 33.9325 118.08C30.9447 121.62 28.5491 125.523 28.6164 130.3C28.7084 134.585 30.3648 138.687 33.273 141.834C39.6052 148.745 50.8967 148.759 58.2046 143.395C60.1628 141.962 62.0066 140.105 62.6593 137.696C63.312 135.287 62.4843 132.777 61.152 130.697C59.6244 128.315 57.7066 126.142 55.9638 123.914L53.3259 120.55C52.5453 119.554 51.462 118.531 51.0178 117.32C50.2978 115.375 53.4269 114.924 54.6852 114.971C56.5008 115.139 58.2577 115.702 59.833 116.62C63.2514 118.39 66.5151 120.913 70.3776 121.606C74.7112 122.38 78.5939 120.456 81.0232 116.856C83.4524 113.255 84.0311 108.599 83.2573 104.333C81.8038 96.2576 74.6978 88.1826 66.0373 88.2566C62.3094 88.297 58.6352 89.986 57.3769 93.7073L59.214 92.6642C58.2154 92.3304 57.3194 91.7453 56.6123 90.9652C55.9052 90.185 55.4108 89.236 55.1765 88.2095C54.7323 86.3388 51.8522 87.1329 52.2964 89.0036C52.6725 90.5244 53.4314 91.9237 54.5008 93.0685C55.5703 94.2134 56.9147 95.0656 58.4064 95.5443C58.7881 95.6423 59.193 95.5884 59.5356 95.3938C59.8783 95.1993 60.1321 94.8793 60.2435 94.5013C61.2798 91.3992 65.3308 90.881 68.1166 91.4126C71.8782 92.1326 75.2025 94.7772 77.3491 97.8861C79.6906 101.194 80.8195 105.208 80.5454 109.252C80.2628 112.811 78.3517 116.97 74.8323 118.349C71.4207 119.695 67.908 117.751 65.001 116.082C61.798 114.245 58.4805 112.112 54.6718 111.957C53.6862 111.878 52.6949 111.999 51.7572 112.312C50.8194 112.626 49.9546 113.125 49.2144 113.78C47.3975 115.584 47.7273 118.053 49.1337 119.991C50.7083 122.151 52.431 124.211 54.0796 126.317C55.7282 128.423 57.599 130.475 58.9448 132.804C60.1022 134.822 60.2906 136.841 58.8708 138.759C57.4541 140.477 55.6413 141.826 53.5884 142.689C49.6945 144.504 45.261 144.79 41.1663 143.49C33.7642 141.04 29.249 131.875 32.9298 124.715C35.0293 120.637 38.7438 117.744 41.1663 113.888C42.3978 111.937 42.9025 109.655 41.9267 107.495C41.1092 105.813 39.7076 104.486 37.9834 103.761C33.6027 101.809 29.1682 103.902 25.6018 106.56C22.1564 109.137 18.2804 113.208 13.5498 112.549C9.19606 111.943 5.96605 107.906 4.24339 104.205C2.45343 100.356 2.5611 96.0557 5.29314 92.6912C7.74256 89.6765 11.3494 87.7519 14.8553 86.211C19.5051 84.1922 24.3771 82.5638 29.1413 80.7873C31.5907 79.8721 34.1545 79.0982 36.5434 77.9879C38.6362 76.9987 39.908 75.0204 39.3966 72.6853C39.1336 71.6437 38.5929 70.693 37.8321 69.9345C37.0713 69.1761 36.1189 68.6383 35.0764 68.3787C32.6405 67.7058 29.969 68.2104 27.5532 68.769C23.0985 69.7985 17.9776 71.9922 13.4623 70.034C11.7154 69.2467 10.2298 67.9764 9.18068 66.3729C8.13155 64.7694 7.56254 62.8994 7.54068 60.9833C7.59451 56.9458 10.3871 53.487 13.5969 51.2462C17.3653 48.5949 21.7392 47.3635 26.1334 46.1792C28.5962 45.5062 31.0658 44.8333 33.4614 43.9855C35.608 43.1914 38.0507 42.3032 39.7263 40.6814C41.5095 38.9588 41.8258 36.3411 39.7868 34.679C38.2593 33.4341 36.254 32.6603 34.4035 31.9873C27.9502 29.4505 18.1526 27.5192 18.3881 18.6972C18.4584 16.7487 19.0018 14.8465 19.9713 13.1548C20.9409 11.4631 22.3074 10.0327 23.9531 8.98705C27.5869 6.69241 32.1627 6.17426 36.3281 7.02887C40.1839 7.81618 44.1945 9.87531 46.0517 13.5158C48.2791 17.8763 44.7059 22.0013 43.4071 26.0186C42.1757 29.8273 42.6602 34.8338 46.8861 36.4824C51.3005 38.2051 55.7148 34.6117 59.3082 32.5459C63.1572 30.3387 68.0561 28.9525 72.2282 31.1664C73.1252 31.606 73.9247 32.2216 74.579 32.9765C75.2333 33.7313 75.7291 34.6101 76.0369 35.5605C76.5995 37.8816 76.3868 40.323 75.4312 42.5118C73.9004 46.2141 71.0422 49.2114 67.4168 50.9165C65.5899 51.7776 63.6074 52.2591 61.5891 52.332C59.5707 52.4049 57.5586 52.0675 55.6744 51.3404C51.9123 49.9215 48.8275 47.1299 47.0409 43.5279C46.1863 41.8052 43.609 43.3193 44.4636 45.0352H44.4502Z" fill="#F84609"/>
<path d="M116.64 89.8788C116.64 116.345 124.413 130.449 126.943 136.949H129.48V139.802H82.0928V136.949H84.3134C87.4828 129.816 95.2483 110.033 95.2483 76.3868C95.2483 43.4139 86.211 26.9409 84.3134 23.7715H82.0928V20.9385H134.392C140.414 20.9385 164.505 21.2547 164.505 50.096C164.505 74.3209 152.305 82.1133 122.192 82.1133H116.64V89.8788ZM119.971 78.9708C136.929 78.9708 137.561 68.5137 137.561 50.7621C137.561 37.9229 135.347 23.8455 126.626 23.8455C116.64 23.8455 116.64 59.8196 116.64 70.916V78.991L119.971 78.9708Z" fill="#BF92EA"/>
<path d="M118.687 79.6435C117.641 78.8931 116.771 77.9241 116.136 76.8038C115.871 76.3209 115.805 75.753 115.955 75.2224C116.473 73.9977 118.095 73.2844 119.467 72.9345C121.393 72.5324 123.386 72.597 125.281 73.1229C127.773 73.5837 130.096 74.7011 132.011 76.3597C134.029 78.2438 135.288 80.774 137.71 82.241C140.032 83.6406 142.952 83.9165 145.597 83.5868C148.129 83.2522 150.556 82.3636 152.705 80.9842C154.855 79.6048 156.673 77.7685 158.032 75.606C160.811 71.1782 161.397 64.873 158.261 60.4519C155.327 56.3404 150.247 54.8196 145.381 54.8196C144.113 54.8287 142.848 54.9254 141.593 55.1089C140.238 55.3858 138.863 55.5524 137.481 55.6069C136.51 55.6186 135.57 55.2611 134.852 54.6066C134.133 53.9521 133.69 53.0494 133.612 52.0808C132.865 47.0811 138.033 44.6047 142.192 44.0731C148.201 43.3195 154.304 45.0354 160.085 42.485C162.375 41.5385 164.283 39.8547 165.508 37.7006C166.12 36.483 166.473 35.1525 166.548 33.7921C166.622 32.4317 166.414 31.0706 165.939 29.7938C164.115 24.5787 159.445 20.2519 154.775 17.5131C150.694 15.0719 145.836 14.2755 141.189 15.2857C139.399 15.6895 137.522 16.5239 136.479 18.1255C135.55 19.5857 135.86 21.3151 135.866 22.9503C135.866 26.113 135.934 30.1572 134.245 32.9027C134.119 33.1406 133.948 33.3511 133.74 33.5218C133.551 33.7035 133.794 33.5218 133.585 33.6496C133.527 33.6933 133.464 33.7295 133.397 33.7573C133.181 33.8717 133.592 33.69 133.363 33.7573C133.172 33.8694 132.946 33.9032 132.731 33.8515C132.196 33.7978 131.668 33.6895 131.156 33.5285C128.997 32.8044 127.091 31.4754 125.665 29.6996C124.134 27.8744 122.967 25.773 122.226 23.5088C121.257 20.622 121.17 17.5938 120.611 14.6263C118.936 5.83126 110.02 -0.177882 101.238 0.649806C96.6151 1.07374 92.3152 3.34147 89.859 7.37897C88.5811 9.37752 88.0101 11.7468 88.2373 14.1081C88.4323 15.3684 88.9047 16.5696 89.6203 17.6251C90.336 18.6806 91.2771 19.564 92.3757 20.2115C94.9665 21.8938 98.0215 22.9839 100.821 24.249L110.087 28.4615C111.621 29.1344 113.169 29.8073 114.683 30.5542C115.727 30.9918 116.664 31.6507 117.428 32.4855C119.218 34.7128 114.945 35.554 113.586 35.9847L104.165 38.9724C101.326 39.7851 98.5312 40.7487 95.7941 41.8592C91.0837 43.9116 86.878 48.3663 88.0489 53.8775C89.2198 59.3887 95.6932 60.3106 100.37 59.382C103.237 58.81 106.231 57.5987 109.192 57.9756C111.11 58.2246 113.579 59.5502 113.902 61.6632C114.225 63.7761 111.944 65.3036 110.269 66.1784C107.799 67.4637 105.175 68.4394 102.692 69.6978C99.9613 71.0889 97.3063 72.623 94.7377 74.2938C92.2809 75.7603 90.0486 77.5734 88.1094 79.6771C86.4406 81.6286 85.0477 83.9703 84.9265 86.5947C84.8945 87.8582 85.1825 89.1094 85.7637 90.2317C86.3449 91.3541 87.2004 92.3113 88.2508 93.0143C93.2707 96.5673 99.6903 94.091 105.074 93.1422C108.983 92.4693 115.208 92.974 115.84 98.0007C116.123 100.268 115.026 102.59 113.68 104.346C112.079 106.419 109.885 107.792 107.624 109.01C103.001 111.499 97.6312 113.565 94.9665 118.43C92.766 122.434 92.4632 127.925 96.4738 130.9C100.208 133.679 105.128 132.178 109.259 131.357C111.278 130.967 113.404 130.597 115.41 131.128C116.495 131.45 117.477 132.051 118.256 132.872C119.036 133.693 119.586 134.705 119.851 135.805C121.035 139.997 118.653 144.748 115.464 147.447C115.039 147.808 114.589 148.139 114.118 148.436C113.539 148.826 112.94 149.183 112.328 149.512C111.085 150.198 109.789 150.781 108.452 151.255C105.552 152.349 102.48 152.912 99.3808 152.917C96.6891 152.884 93.8427 152.244 91.797 150.629C89.3678 148.705 88.2238 145.71 87.9008 142.622C87.8906 142.229 87.73 141.855 87.452 141.577C87.174 141.299 86.7999 141.138 86.407 141.128C86.0118 141.131 85.6339 141.29 85.3545 141.569C85.0751 141.849 84.9166 142.227 84.9131 142.622C85.2832 146.188 86.4339 149.741 89.1121 152.251C91.4797 154.33 94.4619 155.577 97.6043 155.804C103.661 156.437 110.39 154.458 115.497 151.094C118.672 149.022 121.079 145.965 122.347 142.393C124.097 137.548 122.778 131.101 117.711 128.8C113.384 126.842 108.701 128.571 104.307 129.298C102.503 129.594 100.431 129.762 98.7684 128.84C96.9448 127.831 96.2046 125.967 96.3123 123.948C96.5815 118.706 101.13 115.732 105.329 113.558C110.04 111.102 115.08 108.788 117.563 103.747C118.723 101.598 119.099 99.1117 118.626 96.7154C118.329 95.5371 117.779 94.4375 117.014 93.4929C116.25 92.5483 115.289 91.7811 114.198 91.2446C109.078 88.6673 103.62 90.5717 98.3647 91.5205C95.7672 92.005 92.8602 92.1934 90.4579 90.8879C89.4804 90.3955 88.7101 89.5712 88.2847 88.5627C87.8594 87.5542 87.8068 86.4272 88.1364 85.3835C88.8631 82.9004 90.8819 80.8615 92.8468 79.2667C95.1816 77.4596 97.6568 75.8418 100.249 74.4284C102.948 72.8782 105.729 71.4743 108.58 70.2227C110.773 69.2604 113.068 68.352 114.818 66.6495C115.71 65.8438 116.348 64.7953 116.654 63.6324C116.96 62.4695 116.921 61.2427 116.54 60.102C116.056 58.9701 115.326 57.9602 114.403 57.1455C113.48 56.3308 112.387 55.7317 111.204 55.3916C105.652 53.5949 100.289 57.8477 94.7579 56.5826C92.544 56.0712 90.8549 54.5639 90.8549 52.1548C90.9002 50.9992 91.2108 49.8694 91.7628 48.853C92.3147 47.8367 93.0931 46.961 94.0378 46.2937C96.2248 44.6316 98.903 43.7838 101.487 42.9292L110.908 39.9481L115.719 38.4273C116.976 38.1014 118.163 37.5521 119.225 36.8056C121.358 35.1233 121.304 32.3644 119.622 30.3927C117.758 28.2125 114.703 27.2502 112.18 26.0995L102.947 21.9005C100.094 20.6018 97.0458 19.4713 94.3541 17.863C92.3354 16.6518 90.9895 14.8483 91.2452 12.4191C91.6557 7.97787 95.7201 4.78824 99.8115 3.88653C103.794 3.10933 107.923 3.89228 111.345 6.07351C113.025 7.08947 114.479 8.43827 115.618 10.037C116.933 12.0388 117.755 14.3244 118.014 16.7056C118.431 19.5588 118.687 22.3985 119.71 25.1171C120.605 27.5229 121.902 29.7595 123.545 31.7318C125.092 33.6051 127.068 35.0777 129.305 36.025C131.068 36.7518 133.289 37.3238 135.059 36.3077C138.121 34.5446 138.571 29.888 138.82 26.7522C138.945 25.037 138.979 23.3165 138.921 21.5977C138.868 20.0163 138.962 19.3165 140.55 18.6234C144.338 16.9748 149.298 17.8563 152.757 19.7674C155.187 21.1315 157.399 22.8532 159.317 24.8748C161.215 26.8397 162.931 29.2084 163.496 31.927C164.634 37.3843 159.183 40.4528 154.533 40.9171C148.524 41.5228 142.421 39.9818 136.674 42.5523C132.36 44.4903 129.467 49.0796 131.001 53.8237C131.318 54.9104 131.908 55.8977 132.715 56.6917C133.522 57.4856 134.519 58.0597 135.611 58.3591C138.343 59.0321 141.115 58.0429 143.854 57.8679C148.282 57.5718 153.652 58.4668 156.135 62.5783C158.826 67.0801 157.077 72.9614 153.571 76.4673C150.273 79.7713 144.527 81.9987 139.991 79.9934C137.454 78.8696 136.21 76.1511 134.292 74.3073C132.348 72.5206 130.003 71.2281 127.455 70.5389C123.518 69.395 118.801 68.9778 115.295 71.5416C114.559 72.0172 113.955 72.6714 113.54 73.4433C113.125 74.2151 112.911 75.0795 112.92 75.9559C113.061 78.3515 114.858 80.2626 116.607 81.7094C118.074 82.9273 120.201 80.8211 118.72 79.5964L118.687 79.6435Z" fill="#F84609"/>
<path d="M165.999 124.816C158.334 127.05 154.62 131.209 152.184 138.624V111.001C154.344 119.231 159.276 122.959 165.999 124.816Z" fill="#BF92EA"/>
<path d="M152.184 111.001V138.624C150.282 131.572 145.677 126.969 138.369 124.816C146.054 122.434 150.659 117.829 152.184 111.001Z" fill="#BF92EA"/>
<path d="M138.35 124.816C146.014 127.05 149.722 131.209 152.165 138.624V111.001C150.025 119.231 145.079 122.959 138.35 124.816Z" fill="#BF92EA"/>
<path d="M152.184 111.001V138.624C154.081 131.572 158.686 126.969 165.999 124.816C158.332 122.434 153.727 117.829 152.184 111.001Z" fill="#BF92EA"/>
</svg>
