<svg width="164" height="120" viewBox="0 0 164 120" fill="none" xmlns="http://www.w3.org/2000/svg">
<path d="M34.9556 61.0777V71.0254C34.9556 111.44 42.222 116.963 45.2184 116.963C47.2763 116.963 49.9576 114.121 49.9576 109.073C49.9576 95.6667 53.745 77.6549 71.1132 73.2308C71.7433 73.0766 72.2193 73.5525 72.0584 73.9011C68.4319 81.3216 69.2162 86.9993 69.2162 91.4235C69.2162 100.265 71.5891 113.209 74.2705 118.579C74.4313 118.894 74.5855 119.209 73.9554 119.209H0.889431V116.367H3.10152C5.56834 110.843 13.9341 90.7331 13.9341 58.2355C13.8303 39.4915 10.1325 20.9413 3.04119 3.59016H0.829102V0.768066H70.7713C71.4015 0.768066 71.5623 1.08312 71.4015 1.71323C69.3502 9.29466 67.9291 19.2424 67.9291 24.1358C67.9291 28.8683 68.7201 39.7612 71.7165 45.7606C72.0316 46.431 71.7165 46.7125 71.0864 46.5516C47.8796 40.713 47.6919 19.5574 47.6919 12.3044C47.6919 8.04115 47.0618 3.59016 43.9045 3.59016C36.9666 3.59016 34.9556 29.4984 34.9556 49.5547V57.5987H37.9587C43.4822 57.5987 47.2763 53.8046 47.2763 46.5449C47.2763 43.1933 46.1702 40.3846 44.2732 36.7581C44.1123 36.443 43.9581 36.128 44.2732 35.8129L45.5334 34.8611C46.0094 34.546 46.3244 34.546 46.4853 34.8611C49.0124 38.0183 56.748 46.069 56.748 58.5438C56.748 71.3337 51.2178 78.7543 47.1154 82.8567C46.8003 83.1718 46.4853 83.4868 46.1702 83.1718L44.5882 81.7507C44.1123 81.2814 44.2732 81.1205 45.0642 80.1754C48.2214 76.0663 47.7455 69.1216 46.3244 66.2794C45.5838 64.6947 44.3991 63.359 42.9141 62.4344C41.4291 61.5099 39.7076 61.0362 37.9587 61.071L34.9556 61.0777Z" fill="#3BC2E2"/>
<path d="M113.88 68.7525C113.88 95.1166 121.622 109.167 124.142 115.642H126.669V118.484H79.4648V115.642H81.6769C84.8342 108.537 92.5698 88.8289 92.5698 55.3124C92.5698 22.4662 83.5673 6.05649 81.6769 2.89924H79.4648V0.0771484H131.563C137.562 0.0771484 161.56 0.392199 161.56 29.1225C161.56 53.2544 149.407 61.0169 119.41 61.0169H113.88V68.7525ZM117.198 57.8864C134.09 57.8864 134.72 47.4695 134.72 29.7862C134.72 16.9963 132.515 2.97297 123.827 2.97297C113.88 2.97297 113.88 38.8088 113.88 49.8626V57.9065L117.198 57.8864Z" fill="#3BC2E2"/>
<path d="M163.049 103.556C155.414 105.782 151.714 109.924 149.287 117.311V89.7944C151.439 97.9926 156.352 101.706 163.049 103.556Z" fill="#3BC2E2"/>
<path d="M149.288 89.7944V117.311C147.393 110.286 142.806 105.701 135.526 103.556C143.182 101.183 147.769 96.5961 149.288 89.7944Z" fill="#3BC2E2"/>
<path d="M135.505 103.556C143.14 105.782 146.833 109.924 149.267 117.311V89.7944C147.135 97.9926 142.208 101.706 135.505 103.556Z" fill="#3BC2E2"/>
<path d="M149.287 89.7944V117.311C151.177 110.286 155.765 105.701 163.049 103.556C155.412 101.183 150.824 96.5961 149.287 89.7944Z" fill="#3BC2E2"/>
</svg>
