<svg width="165" height="120" viewBox="0 0 165 120" fill="none" xmlns="http://www.w3.org/2000/svg">
<path d="M34.6489 61.2068V71.1623C34.6489 111.608 42.0224 117.136 45.0629 117.136C47.1512 117.136 49.872 114.292 49.872 109.24C49.872 95.8229 53.7152 77.7971 71.3394 73.3694C71.9788 73.2151 72.4617 73.6914 72.2985 74.0403C68.6186 81.4666 69.4144 87.1488 69.4144 91.5764C69.4144 100.425 71.8223 113.379 74.5432 118.753C74.7064 119.068 74.8629 119.383 74.2235 119.383H0.0807501V116.539H2.32544C4.8286 111.011 13.3176 90.8854 13.3176 58.3624C13.2123 39.6038 9.46005 21.0391 2.26422 3.67439H0.0195312V0.850098H70.9925C71.6319 0.850098 71.7951 1.1654 71.6319 1.796C69.5504 9.38336 68.1084 19.3388 68.1084 24.2361C68.1084 28.9723 68.911 39.8737 71.9516 45.8778C72.2713 46.5487 71.9516 46.8304 71.3122 46.6694C47.7634 40.8263 47.5729 19.6541 47.5729 12.3955C47.5729 8.12887 46.9335 3.67439 43.7297 3.67439C36.6896 3.67439 34.6489 29.6029 34.6489 49.6749V57.7251H37.6963C43.3012 57.7251 47.1512 53.9281 47.1512 46.6627C47.1512 43.3085 46.0288 40.4976 44.1038 36.8683C43.9406 36.553 43.7841 36.2377 44.1038 35.9224L45.3826 34.9697C45.8656 34.6544 46.1853 34.6544 46.3485 34.9697C48.9129 38.1295 56.7625 46.1864 56.7625 58.671C56.7625 71.4709 51.1508 78.8973 46.9879 83.0029C46.6682 83.3182 46.3485 83.6335 46.0288 83.3182L44.4235 81.896C43.9406 81.4264 44.1038 81.2654 44.9065 80.3195C48.1103 76.2072 47.6273 69.2571 46.1853 66.4127C45.4337 64.8267 44.2316 63.4899 42.7247 62.5646C41.2178 61.6394 39.471 61.1654 37.6963 61.2001L34.6489 61.2068Z" fill="#F87521"/>
<path d="M114.736 68.8877C114.736 95.2724 122.593 109.334 125.15 115.814H127.715V118.658H79.8145V115.814H82.0591C85.2629 108.703 93.1125 88.9798 93.1125 55.4371C93.1125 22.5652 83.9773 6.14271 82.0591 2.98299H79.8145V0.158691H132.68C138.768 0.158691 163.12 0.473989 163.12 29.2268C163.12 53.3776 150.787 61.146 120.348 61.146H114.736V68.8877ZM118.103 58.0132C135.245 58.0132 135.884 47.5881 135.884 29.8909C135.884 17.0911 133.646 3.05678 124.831 3.05678C114.736 3.05678 114.736 38.9206 114.736 49.983V58.0333L118.103 58.0132Z" fill="#F87521"/>
<path d="M164.631 103.719C156.883 105.946 153.128 110.092 150.666 117.485V89.9463C152.849 98.1508 157.835 101.867 164.631 103.719Z" fill="#F87521"/>
<path d="M150.667 89.9463V117.485C148.744 110.454 144.089 105.866 136.702 103.719C144.47 101.344 149.125 96.7532 150.667 89.9463Z" fill="#F87521"/>
<path d="M136.681 103.719C144.428 105.946 148.176 110.092 150.645 117.485V89.9463C148.482 98.1508 143.483 101.867 136.681 103.719Z" fill="#F87521"/>
<path d="M150.666 89.9463V117.485C152.584 110.454 157.239 105.866 164.631 103.719C156.881 101.344 152.226 96.7532 150.666 89.9463Z" fill="#F87521"/>
</svg>
