<svg width="163" height="121" viewBox="0 0 163 121" fill="none" xmlns="http://www.w3.org/2000/svg">
<path d="M34.3998 62.2088V72.1949C34.3998 112.765 41.6942 118.31 44.7021 118.31C46.768 118.31 49.4597 115.457 49.4597 110.39C49.4597 96.9313 53.2617 78.8501 70.6969 74.4088C71.3295 74.254 71.8072 74.7318 71.6457 75.0817C68.0053 82.5309 68.7926 88.2305 68.7926 92.6718C68.7926 101.548 71.1747 114.542 73.8664 119.932C74.0279 120.248 74.1826 120.564 73.5501 120.564H0.202164V117.711H2.42279C4.89912 112.166 13.2971 91.9787 13.2971 59.3557C13.1929 40.5393 9.48092 21.9176 2.36223 4.49948H0.141602V1.6665H70.3537C70.9863 1.6665 71.1478 1.98277 70.9863 2.61531C68.9271 10.226 67.5006 20.2121 67.5006 25.1244C67.5006 29.8752 68.2946 40.8101 71.3025 46.8327C71.6188 47.5056 71.3025 47.7882 70.67 47.6267C47.3736 41.7656 47.1852 20.5284 47.1852 13.2474C47.1852 8.96765 46.5527 4.49948 43.3832 4.49948C36.4185 4.49948 34.3998 30.5077 34.3998 50.6414V58.7164H37.4145C42.9593 58.7164 46.768 54.9077 46.768 47.62C46.768 44.2554 45.6577 41.4359 43.7533 37.7954C43.5918 37.4791 43.4371 37.1629 43.7533 36.8466L45.0184 35.891C45.4962 35.5748 45.8125 35.5748 45.974 35.891C48.5109 39.0605 56.2763 47.1422 56.2763 59.6652C56.2763 72.5044 50.7248 79.9536 46.6065 84.0719C46.2902 84.3882 45.974 84.7044 45.6577 84.3882L44.0696 82.9616C43.5918 82.4905 43.7533 82.329 44.5474 81.3802C47.7168 77.2552 47.239 70.2838 45.8125 67.4307C45.069 65.8398 43.8797 64.4989 42.389 63.5708C40.8982 62.6427 39.1702 62.1672 37.4145 62.2021L34.3998 62.2088Z" fill="black"/>
<path d="M113.628 69.9139C113.628 96.3798 121.4 110.484 123.93 116.984H126.467V119.838H79.0801V116.984H81.3007C84.4701 109.852 92.2356 90.0678 92.2356 56.422C92.2356 23.4491 83.1983 6.97605 81.3007 3.80661H79.0801V0.973633H131.379C137.402 0.973633 161.492 1.2899 161.492 30.1311C161.492 54.3561 149.292 62.1485 119.179 62.1485H113.628V69.9139ZM116.959 59.006C133.916 59.006 134.549 48.5488 134.549 30.7973C134.549 17.958 132.335 3.88063 123.614 3.88063C113.628 3.88063 113.628 39.8548 113.628 50.9511V59.0261L116.959 59.006Z" fill="black"/>
<path d="M162.987 104.852C155.322 107.086 151.608 111.244 149.172 118.66V91.0366C151.332 99.2664 156.264 102.994 162.987 104.852Z" fill="black"/>
<path d="M149.171 91.0366V118.66C147.269 111.608 142.664 107.005 135.356 104.852C143.041 102.469 147.646 97.8645 149.171 91.0366Z" fill="black"/>
<path d="M135.336 104.852C143 107.086 146.708 111.244 149.151 118.66V91.0366C147.011 99.2664 142.065 102.994 135.336 104.852Z" fill="black"/>
<path d="M149.172 91.0366V118.66C151.07 111.608 155.674 107.005 162.987 104.852C155.32 102.469 150.715 97.8645 149.172 91.0366Z" fill="black"/>
</svg>
