<svg width="878" height="128" viewBox="0 0 878 128" fill="none" xmlns="http://www.w3.org/2000/svg">
<path d="M33.2444 65.1706V73.6627C33.2444 108.092 39.4165 112.799 41.964 112.799C43.7067 112.799 45.988 110.373 45.988 106.072C45.988 94.6443 49.2072 79.31 63.9658 75.5492C64.4983 75.4097 64.9038 75.8161 64.7706 76.083C61.6846 82.4035 62.3502 87.244 62.3502 91.0109C62.3502 98.5446 64.3592 109.572 66.6404 114.14C66.7736 114.413 66.9067 114.68 66.3742 114.68H4.23535V112.253H6.11725C8.25934 107.546 15.3694 90.465 15.3694 62.7686C15.2804 46.8023 12.1397 31.001 6.11725 16.2198H4.23535V13.7935H63.6633C64.2018 13.7935 64.335 14.0604 64.2018 14.6002C62.4591 21.0542 61.2489 29.5281 61.2489 33.6953C61.2489 37.729 61.9206 47.04 64.4681 52.1171C64.7404 52.6569 64.4681 52.9238 63.9356 52.7904C44.215 47.8225 44.0819 29.8253 44.0819 23.614C44.0819 19.9745 43.5434 16.2198 40.8567 16.2198C34.9568 16.2198 33.2444 38.275 33.2444 55.3501V62.2105H35.7919C40.4875 62.2105 43.7067 58.9835 43.7067 52.7964C43.7067 49.9698 42.7688 47.5495 41.1592 44.4621C41.0261 44.1891 40.8869 43.9222 41.1592 43.6553L42.2303 42.8425C42.6357 42.5756 42.9019 42.5756 43.0351 42.8425C45.1832 45.5357 51.7547 52.3961 51.7547 63.0173C51.7547 73.9357 47.059 80.232 43.5736 83.7259C43.3074 83.9928 43.0351 84.2657 42.7688 83.9928L41.4255 82.7796C41.0261 82.3732 41.1592 82.2398 41.8309 81.433C44.5115 77.9391 44.1122 72.0189 42.9019 69.5987C42.2727 68.2486 41.2658 67.1108 40.0035 66.3236C38.7413 65.5364 37.2781 65.1338 35.7919 65.1646L33.2444 65.1706Z" fill="black"/>
<path d="M101.23 72.5648C101.23 93.9467 108.34 108.068 110.488 112.235H113.435V114.661H73.8604V112.235H75.7422C78.4229 106.169 83.3848 89.3731 83.3848 60.8639C83.3848 34.5081 77.6181 20.387 75.7422 16.2198H73.8604V13.7935H116.793C124.569 13.7935 139.999 16.4806 139.999 39.3425C139.999 52.9238 133.288 61.3977 120.545 64.2122V64.4852C134.632 68.9193 139.46 74.9729 139.46 99.4484C139.46 103.749 139.733 106.976 142.28 106.976C143.077 106.94 143.836 106.625 144.425 106.085C145.013 105.545 145.394 104.815 145.499 104.022C145.499 103.986 145.505 103.951 145.518 103.918C145.531 103.885 145.55 103.855 145.575 103.829C145.6 103.804 145.63 103.784 145.662 103.77C145.695 103.756 145.73 103.749 145.766 103.749H146.843C147.109 103.749 147.109 104.022 147.109 104.289C147.109 106.303 146.304 115.207 132.217 115.207C120.012 115.207 116.793 106.715 116.793 99.1997C116.793 95.0325 118.403 90.7076 118.403 83.0647C118.403 75.2641 117.059 65.9895 106.996 65.9895H101.23V72.5648ZM104.582 63.2842C116.121 63.2842 117.894 53.1968 117.894 39.0817C117.894 28.1633 116.418 16.2198 109.175 16.2198C101.393 16.2198 101.26 47.0157 101.26 56.4298V63.2842H104.582Z" fill="black"/>
<path d="M212.576 112.235V114.662H174.339V112.235H176.76C179.58 107.795 180.651 95.9608 180.651 92.8673C180.716 90.3024 180.538 87.7371 180.118 85.2062H166.158C165.734 87.6469 165.554 90.1238 165.62 92.6004C165.62 98.1142 167.096 107.528 169.511 112.235H171.931V114.662H147.509V112.235H149.929C161.596 96.7676 169.783 50.243 179.84 13.7998H185.207C188.693 41.2293 196.88 86.6862 210.428 112.235H212.576ZM179.84 82.2461C179.574 76.5988 175.144 56.1632 173.674 49.1633H173.401C171.659 55.9085 167.096 77.1387 166.564 82.2461H179.84Z" fill="black"/>
<path d="M344.042 72.2857C344.042 94.7291 350.619 106.709 352.762 112.223H354.91V114.649H314.797V112.223H316.679C319.359 106.157 325.931 89.3609 325.931 60.8517C325.931 32.8824 318.288 18.8947 316.679 16.2076H314.797V13.7812H359.067C364.168 13.7812 384.554 14.0481 384.554 38.5236C384.554 59.0987 374.225 65.6861 348.738 65.6861H344.042V72.2857ZM346.862 63.0051C361.215 63.0051 361.753 54.1308 361.753 39.0695C361.753 28.1511 359.872 16.2076 352.495 16.2076C344.024 16.2076 344.024 46.7306 344.024 56.1447V63.0051H346.862Z" fill="black"/>
<path d="M415.009 72.5648C415.009 93.9467 422.119 108.068 424.267 112.235H427.22V114.661H387.646V112.235H389.521C392.202 106.169 397.17 89.3731 397.17 60.8639C397.17 34.5081 391.397 20.387 389.521 16.2198H387.646V13.7935H430.572C438.354 13.7995 453.796 16.4806 453.796 39.3486C453.796 52.9299 447.092 61.4038 434.342 64.2183V64.4913C448.429 68.9254 453.258 74.979 453.258 99.4544C453.258 103.755 453.53 106.982 456.078 106.982C456.875 106.949 457.636 106.634 458.225 106.094C458.814 105.553 459.193 104.822 459.297 104.028C459.296 103.992 459.302 103.957 459.315 103.924C459.328 103.891 459.348 103.861 459.373 103.835C459.397 103.81 459.427 103.79 459.46 103.776C459.492 103.762 459.528 103.755 459.563 103.755H460.64C460.906 103.755 460.906 104.028 460.906 104.295C460.906 106.309 460.102 115.213 446.015 115.213C433.809 115.213 430.59 106.721 430.59 99.2057C430.59 95.0386 432.2 90.7136 432.2 83.0708C432.2 75.2702 430.857 65.9956 420.794 65.9956H415.009V72.5648ZM418.361 63.2842C429.9 63.2842 431.643 53.1968 431.643 39.0817C431.643 28.1633 430.167 16.2198 422.923 16.2198C415.142 16.2198 415.009 47.0158 415.009 56.4298V63.2842H418.361Z" fill="black"/>
<path d="M503.01 16.2198H501.134C493.557 29.8772 489.553 45.2362 489.498 60.8639C489.498 88.5664 498.744 107.528 501.159 112.235H503.034V114.661H462.099V112.235H463.974C466.395 107.528 475.568 88.5785 475.568 60.8639C475.568 35.8547 465.046 18.1002 463.974 16.2198H462.099V13.7935H503.01V16.2198Z" fill="black"/>
<path d="M671.57 16.2198H669.694C662.105 29.8738 658.093 45.2337 658.034 60.8639C658.034 88.5664 667.28 107.528 669.694 112.235H671.57V114.661H630.652V112.235H632.534C634.955 107.528 644.128 88.5785 644.128 60.8639C644.128 35.8547 633.605 18.1002 632.534 16.2198H630.652V13.7935H671.57V16.2198Z" fill="black"/>
<path d="M534.276 13.7995C533.737 16.7596 533.87 20.9268 533.87 23.0802C533.87 34.5081 544.472 59.7903 553.191 83.738H553.458V64.0909C553.458 56.4298 551.582 28.7274 543.667 16.2198H541.537V13.7935H567.291V16.2198H565.136C560.979 26.5741 555.878 37.1952 555.878 64.8977C555.878 70.9635 556.144 109.275 556.683 114.637H543.371C542.051 109.548 521.925 51.0556 519.753 43.9222H519.487V64.0909C519.487 71.7581 521.369 99.7274 529.011 112.235H531.159V114.661H505.696V112.235H507.838C509.987 108.735 517.097 94.4866 517.097 63.824C517.097 32.8885 510.525 22.0005 507.838 16.2198H505.696V13.7935L534.276 13.7995Z" fill="black"/>
<path d="M594.787 70.9514C594.787 97.0343 594.787 112.235 606.06 112.235C615.984 112.235 619.336 99.4606 619.336 90.1799C619.336 83.4591 620.849 73.4627 617.726 62.4775C617.239 60.8568 616.611 59.2818 615.851 57.7705C615.717 57.5036 615.984 57.3701 616.117 57.5036C626.047 62.4775 627.251 70.6845 627.251 77.4054C627.251 105.915 616.389 115.195 602.302 115.195C592.778 115.195 571.314 107.261 571.314 64.364C571.314 20.6903 595.192 13.2598 601.764 13.2598C608.202 13.2598 611.445 16.2199 613.702 18.907C617.726 14.8733 621.43 14.6064 624.377 14.6064C624.514 14.6209 624.643 14.6824 624.741 14.7807C624.839 14.879 624.901 15.008 624.915 15.1462C624.915 15.4131 624.419 51.9898 624.419 52.3962C624.419 52.8026 624.419 53.1969 623.88 53.1969C613.823 53.1969 609.963 45.4023 609.963 26.0343C609.963 19.18 607.282 16.4868 604.196 16.4868C595.997 16.4807 594.787 33.9683 594.787 62.2106V70.9514Z" fill="black"/>
<path d="M704.773 72.2857C704.773 94.7291 711.351 106.709 713.493 112.223H715.641V114.649H675.528V112.223H677.41C680.091 106.157 686.662 89.3609 686.662 60.8517C686.662 32.8824 679.02 18.8947 677.41 16.2076H675.528V13.7812H719.798C724.899 13.7812 745.292 14.0481 745.292 38.5236C745.292 59.0987 734.962 65.6861 709.469 65.6861H704.773V72.2857ZM707.593 63.0051C721.946 63.0051 722.485 54.1308 722.485 39.0695C722.485 28.1511 720.603 16.2076 713.227 16.2076C704.755 16.2076 704.755 46.7306 704.755 56.1447V63.0051H707.593Z" fill="black"/>
<path d="M748.376 114.656V112.23H750.252C753.205 106.449 759.776 90.1743 759.776 62.4901C759.776 37.7478 751.305 18.1129 750.252 16.2325H748.376V13.8062H789.288V16.2325H787.412C786.335 18.1129 777.887 37.7478 777.887 62.4901C777.887 77.1511 778.02 112.23 786.74 112.23C790.764 112.23 791.303 102.276 791.303 97.5685C791.303 84.3936 803.108 75.2465 810.751 75.2465C811.289 75.2465 811.289 75.5194 811.156 75.7863C808.736 80.6389 808.336 88.294 808.336 91.5209C808.336 96.4949 809.008 110.21 812.36 114.11C812.633 114.383 812.633 114.65 812.36 114.65L748.376 114.656Z" fill="black"/>
<path d="M844.028 65.1705V73.6626C844.028 108.092 850.194 112.799 852.747 112.799C854.49 112.799 856.771 110.373 856.771 106.072C856.771 94.6441 859.99 79.3098 874.743 75.5491C875.282 75.4095 875.687 75.8159 875.548 76.0828C872.462 82.4034 873.127 87.2439 873.127 91.0107C873.127 98.5444 875.142 109.572 877.424 114.14C877.557 114.413 877.69 114.679 877.151 114.679H815.049V112.253H816.925C819.073 107.546 826.183 90.4648 826.183 62.7684C826.092 46.8077 822.949 31.0124 816.925 16.2378H815.049V13.8115H874.477C875.015 13.8115 875.148 14.0784 875.015 14.6183C873.267 21.0723 872.062 29.5462 872.062 33.7134C872.062 37.7471 872.734 47.0581 875.282 52.1351C875.548 52.675 875.282 52.9419 874.743 52.8084C855.029 47.8345 854.889 29.8131 854.889 23.626C854.889 19.9865 854.357 16.2318 851.67 16.2318C845.77 16.2318 844.028 38.287 844.028 55.3621V62.2225H846.575C851.271 62.2225 854.49 58.9955 854.49 52.8084C854.49 49.9818 853.552 47.5615 851.936 44.4741C851.803 44.2011 851.67 43.9342 851.936 43.6673L853.013 42.8545C853.413 42.5876 853.685 42.5876 853.818 42.8545C855.966 45.5477 862.538 52.4081 862.538 63.0293C862.538 73.9477 857.842 80.244 854.357 83.7379C854.085 84.0048 853.818 84.2777 853.552 84.0048L852.209 82.7916C851.803 82.3852 851.936 82.2517 852.608 81.445C855.295 77.9511 854.889 72.0309 853.685 69.6106C853.056 68.2606 852.049 67.1228 850.787 66.3356C849.524 65.5484 848.061 65.1458 846.575 65.1766L844.028 65.1705Z" fill="black"/>
<path d="M299.941 64.5949C277.395 71.1763 266.479 83.4534 259.296 105.333V23.8511C265.656 48.1263 280.166 59.1175 299.941 64.5949Z" fill="black"/>
<path d="M259.296 23.8511V105.333C253.705 84.515 240.159 70.9357 218.657 64.5949C241.256 57.591 254.803 44.0097 259.296 23.8511Z" fill="black"/>
<path d="M218.657 64.5949C241.204 71.1763 252.12 83.4534 259.296 105.333V23.8511C252.943 48.1263 238.432 59.1175 218.657 64.5949Z" fill="black"/>
<path d="M259.296 23.8511V105.333C264.895 84.515 278.444 70.9357 299.941 64.5949C277.342 57.591 263.794 44.0097 259.296 23.8511Z" fill="black"/>
<path d="M37.0329 38.0684C40.5063 45.0744 49.2743 48.8655 56.6688 46.1116C60.2716 44.7897 63.3202 42.2812 65.3158 38.9964C67.4277 35.4601 68.3414 30.6014 66.1448 26.8649C64.0269 23.3225 59.6701 21.5998 55.6703 22.0123C53.3831 22.274 51.1669 22.972 49.1412 24.0686C47.3259 25.0269 45.6558 26.3554 43.7376 27.156C42.5818 27.6352 40.9359 28.0962 40.0403 26.9316C39.1448 25.767 39.5018 24.0868 39.8891 22.8251C40.4942 20.8719 41.6439 19.1249 42.3095 17.1778C43.0043 15.2334 43.0362 13.113 42.4003 11.1484C39.6531 3.53588 29.4085 1.00039 22.3529 3.32965C20.4862 3.90638 18.7643 4.87713 17.3031 6.1766C15.8418 7.47608 14.6751 9.07416 13.8814 10.8633C12.4352 14.2481 12.3323 18.2333 14.19 21.4906C16.0477 24.7479 19.2548 26.4767 22.5647 27.7869C24.1925 28.4299 25.8626 28.9636 27.5024 29.5702C28.1983 29.825 28.8942 30.0919 29.5719 30.4073C30.3592 30.694 31.0964 31.1034 31.7564 31.6205C31.4236 31.299 32.1315 31.3475 31.6111 31.6205C31.421 31.7679 31.2391 31.9258 31.0665 32.0936C30.1917 32.6591 29.2533 33.1193 28.2709 33.4645C26.2284 34.2256 24.1457 34.8736 22.0322 35.4055C18.0627 36.4973 14.0206 37.5771 10.5835 39.9366C7.46116 42.0779 4.67765 45.1653 3.98783 49.0353C3.64785 50.9697 3.81178 52.9592 4.46374 54.8114C5.11569 56.6637 6.2336 58.3158 7.70926 59.608C11.2068 62.6409 15.5757 62.7622 19.872 61.7674C22.0564 61.2639 24.2106 60.5057 26.4435 60.2085C27.6537 60.0568 29.7353 59.8749 30.2678 61.2761C30.4312 61.7128 30.3586 61.8826 29.8926 62.1435C28.9172 62.6262 27.9056 63.0318 26.8671 63.3566L20.0959 65.8861C16.2655 67.3176 12.3202 68.6096 8.7198 70.581C5.69424 72.2369 2.71104 74.5298 1.18616 77.7083C-0.732037 81.6389 -0.036159 86.0245 2.09383 89.761C4.02414 93.176 7.25543 96.403 11.2673 97.0399C15.9569 97.7739 19.5936 94.8684 23.0549 92.1509C25.3967 90.3312 29.0213 87.7532 31.8471 90.0643C33.0574 91.0651 32.9303 92.1691 32.0468 93.5278C30.9012 95.1182 29.6605 96.6374 28.3314 98.0772C25.7416 101.171 23.7023 104.592 23.7689 108.759C23.8653 112.531 25.3378 116.138 27.9079 118.895C33.3962 124.803 43.1082 124.882 49.4317 120.278C51.1381 119.065 52.6811 117.494 53.383 115.425C54.1394 113.242 53.5585 110.949 52.4209 109.014C51.1646 107.091 49.784 105.254 48.288 103.512C46.8781 101.692 45.208 99.9272 44.0159 97.9619C43.6771 97.4039 43.6952 97.3553 44.2095 97.0096C44.7846 96.6973 45.4417 96.5703 46.0914 96.6456C47.4829 96.7808 48.8298 97.2108 50.0428 97.9073C52.9776 99.4238 55.7611 101.547 59.0771 102.153C62.968 102.845 66.4534 101.116 68.65 97.9073C70.8465 94.6985 71.3004 90.5981 70.6166 86.8312C69.3338 79.7828 63.0224 72.7343 55.4888 72.9163C52.076 73.0012 48.8326 74.6208 47.701 78.0055L50.1215 76.6164C49.4175 76.3724 48.7882 75.9506 48.2942 75.3918C47.8003 74.8329 47.4584 74.1558 47.3017 73.4258C46.6966 70.9389 42.8662 71.9882 43.4713 74.4813C43.8208 75.871 44.5175 77.1487 45.4956 78.1939C46.4738 79.2392 47.7013 80.0177 49.0625 80.4561C49.5675 80.5788 50.1001 80.5024 50.5506 80.2428C51.001 79.9832 51.3348 79.5601 51.483 79.0609C51.6637 78.6074 51.9485 78.2029 52.3144 77.8804C52.6803 77.5579 53.1169 77.3264 53.5888 77.2048C54.8424 76.8251 56.1735 76.7811 57.4494 77.0774C60.3963 77.7265 63.0466 79.9587 64.7107 82.5366C66.4928 85.2137 67.2691 88.4381 66.9012 91.6353C66.5018 94.3952 64.8801 97.5919 61.9393 98.247C59.3555 98.8536 56.5841 97.0338 54.2665 95.6751C51.5737 94.1101 48.6148 92.4542 45.3895 92.6422C43.4955 92.7696 41.5108 93.5278 40.47 95.2141C39.2597 97.2219 40.0827 99.3146 41.3958 101.013C42.7996 102.833 44.2217 104.652 45.6316 106.442C46.9083 108.08 48.409 109.699 49.3469 111.574C50.9928 114.873 47.1564 117.36 44.5061 118.458C41.3648 119.794 37.8348 119.882 34.6306 118.707C33.2368 118.152 31.9724 117.314 30.9165 116.246C29.8607 115.179 29.0363 113.904 28.4948 112.502C27.9067 111.052 27.6655 109.484 27.7905 107.924C27.9156 106.364 28.4034 104.855 29.2149 103.518C31.1513 100.303 34.4249 97.9316 36.0406 94.5165C37.8559 90.7194 35.6472 86.9707 31.8955 85.618C28.1439 84.2654 24.374 86.17 21.415 88.4144C18.7162 90.4646 15.4849 93.8736 11.7332 93.085C8.43539 92.4117 5.94234 89.1544 4.73817 86.2004C3.48559 83.1311 3.81235 79.9283 6.04521 77.4596C8.14494 75.1424 11.0434 73.6381 13.9116 72.431C17.8993 70.7448 22.0322 69.3557 26.0865 67.8392C29.4509 66.5836 35.5444 65.2734 34.1405 60.3177C32.8637 55.7865 27.7505 55.8047 24.0109 56.6054C20.2714 57.4061 16.0356 59.4078 12.29 57.855C10.9311 57.2552 9.77783 56.2687 8.97321 55.0179C8.16858 53.767 7.74803 52.3069 7.76372 50.8187C7.86054 47.6887 10.1418 45.0622 12.6046 43.3759C15.7754 41.1983 19.4424 40.2339 23.1033 39.2451C25.1001 38.7053 27.091 38.1654 29.0213 37.4254C30.9516 36.6854 33.0029 35.9211 34.4128 34.4471C35.9195 32.8579 36.2705 30.4316 34.5822 28.7877C33.372 27.5746 31.5567 26.9134 29.9894 26.2765C25.0759 24.2627 16.8343 22.9282 16.7678 16.1284C16.7624 14.6233 17.124 13.1397 17.8211 11.8066C18.5182 10.4735 19.5297 9.33137 20.7676 8.4795C23.6813 6.64548 27.193 6.02107 30.5582 6.73862C33.5838 7.34519 36.8272 8.85557 38.2976 11.7186C40.0222 15.0669 37.1782 18.4456 36.1253 21.5331C35.0058 24.8328 35.3689 29.2184 38.8059 30.9896C42.5515 32.9125 46.4969 30.3284 49.6374 28.3935C52.6629 26.5313 56.5538 25.0148 60.009 26.6101C60.7208 26.904 61.365 27.3408 61.902 27.8937C62.439 28.4466 62.8573 29.1039 63.1314 29.825C63.6142 31.6035 63.4819 33.4936 62.7562 35.1871C61.593 38.11 59.3803 40.4904 56.5538 41.8595C55.1355 42.5529 53.5911 42.9492 52.015 43.0243C50.4388 43.0994 48.8639 42.8516 47.3864 42.2962C44.3611 41.1912 41.8787 38.9571 40.4579 36.0606C39.3203 33.7677 35.8953 35.7816 37.0329 38.0684Z" fill="#F87521"/>
<path d="M344.646 64.255C343.824 63.676 343.147 62.9141 342.668 62.0288C342.668 62.0288 342.589 61.7437 342.583 61.7013C342.535 61.3252 342.541 61.6345 342.553 61.7013C342.57 61.592 342.596 61.4845 342.631 61.3798C342.801 60.9734 342.934 60.9188 343.454 60.6094C344.015 60.2806 344.63 60.0565 345.27 59.9482C345.834 59.8135 346.416 59.7664 346.994 59.8087C347.973 59.8759 348.943 60.0446 349.887 60.3122C351.837 60.7423 353.617 61.743 355 63.1874C356.549 64.904 357.729 66.8632 359.919 67.858C362.135 68.785 364.579 69.0135 366.927 68.5131C368.981 68.1097 370.926 67.2711 372.631 66.0534C374.336 64.8358 375.762 63.2672 376.814 61.4526C379.053 57.528 379.301 52.2386 376.493 48.5264C373.934 45.1417 369.607 43.8982 365.517 43.9467C364.526 43.9658 363.538 44.0488 362.558 44.1954C361.455 44.4402 360.329 44.5683 359.199 44.5775C358.593 44.5619 358.016 44.3109 357.591 43.8776C357.165 43.4443 356.924 42.8624 356.918 42.2544C356.829 41.5118 356.94 40.7588 357.242 40.0746C357.543 39.3903 358.023 38.8002 358.631 38.3662C360.102 37.3427 361.828 36.7484 363.617 36.6496C368.597 36.1886 373.613 37.426 378.315 35.1453C382.551 33.095 384.626 28.4729 382.962 23.9964C381.383 19.7503 377.643 16.1958 373.807 13.9029C370.392 11.8432 366.333 11.1358 362.425 11.9194C360.78 12.1659 359.277 12.9943 358.189 14.2547C357.203 15.5407 357.311 16.9479 357.336 18.5008C357.362 19.9325 357.303 21.3645 357.16 22.7893C357.095 23.4205 356.988 24.0466 356.839 24.6636C356.761 24.9851 356.676 25.3005 356.573 25.6099C356.525 25.7554 356.476 25.9071 356.422 26.0527C356.561 25.6948 356.325 26.2407 356.289 26.3074L356.083 26.6653C355.829 27.096 356.343 26.4227 356.016 26.7684L355.811 26.9807C355.502 27.2901 356.138 26.8351 355.75 27.011C355.363 27.187 355.805 27.011 355.835 27.011C355.756 27.102 355.23 27.0717 355.793 27.0535C355.455 27.0573 355.119 27.0124 354.794 26.9201C353.119 26.4397 351.628 25.4628 350.516 24.1177C349.25 22.6632 348.294 20.9643 347.708 19.1255C346.964 16.8448 346.885 14.4609 346.45 12.1135C345.07 4.68291 337.712 -0.41235 330.354 0.103241C328.436 0.191741 326.563 0.714739 324.876 1.63295C323.188 2.55116 321.73 3.84071 320.612 5.40473C318.028 9.09879 318.191 14.0181 321.925 16.8327C323.806 18.2521 326.16 19.0831 328.26 20.0536L335.866 23.5232L339.322 25.1003C340.317 25.476 341.257 25.984 342.117 26.6107C342.474 26.9019 343.019 27.3325 342.722 27.6116C342.038 28.063 341.274 28.3781 340.471 28.5396L332.46 31.0812C330.124 31.8273 327.758 32.5006 325.501 33.5075C321.38 35.2908 317.761 39.1426 318.681 43.977C319.601 48.8115 324.871 49.8972 328.968 49.2118C331.389 48.8175 333.882 47.659 336.35 47.9986C337.591 48.1685 339.424 49.0238 339.551 50.425C339.679 51.8262 337.875 52.7967 336.732 53.3729C334.729 54.3859 332.635 55.1927 330.638 56.2117C328.465 57.3224 326.35 58.5452 324.303 59.8755C322.243 61.1116 320.379 62.6491 318.772 64.4369C317.344 66.1535 316.2 68.1492 316.103 70.436C316.083 71.5701 316.346 72.6914 316.868 73.6977C317.39 74.7041 318.155 75.5638 319.093 76.1985C323.195 79.1161 328.351 77.3692 332.798 76.5139C335.576 75.974 340.538 75.9558 341.076 79.6438C341.681 83.5805 337.579 86.4496 334.614 88.0328C330.838 90.0467 326.578 91.7815 324.363 95.706C322.439 99.115 322.088 103.937 325.422 106.624C328.635 109.202 332.683 108.147 336.375 107.407C339.449 106.8 343.079 106.491 344.241 110.185C345.252 113.351 343.485 116.948 341.101 119.041C340.925 119.187 340.756 119.332 340.574 119.472C340.992 119.144 340.326 119.642 340.217 119.72C339.733 120.054 339.225 120.363 338.71 120.649C338.196 120.934 337.742 121.164 337.24 121.395C337.149 121.437 336.411 121.759 336.762 121.613C336.441 121.746 336.114 121.874 335.788 121.995C334.605 122.429 333.391 122.771 332.157 123.02C331.836 123.087 331.51 123.142 331.189 123.196C331.092 123.196 330.699 123.263 331.08 123.196L330.547 123.257C329.902 123.325 329.254 123.358 328.605 123.354C328.031 123.352 327.457 123.319 326.887 123.257C326.342 123.196 327.141 123.299 326.814 123.257L326.402 123.184C326.076 123.117 325.749 123.045 325.428 122.954C325.107 122.863 324.908 122.79 324.654 122.705C324.587 122.705 324.091 122.474 324.508 122.656C324.412 122.614 324.309 122.571 324.218 122.523C323.952 122.389 323.692 122.256 323.437 122.098L323.099 121.886C323.05 121.856 322.59 121.51 322.772 121.655C321.987 121.034 321.353 120.242 320.92 119.338C320.655 118.865 320.452 118.359 320.315 117.834C320.116 117.156 319.976 116.462 319.897 115.759C319.884 115.251 319.676 114.766 319.317 114.407C318.958 114.047 318.475 113.838 317.967 113.825C317.011 113.825 315.928 114.716 316.037 115.759C316.358 118.792 317.314 121.825 319.589 124.015C321.601 125.828 324.153 126.926 326.85 127.139C331.873 127.709 337.458 126.065 341.675 123.348C344.278 121.686 346.298 119.252 347.454 116.384C349.142 112.253 348.386 107.055 344.489 104.441C341.149 102.196 337.004 103.337 333.385 104.059C331.836 104.368 330.281 104.665 328.859 104.21C328.289 104.016 327.784 103.665 327.402 103.197C327.02 102.73 326.777 102.165 326.699 101.566C326.257 97.6107 329.724 94.966 332.811 93.2858C336.75 91.1506 340.937 89.4279 343.345 85.4003C345.596 81.6455 345.469 76.7747 341.675 74.0876C337.881 71.4004 333.107 72.462 328.968 73.3779C326.899 73.8328 324.702 74.2878 322.62 73.669C321.029 73.1959 319.668 71.9585 319.928 70.163C320.188 68.3675 321.664 66.7844 322.953 65.6076C324.779 64.0611 326.758 62.7054 328.859 61.5617C330.956 60.3188 333.117 59.189 335.334 58.177C337.258 57.2975 339.243 56.5817 340.907 55.2291C341.759 54.5896 342.425 53.7332 342.836 52.7487C343.246 51.7643 343.387 50.6876 343.243 49.6303C343.036 48.6326 342.604 47.6957 341.98 46.8913C341.356 46.0869 340.556 45.4365 339.642 44.99C337.313 43.8193 334.801 43.9346 332.302 44.4562C330.154 44.899 328.066 45.6694 325.828 45.5177C324.254 45.4025 322.596 44.6443 322.384 42.9034C322.185 41.2535 323.153 39.6339 324.357 38.5906C325.973 37.1955 328.109 36.5161 330.106 35.8732C332.683 35.0482 335.261 34.2354 337.839 33.4468L341.47 32.2883C342.575 32.0073 343.634 31.5702 344.616 30.9902C345.124 30.6639 345.556 30.2328 345.884 29.7255C346.213 29.2182 346.429 28.6466 346.519 28.0488C346.609 27.451 346.57 26.8408 346.406 26.2591C346.242 25.6774 345.955 25.1376 345.566 24.6757C344.132 22.856 341.893 22.0674 339.866 21.1454L332.266 17.6758C329.979 16.6325 327.619 15.6862 325.41 14.5034C323.782 13.6299 322.518 12.435 322.657 10.5364C322.899 7.20627 326.051 4.85881 329.01 4.19158C332.038 3.60581 335.174 4.20027 337.778 5.8536C339.096 6.65856 340.234 7.72838 341.119 8.99568C342.104 10.5597 342.707 12.3344 342.88 14.1759C343.218 16.5658 343.454 18.9072 344.35 21.1697C345.117 23.1568 346.209 25.0018 347.581 26.6289C348.94 28.2334 350.668 29.4825 352.616 30.2684C354.189 30.875 356.138 31.2814 357.681 30.3654C360.367 28.7701 360.833 24.9669 361.069 22.1524C361.174 20.768 361.206 19.379 361.166 17.9912C361.166 17.7365 361.166 17.4817 361.136 17.2209C361.148 17.0533 361.148 16.885 361.136 16.7174V16.8812C361.196 16.6628 361.202 16.6689 361.136 16.8812C361.184 16.8812 361.275 16.6264 361.299 16.5961C361.015 16.9176 361.402 16.5051 361.438 16.4748C361.529 16.402 361.735 16.2443 361.438 16.4748C361.647 16.3327 361.868 16.2089 362.098 16.1048C361.85 16.22 362.158 16.1048 362.189 16.0744C362.388 16.0017 362.588 15.941 362.794 15.8864C363.148 15.7881 363.508 15.7111 363.871 15.6559C364.604 15.5752 365.342 15.5448 366.079 15.5649C366.765 15.5627 367.447 15.6442 368.113 15.8076C369.223 16.0601 370.293 16.4685 371.29 17.0207C373.172 18.0836 374.885 19.4228 376.372 20.9938C377.831 22.492 379.186 24.3178 379.598 26.4166C380.39 30.4321 376.088 32.4581 372.711 32.7371C367.78 33.1436 362.836 32.0093 358.189 34.1687C354.48 35.8853 352.089 39.9372 353.348 44.0134C353.618 44.9619 354.111 45.8316 354.786 46.5494C355.461 47.2671 356.298 47.812 357.227 48.1382C359.514 48.9146 361.832 48.0896 364.137 47.9016C367.435 47.6286 371.683 48.1018 373.631 51.1832C375.792 54.5922 374.43 59.099 371.731 61.768C369.256 64.1943 364.609 66.1171 361.275 64.2489C359.405 63.1995 358.455 61.0158 356.864 59.6328C355.136 58.176 353.096 57.1382 350.903 56.5999C347.587 55.7447 343.787 55.5566 340.895 57.716C340.215 58.172 339.661 58.7934 339.285 59.5222C338.909 60.2509 338.724 61.0632 338.747 61.8832C338.862 63.9941 340.38 65.7107 341.923 66.9967C342.293 67.3469 342.782 67.542 343.291 67.542C343.8 67.542 344.289 67.3469 344.659 66.9967C345.016 66.6315 345.216 66.1404 345.216 65.6288C345.216 65.1173 345.016 64.6262 344.659 64.261L344.646 64.255Z" fill="#F87521"/>
</svg>
