<svg width="166" height="120" viewBox="0 0 166 120" fill="none" xmlns="http://www.w3.org/2000/svg">
<path d="M35.1489 61.2068V71.1623C35.1489 111.608 42.5224 117.136 45.5629 117.136C47.6512 117.136 50.372 114.292 50.372 109.24C50.372 95.8229 54.2152 77.7971 71.8394 73.3694C72.4788 73.2151 72.9617 73.6914 72.7985 74.0403C69.1186 81.4666 69.9144 87.1488 69.9144 91.5764C69.9144 100.425 72.3223 113.379 75.0432 118.753C75.2064 119.068 75.3629 119.383 74.7235 119.383H0.58075V116.539H2.82544C5.3286 111.011 13.8176 90.8854 13.8176 58.3624C13.7123 39.6038 9.96005 21.0391 2.76422 3.67439H0.519531V0.850098H71.4925C72.1319 0.850098 72.2951 1.1654 72.1319 1.796C70.0504 9.38336 68.6084 19.3388 68.6084 24.2361C68.6084 28.9723 69.411 39.8737 72.4516 45.8778C72.7713 46.5487 72.4516 46.8304 71.8122 46.6694C48.2634 40.8263 48.0729 19.6541 48.0729 12.3955C48.0729 8.12887 47.4335 3.67439 44.2297 3.67439C37.1896 3.67439 35.1489 29.6029 35.1489 49.6749V57.7251H38.1963C43.8012 57.7251 47.6512 53.9281 47.6512 46.6627C47.6512 43.3085 46.5288 40.4976 44.6038 36.8683C44.4406 36.553 44.2841 36.2377 44.6038 35.9224L45.8826 34.9697C46.3656 34.6544 46.6853 34.6544 46.8485 34.9697C49.4129 38.1295 57.2625 46.1864 57.2625 58.671C57.2625 71.4709 51.6508 78.8973 47.4879 83.0029C47.1682 83.3182 46.8485 83.6335 46.5288 83.3182L44.9235 81.896C44.4406 81.4264 44.6038 81.2654 45.4065 80.3195C48.6103 76.2072 48.1273 69.2571 46.6853 66.4127C45.9337 64.8267 44.7316 63.4899 43.2247 62.5646C41.7178 61.6394 39.971 61.1654 38.1963 61.2001L35.1489 61.2068Z" fill="#BF92EA"/>
<path d="M115.236 68.8877C115.236 95.2724 123.093 109.334 125.65 115.814H128.215V118.658H80.3145V115.814H82.5591C85.7629 108.703 93.6125 88.9798 93.6125 55.4371C93.6125 22.5652 84.4773 6.14271 82.5591 2.98299H80.3145V0.158691H133.18C139.268 0.158691 163.62 0.473989 163.62 29.2268C163.62 53.3776 151.287 61.146 120.848 61.146H115.236V68.8877ZM118.603 58.0132C135.745 58.0132 136.384 47.5881 136.384 29.8909C136.384 17.0911 134.146 3.05678 125.331 3.05678C115.236 3.05678 115.236 38.9206 115.236 49.983V58.0333L118.603 58.0132Z" fill="#BF92EA"/>
<path d="M165.131 103.719C157.383 105.946 153.628 110.092 151.166 117.485V89.9463C153.349 98.1508 158.335 101.867 165.131 103.719Z" fill="#BF92EA"/>
<path d="M151.167 89.9463V117.485C149.244 110.454 144.589 105.866 137.202 103.719C144.97 101.344 149.625 96.7532 151.167 89.9463Z" fill="#BF92EA"/>
<path d="M137.181 103.719C144.928 105.946 148.676 110.092 151.145 117.485V89.9463C148.982 98.1508 143.983 101.867 137.181 103.719Z" fill="#BF92EA"/>
<path d="M151.166 89.9463V117.485C153.084 110.454 157.739 105.866 165.131 103.719C157.381 101.344 152.726 96.7532 151.166 89.9463Z" fill="#BF92EA"/>
</svg>
