<svg width="295" height="193" viewBox="0 0 295 193" fill="none" xmlns="http://www.w3.org/2000/svg">
<path d="M45.1863 93.7771V105.45C45.1863 152.889 53.7206 159.374 57.2486 159.374C59.6566 159.374 62.8485 156.02 62.8485 150.105C62.8485 134.363 67.3285 113.209 87.7234 108.044C88.4626 107.865 89.0226 108.413 88.8434 108.793C84.5763 117.491 85.4835 124.166 85.4835 129.354C85.4835 139.73 88.261 154.924 91.4194 161.23C91.6098 161.599 91.789 161.968 91.0498 161.968H5.09082V158.614H7.74518C10.7131 152.129 20.5466 128.594 20.5466 90.4118C20.4112 68.448 16.0659 46.713 7.74518 26.3801H5.14681V23.0259H87.3763C88.1154 23.0259 88.2946 23.3948 88.1154 24.1439C85.6963 33.0885 84.0275 44.7052 84.0275 50.4521C84.0275 56.0424 84.9571 68.7995 88.5074 75.8434C88.877 76.5813 88.5074 76.9614 87.7682 76.7714C60.4854 69.9064 60.295 45.0853 60.295 36.5209C60.295 31.5232 59.5558 26.3354 55.815 26.3354C47.6503 26.3354 45.2423 56.7244 45.2423 80.2485V89.7074H48.7703C55.2662 89.7074 59.7126 85.2351 59.7126 76.7378C59.7126 72.8469 58.4134 69.5039 56.1846 65.2441C56.0054 64.8751 55.815 64.5062 56.1846 64.126L57.6742 63.0079C58.2342 62.6427 58.6075 62.6427 58.7942 63.0079C61.7733 66.7199 70.8676 76.1676 70.8676 90.8031C70.8676 105.808 64.3717 114.517 59.5446 119.336C59.175 119.705 58.7942 120.074 58.4246 119.705L56.5094 118.062C55.9494 117.503 56.1286 117.324 57.0582 116.217C60.7766 111.398 60.2166 103.236 58.5478 99.9041C57.6782 98.0435 56.286 96.475 54.5403 95.3893C52.7946 94.3036 50.7706 93.7474 48.7143 93.7883L45.1863 93.7771Z" fill="#D2FF1D"/>
<path d="M139.288 103.974C139.288 133.435 149.121 152.889 152.1 158.636H156.177V161.99H101.421V158.636H104.064C107.782 150.295 114.648 127.129 114.648 87.8514C114.648 51.5366 106.662 32.0822 104.064 26.3577H101.466V23.0259H160.825C171.599 23.0259 192.946 26.7267 192.946 58.2226C192.946 76.9391 183.662 88.6117 166.067 92.5025V92.8715C185.554 98.9873 192.229 107.328 192.229 141.049C192.229 146.986 192.599 151.425 196.127 151.425C197.235 151.384 198.293 150.953 199.113 150.208C199.933 149.463 200.462 148.452 200.607 147.355C200.605 147.306 200.614 147.257 200.632 147.212C200.65 147.166 200.677 147.125 200.712 147.091C200.746 147.056 200.788 147.029 200.833 147.011C200.879 146.993 200.928 146.984 200.977 146.986H202.466C202.836 146.986 202.836 147.355 202.836 147.724C202.836 150.497 201.716 162.728 182.228 162.728C165.339 162.728 160.881 151.056 160.881 140.68C160.881 134.933 163.121 129.007 163.121 118.442C163.121 107.697 161.273 94.9623 147.352 94.9623H139.366L139.288 103.974ZM143.924 91.228C159.895 91.228 162.303 77.3304 162.303 57.876C162.303 42.8268 160.265 26.3801 150.241 26.3801C139.478 26.3801 139.288 68.8666 139.288 81.7803V91.228H143.924Z" fill="#D2FF1D"/>
<path d="M293.341 158.637V161.991H240.444V158.637H243.804C247.702 152.521 249.18 136.208 249.18 131.948C249.272 128.415 249.024 124.88 248.441 121.394H229.121C228.539 124.756 228.292 128.168 228.382 131.579C228.382 139.182 230.421 152.152 233.769 158.637H237.129V161.991H203.328V158.637H206.688C222.838 137.326 234.161 73.2163 248.128 23.0039H255.553C260.369 60.7946 271.692 123.429 290.441 158.637H293.341ZM248.06 117.268C247.691 109.442 241.564 81.3223 239.515 71.6845H239.145C236.737 80.9533 230.421 110.224 229.681 117.268H248.06Z" fill="#D2FF1D"/>
<path d="M52.5449 50.8881C57.4392 60.7271 69.8039 66.0491 80.231 62.1806C85.3023 60.3259 89.5913 56.8051 92.394 52.1962C95.3732 47.232 96.6948 40.4006 93.514 35.1904C90.5236 30.215 84.3749 27.8 78.7414 28.3814C75.5166 28.7488 72.3918 29.7279 69.5351 31.266C66.9479 32.6189 64.6183 34.4749 61.908 35.6041C60.284 36.275 57.9656 36.9123 56.7112 35.2799C55.4568 33.6475 55.9384 31.2884 56.4872 29.5218C57.3496 26.7714 58.9624 24.3228 59.8472 21.5947C60.8276 18.8614 60.8709 15.8804 59.9704 13.1198C56.1512 2.39754 41.7034 -1.15791 31.7803 2.10684C29.1496 2.91759 26.7232 4.28089 24.6639 6.1052C22.6047 7.9295 20.9603 10.1726 19.8413 12.6838C18.7576 15.0368 18.2322 17.6077 18.306 20.1965C18.3798 22.7853 19.0508 25.3222 20.2668 27.6099C22.8428 32.0822 27.4236 34.609 32.0827 36.4427C34.3787 37.3483 36.7307 38.0974 39.0378 38.9471C40.0234 39.3161 41.009 39.6851 41.961 40.1323C43.0695 40.5263 44.1089 41.0923 45.041 41.8094C44.5706 41.3622 45.5674 41.4293 44.8394 41.8094C44.5662 42.0145 44.3079 42.2386 44.0666 42.4802C42.8657 43.2749 41.5766 43.9277 40.225 44.4257C37.3448 45.4898 34.4101 46.4004 31.4331 47.1538C25.8332 48.652 20.1325 50.1949 15.2829 53.5156C10.8926 56.5232 6.9502 60.8501 5.98701 66.2503C5.50689 68.9673 5.7382 71.762 6.65852 74.3635C7.57883 76.965 9.15693 79.2849 11.2398 81.0983C16.1565 85.3357 22.2828 85.5705 28.3867 84.1282C31.4667 83.4238 34.5019 82.3617 37.649 81.8921C39.3066 81.6685 42.297 81.4225 43.0362 83.3903C43.2714 83.994 43.1706 84.2288 42.5098 84.5978C41.1264 85.2717 39.6921 85.8362 38.2202 86.2861L28.678 89.8304C23.2796 91.8429 17.7133 93.6541 12.6285 96.4269C8.37259 98.7525 4.16145 102.017 2.01107 106.49C-0.676895 112.08 0.342291 118.229 3.32146 123.473C6.03182 128.269 10.5902 132.798 16.2461 133.681C22.8652 134.71 27.9948 130.629 32.8667 126.816C36.1707 124.222 41.2778 120.644 45.265 123.875C47.0009 125.284 46.7881 126.838 45.545 128.739C43.9297 130.972 42.1832 133.108 40.3146 135.134C36.6635 139.473 33.7851 144.28 33.8747 150.128C34.0131 155.424 36.0887 160.487 39.7098 164.361C47.4489 172.657 61.1464 172.769 70.0615 166.306C72.5756 164.67 74.5294 162.306 75.6614 159.531C76.1069 158.02 76.2154 156.43 75.9793 154.874C75.7433 153.317 75.1684 151.83 74.295 150.519C72.5194 147.823 70.5742 145.243 68.4711 142.793C66.3132 140.302 64.3013 137.689 62.4456 134.967C61.9752 134.173 61.9976 134.072 62.7144 133.625C63.525 133.185 64.452 133.005 65.3687 133.111C67.3406 133.292 69.2503 133.895 70.9687 134.877C75.1014 137.013 79.0326 140.02 83.7029 140.848C86.2933 141.303 88.9608 140.977 91.3648 139.912C93.7687 138.846 95.7999 137.09 97.1988 134.866C100.301 130.394 100.94 124.602 99.9763 119.325C98.1619 109.43 89.2692 99.5352 78.6182 99.7812C73.8022 99.9041 69.2551 102.174 67.6423 106.926L71.0807 104.98C70.092 104.635 69.2084 104.043 68.5143 103.26C67.8202 102.477 67.3387 101.53 67.1159 100.508C66.2535 97.0195 60.8552 98.4954 61.7064 101.995C62.1973 103.94 63.1738 105.729 64.5447 107.195C65.9157 108.662 67.6364 109.758 69.5463 110.38C70.2632 110.564 71.0235 110.463 71.667 110.098C72.3104 109.733 72.7869 109.133 72.9958 108.424C73.2514 107.788 73.6531 107.221 74.1687 106.768C74.6843 106.315 75.2992 105.99 75.9638 105.819C77.7026 105.299 79.546 105.233 81.3173 105.629C85.5851 106.787 89.2475 109.531 91.554 113.299C94.0796 117.062 95.1758 121.602 94.6452 126.1C94.074 129.98 91.7892 134.464 87.6453 135.392C84.0053 136.197 80.0965 133.659 76.8262 131.769C73.0294 129.533 68.8519 127.297 64.3159 127.554C62.9552 127.566 61.6166 127.9 60.4098 128.528C59.2029 129.155 58.1619 130.059 57.372 131.165C55.6248 133.983 56.8344 136.912 58.6824 139.305C60.5304 141.697 62.6696 144.392 64.6631 146.93C66.6374 149.154 68.3892 151.566 69.8935 154.13C72.2231 158.77 66.8023 162.259 63.1063 163.802C58.6762 165.668 53.7028 165.792 49.1849 164.148C47.2144 163.361 45.4286 162.175 43.9404 160.664C42.4523 159.154 41.2939 157.351 40.5386 155.371C39.7107 153.334 39.3717 151.131 39.5486 148.939C39.7256 146.748 40.4136 144.627 41.5578 142.748C44.2906 138.276 48.9049 134.922 51.1785 130.114C53.7209 124.781 50.6297 119.515 45.3322 117.614C40.0346 115.714 34.7259 118.397 30.5595 121.55C26.7516 124.423 22.1932 129.175 16.9293 128.113C12.2813 127.163 8.77579 122.59 7.06221 118.431C6.12614 116.426 5.80221 114.191 6.13086 112.003C6.4595 109.816 7.42616 107.774 8.91018 106.132C11.8669 102.878 15.9661 100.765 19.9645 99.0768C25.5644 96.6953 31.4107 94.7499 37.1339 92.6255C41.8714 90.859 50.4617 89.0254 48.4905 82.0598C46.6874 75.698 39.5306 75.7315 34.1995 76.8496C28.8683 77.9677 22.9996 80.7852 17.6797 78.605C15.7623 77.7635 14.135 76.378 13 74.6208C11.865 72.8635 11.2723 70.812 11.2958 68.7213C11.4302 64.3273 14.6557 60.6376 18.1165 58.2673C22.5964 55.215 27.7484 53.8622 32.9115 52.4757C35.7227 51.7155 38.5114 50.9552 41.2554 49.9266C43.9994 48.8979 46.8554 47.8134 48.8601 45.745C51.0105 43.5089 51.4585 40.1547 49.1289 37.7955C47.4153 36.0961 44.8394 35.1569 42.6554 34.2624C35.7227 31.4337 24.1084 29.5554 24.0076 20.0071C23.9976 17.8985 24.5022 15.8192 25.4779 13.949C26.4536 12.0789 27.871 10.4741 29.6075 9.27365C33.717 6.69684 38.67 5.81862 43.417 6.82508C47.6729 7.65245 52.2537 9.79914 54.3256 13.8242C56.756 18.5312 52.7465 23.2607 51.2681 27.6099C49.6889 32.2387 50.1481 38.4105 55.0424 40.8814C60.3288 43.5759 65.8839 39.9534 70.3191 37.2365C74.5638 34.6202 80.063 32.4959 84.9461 34.732C85.9427 35.1425 86.8456 35.7504 87.6003 36.5191C88.3549 37.2878 88.9455 38.2013 89.3365 39.2043C90.0255 41.6981 89.8438 44.3518 88.8213 46.7289C87.1757 50.8302 84.0566 54.1712 80.0742 56.0983C78.0735 57.074 75.8948 57.6327 73.6708 57.7404C71.4468 57.848 69.2241 57.5023 67.1383 56.7244C62.8808 55.1656 59.3877 52.0307 57.3832 47.9699C55.7704 44.7499 50.9433 47.5786 52.5449 50.7875V50.8881Z" fill="#F87521"/>
<path d="M142.48 178.694C142.48 183.323 139.344 185.738 134.327 185.738H128.559L127.327 191.899H126.812L130.418 173.965H136.466C140.274 173.965 142.48 175.642 142.48 178.694ZM141.976 178.694C141.976 175.944 140.016 174.401 136.488 174.401H130.888L128.727 185.246H134.327C139.165 185.246 141.976 183.044 141.976 178.694Z" fill="#D2FF1D" stroke="#D2FF1D"/>
<path d="M158.237 185.526L161.832 191.899H161.238L157.688 185.637C157.101 185.706 156.51 185.74 155.918 185.738H150.15L148.919 191.899H148.403L151.998 173.965H158.058C161.866 173.965 164.072 175.687 164.072 178.739C164.072 182.574 161.888 184.888 158.237 185.526ZM163.557 178.694C163.557 175.944 161.608 174.401 158.08 174.401H152.413L150.251 185.246H155.851C160.757 185.246 163.557 183.044 163.557 178.694Z" fill="#D2FF1D" stroke="#D2FF1D"/>
<path d="M174.007 173.965H174.522L170.916 191.854H170.4L174.007 173.965Z" fill="#D2FF1D" stroke="#D2FF1D"/>
<path d="M199.095 173.965L195.488 191.854H195.051L185.274 174.725L181.858 191.854H181.343L184.938 173.965H185.375L195.163 191.094L198.579 173.965H199.095Z" fill="#D2FF1D" stroke="#D2FF1D"/>
<path d="M205.658 184.709C205.608 183.273 205.854 181.843 206.38 180.505C206.906 179.168 207.701 177.953 208.716 176.934C209.731 175.916 210.944 175.116 212.281 174.584C213.618 174.052 215.049 173.799 216.488 173.841C219.198 173.841 221.326 174.658 222.536 176.078L222.177 176.413C221.432 175.667 220.533 175.091 219.543 174.726C218.553 174.362 217.495 174.216 216.443 174.3C215.076 174.273 213.717 174.525 212.45 175.039C211.183 175.554 210.034 176.32 209.074 177.292C208.113 178.263 207.36 179.42 206.862 180.691C206.363 181.963 206.129 183.322 206.173 184.687C206.173 188.723 208.771 191.473 213.811 191.473C216.116 191.563 218.366 190.762 220.094 189.237L220.408 189.651C218.54 191.178 216.179 191.973 213.766 191.887C208.514 191.976 205.658 189.047 205.658 184.709Z" fill="#D2FF1D" stroke="#D2FF1D"/>
<path d="M231.396 173.965H231.9L228.305 191.854H227.79L231.396 173.965Z" fill="#D2FF1D" stroke="#D2FF1D"/>
<path d="M254.4 178.694C254.4 183.323 251.252 185.738 246.235 185.738H240.478L239.235 191.854H238.72L242.326 173.965H248.374C252.182 173.965 254.4 175.642 254.4 178.694ZM253.884 178.694C253.884 175.944 251.924 174.401 248.396 174.401H242.74L240.579 185.246H246.179C251.073 185.246 253.884 183.044 253.884 178.694Z" fill="#D2FF1D" stroke="#D2FF1D"/>
<path d="M263.921 173.965H264.436L260.931 191.463H271.66L271.559 191.943H260.359L263.921 173.965Z" fill="#D2FF1D" stroke="#D2FF1D"/>
<path d="M282.836 174.401L281.212 182.518H291.101L291 183.01H281.066L279.386 191.418H290.866L290.765 191.899H278.781L282.421 173.965H294.024L293.923 174.446L282.836 174.401Z" fill="#D2FF1D" stroke="#D2FF1D"/>
<path d="M118.367 183.479C114.246 181.243 112.114 178.109 111.972 174.076V173.976V174.065C111.167 175.914 109.845 177.492 108.165 178.611C106.484 179.729 104.517 180.34 102.497 180.371C106.641 182.506 108.31 185.302 108.892 189.796V189.874C109.734 188.045 111.063 186.481 112.734 185.354C114.404 184.226 116.353 183.578 118.367 183.479Z" fill="#D2FF1D"/>
</svg>
