<svg width="1750" height="573" viewBox="0 0 1750 573" fill="none" xmlns="http://www.w3.org/2000/svg">
<mask id="mask0_136_6" style="mask-type:alpha" maskUnits="userSpaceOnUse" x="0" y="0" width="1750" height="573">
<rect width="1749.48" height="573" rx="32" fill="black"/>
</mask>
<g mask="url(#mask0_136_6)">
<rect width="1749.48" height="573" rx="32" fill="black"/>
<path d="M1808.67 -25.3384H1536.83L1435.97 -24.328L1479.97 21.8945C1496.86 39.6413 1506.28 63.1934 1506.28 87.7009V390.352C1506.28 522.864 1500.2 576.968 1454.2 584.335C1447.25 585.456 1442.2 591.537 1442.2 598.573C1545.43 598.573 1591.69 534.494 1591.69 390.352L1591.65 335.182C1585.13 296.602 1571.57 292.248 1515.91 287.123C1571.35 282.015 1585.02 277.698 1591.58 239.522L1591.41 27.8836L1598.52 34.8096V235.664C1604.79 277.073 1617.39 281.776 1673.52 286.994V-1.98832C1673.52 -8.41831 1678.72 -13.6174 1685.15 -13.6174H1808.66C1983.63 -7.35277 2069.57 92.6244 2069.57 287.141C2069.57 481.657 1983.64 581.635 1808.66 587.881H1690.97C1681.32 587.881 1673.5 580.055 1673.5 570.41V287.251C1617.37 292.469 1604.77 297.172 1598.51 338.581L1598.19 599.583H1808.64C2001.59 599.583 2150.79 513.66 2150.79 287.123C2150.79 60.5847 2001.63 -25.3384 1808.67 -25.3384Z" fill="#D9D9D9"/>
<path d="M1674.82 287.122C1674.38 287.085 1673.96 287.048 1673.52 286.993V287.232C1673.96 287.195 1674.36 287.159 1674.82 287.103V287.122Z" fill="#D9D9D9"/>
<path d="M-21.6004 599.583L250.241 599.583L351.1 598.573L307.101 552.35C290.218 534.603 280.793 511.051 280.793 486.544L280.793 183.893C280.793 51.3801 286.874 -2.72362 332.876 -10.0906C339.82 -11.2112 344.872 -17.2921 344.872 -24.3284C241.644 -24.3284 195.384 39.751 195.384 183.893L195.421 239.062C201.943 277.642 215.501 281.996 271.166 287.122C215.721 292.229 202.053 296.547 195.495 334.722L195.66 546.361L188.55 539.435L188.55 338.58C182.285 297.171 169.683 292.468 113.558 287.251L113.558 576.233C113.558 582.663 108.359 587.862 101.929 587.862L-21.582 587.862C-196.551 581.597 -282.493 481.62 -282.493 287.104C-282.493 92.5872 -196.57 -7.39004 -21.582 -13.6363L96.1052 -13.6363C105.75 -13.6363 113.576 -5.81006 113.576 3.83493L113.576 286.993C169.701 281.776 182.304 277.073 188.569 235.664L188.881 -25.3389L-21.5636 -25.3389C-214.519 -25.3389 -363.713 60.5842 -363.713 287.122C-363.713 513.66 -214.555 599.583 -21.6004 599.583Z" fill="#D9D9D9"/>
<path d="M112.254 287.121C112.695 287.158 113.118 287.195 113.559 287.25L113.559 287.011C113.118 287.048 112.714 287.085 112.254 287.14L112.254 287.121Z" fill="#D9D9D9"/>
</g>
<path d="M896.175 128.011H771.006L724.566 128.476L744.826 149.759C752.599 157.93 756.939 168.775 756.939 180.059V319.413C756.939 380.428 754.139 405.34 732.958 408.732C729.76 409.248 727.434 412.048 727.434 415.288C774.965 415.288 796.265 385.783 796.265 319.413L796.248 294.011C793.245 276.247 787.002 274.242 761.371 271.882C786.901 269.53 793.194 267.543 796.214 249.965L796.138 152.517L799.412 155.706V248.188C802.296 267.255 808.099 269.42 833.942 271.823V138.762C833.942 135.802 836.335 133.408 839.296 133.408H896.166C976.73 136.292 1016.3 182.326 1016.3 271.891C1016.3 361.455 976.739 407.489 896.166 410.365H841.978C837.537 410.365 833.933 406.761 833.933 402.32V271.941C808.091 274.344 802.288 276.509 799.403 295.576L799.259 415.753H896.158C985.003 415.753 1053.7 376.19 1053.7 271.882C1053.7 167.574 985.02 128.011 896.175 128.011Z" fill="#D9D9D9"/>
<path d="M834.542 271.881C834.339 271.865 834.145 271.848 833.942 271.822V271.932C834.145 271.915 834.331 271.898 834.542 271.873V271.881Z" fill="#D9D9D9"/>
</svg>
