<svg width="2109" height="805" viewBox="0 0 2109 805" fill="none" xmlns="http://www.w3.org/2000/svg">
<rect width="2109" height="805" rx="32" fill="#AE2A2A"/>
<g clip-path="url(#clip0_139_53)">
<path d="M725.902 180H531.228L459 180.72L490.509 213.634C502.6 226.271 509.349 243.043 509.349 260.494V476.008C509.349 570.369 504.994 608.896 472.051 614.142C467.078 614.94 463.46 619.27 463.46 624.28C537.385 624.28 570.513 578.65 570.513 476.008L570.486 436.723C565.816 409.25 556.107 406.15 516.243 402.5C555.949 398.863 565.737 395.789 570.434 368.604L570.315 217.899L575.407 222.831V365.857C579.893 395.344 588.918 398.693 629.111 402.408V196.627C629.111 192.049 632.834 188.346 637.439 188.346H725.889C851.189 192.807 912.734 264 912.734 402.513C912.734 541.026 851.202 612.219 725.889 616.667H641.609C634.702 616.667 629.098 611.094 629.098 604.226V402.592C588.905 406.307 579.88 409.656 575.394 439.143L575.17 625H725.875C864.056 625 970.898 563.815 970.898 402.5C970.898 241.185 864.082 180 725.902 180Z" fill="white"/>
<path d="M630.046 402.5C629.73 402.474 629.427 402.448 629.111 402.408V402.579C629.427 402.552 629.717 402.526 630.046 402.487V402.5Z" fill="white"/>
<path d="M1104.74 613.462C1045.17 613.462 989.199 567.687 989.199 496.783C989.199 425.878 1045.17 380.104 1104.74 380.104C1150.42 380.104 1183.11 397.581 1202.45 427.644C1204.7 431.15 1202.11 435.755 1197.92 435.755H1068.18C1065.47 437.992 1063.22 440.242 1060.51 442.937C1014.02 488.711 1005.45 547.044 1032.08 572.632C1058.26 598.208 1111.5 596.416 1157.99 550.641C1175.66 533.452 1188.32 515.307 1198.05 497.541C1201.66 490.961 1208.66 486.919 1216.21 486.919C1217.57 567.701 1170.62 613.475 1104.74 613.475V613.462ZM1076.75 429.017H1190.23C1192.35 429.017 1193.48 426.545 1192.1 424.962C1191.31 424.072 1190.49 423.183 1189.6 422.293C1165.23 398.51 1119.2 397.163 1076.77 429.03L1076.75 429.017Z" fill="white"/>
<path d="M1331.29 608.974H1250.44L1252.3 602.237V352.448C1252.3 338.254 1246.63 324.649 1236.54 314.615L1216.64 294.834H1286.36C1291.78 294.834 1296.16 299.204 1296.15 304.594L1295.71 525.223C1295.66 555.076 1307.17 583.791 1327.87 605.416L1331.28 608.974H1331.29Z" fill="white"/>
<path d="M1438.5 609.158L1375.41 608.975L1375.89 444.729C1375.93 430.6 1370.57 416.982 1360.9 406.634L1340.3 384.591H1410.27C1415.54 384.591 1419.82 388.856 1419.79 394.101L1418.91 559.537C1418.82 577.957 1425.82 595.722 1438.49 609.158H1438.5Z" fill="white"/>
<path d="M1649 547.502C1649 585.649 1622.82 613.475 1557.84 613.475C1496.91 613.475 1484.28 594.624 1469.84 579.37L1464.42 608.988H1457.64L1475.69 513.397C1479.42 513.397 1482.43 516.367 1482.51 520.056C1483.65 570.474 1503.33 606.738 1557.83 606.738C1612.32 606.738 1629.58 581.607 1629.58 560.963C1629.58 538.083 1617.4 525.956 1579.48 516.537L1531.19 504.867C1487.86 494.546 1463.5 472.11 1463.5 436.213C1463.5 407.04 1486.97 380.117 1542.92 380.117C1598.87 380.117 1617.39 396.718 1629.12 407.04L1633.19 384.604H1639.96L1624.16 468.525C1620.49 468.525 1617.46 465.634 1617.37 461.984C1616.25 415.164 1593.41 386.854 1542.92 386.854C1492.43 386.854 1484.26 410.192 1484.26 425.001C1484.26 441.602 1490.57 455.522 1531.65 465.386L1579.03 477.055C1635.9 491.419 1648.99 515.202 1648.99 547.515L1649 547.502Z" fill="white"/>
</g>
<defs>
<clipPath id="clip0_139_53">
<rect width="1190" height="445" fill="white" transform="translate(459 180)"/>
</clipPath>
</defs>
</svg>
