<svg width="744" height="463" viewBox="0 0 744 463" fill="none" xmlns="http://www.w3.org/2000/svg">
<path d="M219.576 235.601V256.668C219.576 342.255 232.369 353.962 237.653 353.962C241.272 353.962 245.999 347.946 245.999 337.245C245.999 308.821 252.679 270.712 283.279 261.353C284.395 261.017 285.223 262.024 284.944 262.684C278.543 278.395 279.939 290.437 279.939 299.797C279.939 318.526 284.107 345.934 288.842 357.306C289.121 357.977 289.4 358.648 288.284 358.648H159.483V352.632H163.382C167.829 340.924 182.575 298.466 182.575 229.596C182.575 169.414 166.722 124.272 163.382 113.917H159.483V107.901H282.72C283.837 107.901 284.107 108.572 283.837 109.903C280.218 125.949 277.715 147.016 277.715 157.382C277.715 167.412 279.101 190.481 284.395 203.184C284.953 204.525 284.395 205.196 283.279 204.861C242.389 192.493 242.11 147.687 242.11 132.312C242.11 123.288 240.993 113.928 235.43 113.928C223.186 113.928 219.576 168.765 219.576 211.223V228.276H224.861C234.592 228.276 241.272 220.247 241.272 204.872C241.272 197.849 239.328 191.833 235.988 184.14C235.709 183.469 235.43 182.798 235.988 182.138L238.211 180.137C239.049 179.466 239.598 179.466 239.877 180.137C244.324 186.824 257.963 203.876 257.963 230.288C257.963 257.371 248.231 273.082 240.993 281.781C240.435 282.452 239.877 283.112 239.328 282.452L236.546 279.444C235.709 278.438 235.988 278.102 237.383 276.101C242.947 267.401 242.11 252.697 239.607 246.681C236.546 238.652 230.145 235.644 224.861 235.644H219.576V235.601Z" fill="#3BC2E2"/>
<path d="M360.612 253.984C360.612 307.144 375.358 342.255 379.805 352.621H385.927V358.637H303.868V352.621H307.766C313.33 337.57 323.62 295.783 323.62 224.9C323.62 159.373 311.655 124.262 307.766 113.896H303.868V107.88H392.886C409.019 107.88 441.014 114.567 441.014 171.405C441.014 205.175 427.105 226.242 400.682 233.264V233.935C429.896 244.971 439.907 260.011 439.907 320.864C439.907 331.565 440.465 339.583 445.75 339.583C448.531 339.583 451.871 336.91 452.43 332.225C452.43 332.225 452.43 331.554 452.988 331.554H455.211C455.77 331.554 455.77 332.225 455.77 332.896C455.77 337.916 454.104 359.979 424.891 359.979C399.575 359.979 392.895 338.912 392.895 320.193C392.895 309.827 396.235 299.126 396.235 280.072C396.235 260.682 393.453 237.614 372.585 237.614H360.621V253.984H360.612ZM367.571 230.916C391.491 230.916 395.11 205.835 395.11 170.734C395.11 143.651 392.049 113.896 377.033 113.896C360.9 113.896 360.621 190.459 360.621 213.863V230.916H367.571Z" fill="#3BC2E2"/>
<path d="M591.502 352.621V358.637H512.225V352.621H517.23C523.073 341.584 525.296 312.164 525.296 304.471C525.296 297.114 525.296 294.441 524.18 285.417H495.246C494.129 291.768 494.129 299.126 494.129 303.811C494.129 317.52 497.19 340.924 502.196 352.621H507.201V358.637H456.57V352.621H461.576C485.775 314.166 502.745 198.488 523.613 107.88H534.74C541.969 176.079 558.939 289.096 587.036 352.621H591.502ZM523.631 278.059C523.073 264.015 513.89 213.192 510.838 195.815H510.28C506.661 212.532 497.208 265.356 496.092 278.059H523.631Z" fill="#3BC2E2"/>
<path d="M230.604 158.204C237.951 175.949 256.469 185.558 272.098 178.579C279.651 175.203 286.178 168.895 290.328 160.563C294.793 151.604 296.774 139.291 292.083 129.877C287.609 120.896 278.399 116.547 269.946 117.585C265.075 118.191 260.484 120.063 256.154 122.79C252.274 125.225 248.781 128.59 244.72 130.613C242.281 131.836 238.797 132.993 236.915 130.05C235.133 127.259 235.763 122.844 236.591 119.652C237.869 114.696 240.291 110.271 241.669 105.348C243.028 100.457 243.307 94.9714 241.858 90.059C236.132 70.7126 214.481 64.2962 199.608 70.1932C191.65 73.3527 185.033 79.953 181.711 89.2799C178.659 97.8495 178.434 107.956 182.359 116.211C186.221 124.326 193.072 128.838 200.067 132.149C203.506 133.783 207.026 135.125 210.492 136.672C211.969 137.332 213.436 138.003 214.868 138.793C216.335 139.604 218.316 140.47 219.486 141.833C218.784 141.011 220.269 141.141 219.18 141.823C218.757 142.082 218.415 142.688 218.019 143.034C216.263 144.56 214.076 145.61 212.068 146.562C207.783 148.585 203.326 150.035 198.888 151.474C190.498 154.19 181.954 156.982 174.698 162.954C168.108 168.386 162.211 176.198 160.753 185.947C159.285 195.804 162.274 206.148 168.621 212.727C176.003 220.388 185.186 220.723 194.324 218.202C198.942 216.925 203.497 215.01 208.206 214.264C210.7 213.863 215.174 213.409 216.29 216.969C216.641 218.072 216.479 218.494 215.498 219.154C213.517 220.496 211.186 221.243 209.061 222.195C204.29 224.326 199.527 226.469 194.756 228.6C186.663 232.225 178.317 235.504 170.71 240.492C164.327 244.69 158.007 250.489 154.784 258.55C150.769 268.602 152.29 279.725 156.747 289.193C160.816 297.838 167.649 306.018 176.129 307.609C186.032 309.459 193.721 302.112 201.031 295.22C205.991 290.546 213.634 284.086 219.612 289.929C222.205 292.461 221.899 295.252 220.035 298.704C217.785 302.859 214.832 306.44 212.185 310.227C206.711 318.072 202.39 326.728 202.534 337.289C202.66 346.767 205.928 356.051 211.285 362.965C222.88 377.94 243.406 378.146 256.757 366.471C260.367 363.322 263.626 359.416 265.12 354.244C266.714 348.715 265.49 342.894 263.086 338.003C260.637 333.026 257.315 328.6 254.362 324.056C251.373 319.479 247.844 314.978 245.333 310C244.621 308.583 244.648 308.388 245.738 307.577C246.998 306.635 248.295 306.614 249.717 306.657C252.463 306.754 255.443 308.215 258.071 309.849C264.274 313.69 270.153 319.122 277.166 320.615C285.385 322.379 292.75 317.996 297.395 309.827C302.031 301.669 302.995 291.303 301.545 281.771C298.835 263.917 285.502 246.064 269.55 246.518C262.33 246.724 255.515 250.836 253.084 259.405C254.803 258.226 256.523 257.057 258.242 255.878C255.146 254.634 253.048 251.539 252.292 247.795C251.013 241.487 242.92 244.16 244.198 250.479C245.666 257.706 250.194 263.268 256.01 265.605C258.251 266.503 260.475 264.556 261.168 262.078C261.825 259.751 263.581 258.139 265.625 257.371C268.199 256.397 271.053 256.343 273.646 257.036C279.867 258.68 285.475 264.328 288.977 270.875C292.579 277.616 294.577 285.958 293.605 293.986C292.759 300.976 289.338 309.081 283.117 310.747C277.661 312.208 271.8 307.631 266.903 304.222C261.213 300.262 254.956 296.064 248.15 296.616C244.153 296.94 239.958 298.856 237.761 303.129C235.142 308.215 236.942 313.506 239.715 317.812C242.686 322.422 245.684 326.988 248.673 331.576C251.382 335.731 254.542 339.831 256.523 344.581C260.007 352.945 251.896 359.243 246.341 362.013C239.769 365.302 232.162 365.724 225.482 362.651C219.549 359.924 214.787 353.908 212.527 346.81C210.087 339.117 210.492 331.121 214.049 324.045C218.145 315.897 225.059 309.892 228.48 301.236C232.279 291.617 227.651 282.117 219.72 278.687C211.789 275.257 203.831 280.093 197.574 285.785C191.866 290.978 185.042 299.548 177.147 297.622C170.179 295.912 164.921 287.657 162.364 280.169C159.718 272.4 160.411 264.285 165.128 258.031C169.557 252.156 175.688 248.347 181.693 245.296C190.12 241.011 198.852 237.494 207.414 233.653C214.517 230.472 227.39 227.15 224.438 214.599C221.737 203.108 210.925 203.162 203.02 205.185C195.233 207.176 186.176 212.273 178.263 208.345C172.501 205.478 168.504 197.968 168.702 190.513C168.909 182.582 173.726 175.928 178.92 171.654C185.618 166.146 193.369 163.701 201.103 161.191C205.307 159.827 209.529 158.453 213.607 156.592C217.542 154.796 222.025 152.794 224.996 149.04C228.219 144.982 228.903 138.88 225.401 134.692C222.844 131.63 218.964 129.931 215.696 128.33C205.307 123.234 187.896 119.836 187.752 102.61C187.689 95.0254 190.939 87.4622 196.205 83.2423C202.21 78.4382 209.88 77.1722 216.902 78.8169C223.276 80.31 230.145 84.1837 233.251 91.4332C236.888 99.927 230.883 108.475 228.66 116.309C226.292 124.662 227.066 135.807 234.322 140.265C242.236 145.134 250.563 138.587 257.207 133.675C263.572 128.957 271.827 125.116 279.129 129.174C282.063 130.797 284.674 133.524 285.719 137.289C286.952 141.725 286.268 146.583 284.935 150.879C282.631 158.302 277.661 164.274 271.827 167.791C265.742 171.448 258.801 171.632 252.445 168.905C246.044 166.157 240.822 160.39 237.815 153.119C235.448 147.298 228.201 152.405 230.604 158.204Z" fill="#D2FF1D"/>
<path d="M372 460C575.793 460 741 357.697 741 231.5C741 105.303 575.793 3 372 3C168.207 3 3 105.303 3 231.5C3 357.697 168.207 460 372 460Z" stroke="#D2FF1D" stroke-width="5" stroke-miterlimit="10"/>
</svg>
