<svg width="263" height="250" viewBox="0 0 263 250" fill="none" xmlns="http://www.w3.org/2000/svg">
<rect width="263" height="250" rx="8" fill="#F87521"/>
<mask id="mask0_91_123" style="mask-type:alpha" maskUnits="userSpaceOnUse" x="0" y="0" width="263" height="250">
<rect width="263" height="250" rx="8" fill="#D9D9D9"/>
</mask>
<g mask="url(#mask0_91_123)">
<path d="M23.1057 40.0937V53.167C23.1057 106.17 32.6478 113.416 36.5863 113.416C39.2805 113.416 42.8074 109.681 42.8074 103.061C42.8074 85.4675 47.7842 61.8608 70.6011 56.0712C71.4243 55.8564 72.0511 56.4821 71.8453 56.8929C67.0742 66.6232 68.1033 74.075 68.1033 79.874C68.1033 91.4719 71.2092 108.449 74.736 115.48C74.9418 115.9 75.1476 116.311 74.3244 116.311H-21.7422V112.576H-18.8328C-15.5211 105.33 -4.52898 79.0336 -4.52898 36.3958C-4.6665 11.8161 -9.52201 -12.5095 -18.8328 -35.2648H-21.7422V-39H70.1333C70.9659 -39 71.1717 -38.5891 70.9659 -37.758C68.2717 -27.8223 66.4007 -14.777 66.4007 -8.3617C66.4007 -2.15186 67.4391 12.1821 71.3775 19.9981C71.7985 20.8292 71.3775 21.2401 70.5543 21.0346C40.0663 13.3867 39.8605 -14.3194 39.8605 -23.8816C39.8605 -29.4845 39.0279 -35.2648 34.8743 -35.2648C25.7532 -35.2648 23.1057 -1.31143 23.1057 24.9753V35.5367H27.0442C34.3036 35.5367 39.2805 30.5688 39.2805 21.044C39.2805 16.6924 37.8305 12.9665 35.3421 8.21343C35.1362 7.79321 34.9211 7.38234 35.3421 6.97146L36.9979 5.72015C37.6247 5.30928 38.0363 5.30928 38.2421 5.72015C41.5631 9.86627 51.7227 20.4277 51.7227 36.7787C51.7227 53.5873 44.4632 63.2802 39.0747 68.6589C38.6631 69.0698 38.2421 69.49 37.8305 69.0698L35.7537 67.2022C35.1362 66.5765 35.3421 66.3711 36.3805 65.1291C40.5247 59.7504 39.9073 50.6364 38.0363 46.9105C37.0635 44.8321 35.5068 43.0805 33.5554 41.8687C31.6039 40.6569 29.3419 40.037 27.0442 40.0844L23.1057 40.0937Z" fill="#1A54E8"/>
<path d="M128.666 51.006C128.666 83.7515 139.525 105.378 142.806 111.759H147.306V115.475H86.8672V111.759H89.7413C93.8352 102.47 101.413 76.7473 101.413 33.0866C101.413 -7.27634 92.6061 -28.9023 89.7413 -35.2842H86.8672V-39H152.435C164.31 -39 187.876 -34.8847 187.876 0.127405C187.876 20.9266 177.627 33.9041 158.165 38.2144V38.6324C179.679 45.423 187.054 54.694 187.054 92.1771C187.054 98.7634 187.469 103.705 191.36 103.705C192.577 103.651 193.737 103.168 194.635 102.341C195.534 101.514 196.115 100.395 196.277 99.1814C196.275 99.127 196.285 99.0728 196.305 99.0221C196.325 98.9715 196.354 98.9253 196.392 98.8864C196.43 98.8474 196.475 98.8165 196.525 98.7954C196.575 98.7742 196.629 98.7634 196.683 98.7634H198.328C198.735 98.7634 198.735 99.1814 198.735 99.5902C198.735 102.674 197.506 116.311 175.992 116.311C157.352 116.311 152.435 103.306 152.435 91.7962C152.435 85.4144 154.893 78.7909 154.893 67.0862C154.893 55.1399 152.842 40.9362 137.473 40.9362H128.666V51.006ZM133.786 36.7931C151.409 36.7931 154.117 21.3446 154.117 -0.272044C154.117 -16.9932 151.862 -35.2842 140.8 -35.2842C128.916 -35.2842 128.712 11.8786 128.712 26.2959V36.7931H133.786Z" fill="#1A54E8"/>
<path d="M299.741 112.575V116.311H240.384V112.575H244.142C248.519 105.738 250.182 87.515 250.182 82.7514C250.284 78.8019 250.007 74.8518 249.355 70.9545H227.685C227.027 74.7129 226.747 78.527 226.849 82.3404C226.849 90.8308 229.141 105.327 232.889 112.575H236.646V116.311H198.734V112.575H202.492C220.602 88.7572 233.311 17.1168 248.923 -39H257.255C262.665 3.23704 275.375 73.2336 296.406 112.575H299.741ZM248.923 66.3965C248.51 57.7006 241.634 26.233 239.351 15.4542H238.928C236.223 25.8407 229.141 58.5319 228.314 66.3965H248.923Z" fill="#1A54E8"/>
<path d="M23.1057 212.783V225.856C23.1057 278.859 32.6478 286.105 36.5863 286.105C39.2805 286.105 42.8074 282.37 42.8074 275.749C42.8074 258.156 47.7842 234.55 70.6011 228.76C71.4243 228.545 72.0511 229.171 71.8453 229.582C67.0742 239.312 68.1033 246.764 68.1033 252.563C68.1033 264.161 71.2092 281.138 74.736 288.169C74.9418 288.589 75.1476 289 74.3244 289H-21.7422V285.265H-18.8328C-15.5211 278.019 -4.52898 251.723 -4.52898 209.085C-4.6665 184.505 -9.52201 160.179 -18.8328 137.424H-21.7422V133.689H70.1333C70.9659 133.689 71.1717 134.1 70.9659 134.931C68.2717 144.867 66.4007 157.912 66.4007 164.327C66.4007 170.537 67.4391 184.871 71.3775 192.687C71.7985 193.518 71.3775 193.929 70.5543 193.724C40.0663 186.076 39.8605 158.37 39.8605 148.807C39.8605 143.204 39.0279 137.424 34.8743 137.424C25.7532 137.424 23.1057 171.378 23.1057 197.664V208.226H27.0442C34.3036 208.226 39.2805 203.258 39.2805 193.733C39.2805 189.381 37.8305 185.655 35.3421 180.902C35.1362 180.482 34.9211 180.071 35.3421 179.66L36.9979 178.409C37.6247 177.998 38.0363 177.998 38.2421 178.409C41.5631 182.555 51.7227 193.117 51.7227 209.468C51.7227 226.276 44.4632 235.969 39.0747 241.348C38.6631 241.759 38.2421 242.179 37.8305 241.759L35.7537 239.891C35.1362 239.266 35.3421 239.06 36.3805 237.818C40.5247 232.439 39.9073 223.325 38.0363 219.599C37.0635 217.521 35.5068 215.769 33.5554 214.558C31.6039 213.346 29.3419 212.726 27.0442 212.773L23.1057 212.783Z" fill="#1A54E8"/>
<path d="M128.666 223.695C128.666 256.441 139.525 278.066 142.806 284.448H147.306V288.164H86.8672V284.448H89.7413C93.8352 275.159 101.413 249.436 101.413 205.776C101.413 165.413 92.6061 143.787 89.7413 137.405H86.8672V133.689H152.435C164.31 133.689 187.876 137.804 187.876 172.816C187.876 193.616 177.627 206.593 158.165 210.903V211.321C179.679 218.112 187.054 227.383 187.054 264.866C187.054 271.452 187.469 276.394 191.36 276.394C192.577 276.34 193.737 275.857 194.635 275.03C195.534 274.203 196.115 273.084 196.277 271.87C196.275 271.816 196.285 271.762 196.305 271.711C196.325 271.66 196.354 271.614 196.392 271.575C196.43 271.536 196.475 271.505 196.525 271.484C196.575 271.463 196.629 271.452 196.683 271.452H198.328C198.735 271.452 198.735 271.87 198.735 272.279C198.735 275.363 197.506 289 175.992 289C157.352 289 152.435 275.995 152.435 264.485C152.435 258.103 154.893 251.48 154.893 239.775C154.893 227.829 152.842 213.625 137.473 213.625H128.666V223.695ZM133.786 209.482C151.409 209.482 154.117 194.034 154.117 172.417C154.117 155.696 151.862 137.405 140.8 137.405C128.916 137.405 128.712 184.568 128.712 198.985V209.482H133.786Z" fill="#1A54E8"/>
<path d="M299.741 285.264V289H240.384V285.264H244.142C248.519 278.427 250.182 260.204 250.182 255.44C250.284 251.491 250.007 247.541 249.355 243.644H227.685C227.027 247.402 226.747 251.216 226.849 255.029C226.849 263.52 229.141 278.016 232.889 285.264H236.646V289H198.734V285.264H202.492C220.602 261.446 233.311 189.806 248.923 133.689H257.255C262.665 175.926 275.375 245.923 296.406 285.264H299.741ZM248.923 239.085C248.51 230.39 241.634 198.922 239.351 188.143H238.928C236.223 198.53 229.141 231.221 228.314 239.085H248.923Z" fill="#1A54E8"/>
</g>
</svg>
