<svg width="263" height="250" viewBox="0 0 263 250" fill="none" xmlns="http://www.w3.org/2000/svg">
<rect width="263" height="250" rx="8" fill="#BF92EA"/>
<mask id="mask0_91_21" style="mask-type:alpha" maskUnits="userSpaceOnUse" x="0" y="0" width="263" height="250">
<rect width="263" height="250" rx="8" fill="#D9D9D9"/>
</mask>
<g mask="url(#mask0_91_21)">
<path d="M179.545 -1.3999C175.464 26.7041 166.153 39.4366 153.463 45.7734C167.933 53.3967 174.94 67.6142 179.545 92.9468C183.134 68.8418 191.828 53.1174 205.628 45.7734C191.125 37.6502 182.423 21.9405 179.545 -1.3999Z" stroke="#1A54E8" stroke-miterlimit="10"/>
<path d="M16.2465 -1.3999C12.1656 26.7041 2.85368 39.4366 -9.83594 45.7734C4.63397 53.3967 11.6413 67.6142 16.2465 92.9468C19.8355 68.8418 28.5296 53.1174 42.3289 45.7734C27.8265 37.6502 19.1242 21.9405 16.2465 -1.3999Z" stroke="#1A54E8" stroke-miterlimit="10"/>
<path d="M233.979 -1.3999C229.898 26.7041 220.586 39.4366 207.896 45.7734C222.366 53.3967 229.374 67.6142 233.979 92.9468C237.568 68.8418 246.262 53.1174 260.061 45.7734C245.559 37.6502 236.857 21.9405 233.979 -1.3999Z" stroke="#1A54E8" stroke-miterlimit="10"/>
<path d="M70.6801 -1.3999C66.5992 26.7041 57.2873 39.4366 44.5977 45.7734C59.0676 53.3967 66.0749 67.6142 70.6801 92.9468C74.2691 68.8418 82.9632 53.1174 96.7625 45.7734C82.2601 37.6502 73.5578 21.9405 70.6801 -1.3999Z" stroke="#1A54E8" stroke-miterlimit="10"/>
<path d="M288.412 -1.3999C284.332 26.7041 275.02 39.4366 262.33 45.7734C276.8 53.3967 283.807 67.6142 288.412 92.9468C292.002 68.8418 300.696 53.1174 314.495 45.7734C299.992 37.6502 291.29 21.9405 288.412 -1.3999Z" stroke="#1A54E8" stroke-miterlimit="10"/>
<path d="M125.114 -1.3999C121.033 26.7041 111.721 39.4366 99.0312 45.7734C113.501 53.3967 120.508 67.6142 125.114 92.9468C128.703 68.8418 137.397 53.1174 151.196 45.7734C136.694 37.6502 127.991 21.9405 125.114 -1.3999Z" stroke="#1A54E8" stroke-miterlimit="10"/>
<path d="M179.545 97.8267C175.464 125.931 166.153 138.663 153.463 145C167.933 152.623 174.94 166.841 179.545 192.173C183.134 168.068 191.828 152.344 205.628 145C191.125 136.877 182.423 121.167 179.545 97.8267Z" stroke="#1A54E8" stroke-miterlimit="10"/>
<path d="M16.2465 97.8267C12.1656 125.931 2.85368 138.663 -9.83594 145C4.63397 152.623 11.6413 166.841 16.2465 192.173C19.8355 168.068 28.5296 152.344 42.3289 145C27.8265 136.877 19.1242 121.167 16.2465 97.8267Z" stroke="#1A54E8" stroke-miterlimit="10"/>
<path d="M233.979 97.8267C229.898 125.931 220.586 138.663 207.896 145C222.366 152.623 229.374 166.841 233.979 192.173C237.568 168.068 246.262 152.344 260.061 145C245.559 136.877 236.857 121.167 233.979 97.8267Z" stroke="#1A54E8" stroke-miterlimit="10"/>
<path d="M70.6801 97.8267C66.5992 125.931 57.2873 138.663 44.5977 145C59.0676 152.623 66.0749 166.841 70.6801 192.173C74.2691 168.068 82.9632 152.344 96.7625 145C82.2601 136.877 73.5578 121.167 70.6801 97.8267Z" stroke="#1A54E8" stroke-miterlimit="10"/>
<path d="M288.412 97.8267C284.332 125.931 275.02 138.663 262.33 145C276.8 152.623 283.807 166.841 288.412 192.173C292.002 168.068 300.696 152.344 314.495 145C299.992 136.877 291.29 121.167 288.412 97.8267Z" stroke="#1A54E8" stroke-miterlimit="10"/>
<path d="M125.114 97.8267C121.033 125.931 111.721 138.663 99.0312 145C113.501 152.623 120.508 166.841 125.114 192.173C128.703 168.068 137.397 152.344 151.196 145C136.694 136.877 127.991 121.167 125.114 97.8267Z" stroke="#1A54E8" stroke-miterlimit="10"/>
<path d="M179.545 197.053C175.464 225.157 166.153 237.89 153.463 244.227C167.933 251.85 174.94 266.067 179.545 291.4C183.134 267.295 191.828 251.571 205.628 244.227C191.125 236.103 182.423 220.394 179.545 197.053Z" stroke="#1A54E8" stroke-miterlimit="10"/>
<path d="M16.2465 197.053C12.1656 225.157 2.85368 237.89 -9.83594 244.227C4.63397 251.85 11.6413 266.067 16.2465 291.4C19.8355 267.295 28.5296 251.571 42.3289 244.227C27.8265 236.103 19.1242 220.394 16.2465 197.053Z" stroke="#1A54E8" stroke-miterlimit="10"/>
<path d="M233.979 197.053C229.898 225.157 220.586 237.89 207.896 244.227C222.366 251.85 229.374 266.067 233.979 291.4C237.568 267.295 246.262 251.571 260.061 244.227C245.559 236.103 236.857 220.394 233.979 197.053Z" stroke="#1A54E8" stroke-miterlimit="10"/>
<path d="M70.6801 197.053C66.5992 225.157 57.2873 237.89 44.5977 244.227C59.0676 251.85 66.0749 266.067 70.6801 291.4C74.2691 267.295 82.9632 251.571 96.7625 244.227C82.2601 236.103 73.5578 220.394 70.6801 197.053Z" stroke="#1A54E8" stroke-miterlimit="10"/>
<path d="M288.412 197.053C284.332 225.157 275.02 237.89 262.33 244.227C276.8 251.85 283.807 266.067 288.412 291.4C292.002 267.295 300.696 251.571 314.495 244.227C299.992 236.103 291.29 220.394 288.412 197.053Z" stroke="#1A54E8" stroke-miterlimit="10"/>
<path d="M125.114 197.053C121.033 225.157 111.721 237.89 99.0312 244.227C113.501 251.85 120.508 266.067 125.114 291.4C128.703 267.295 137.397 251.571 151.196 244.227C136.694 236.103 127.991 220.394 125.114 197.053Z" stroke="#1A54E8" stroke-miterlimit="10"/>
</g>
<path d="M28.9683 154.738C25.8049 151.032 24.3342 149.335 21.6249 146.24C20.475 146.916 19.9026 147.272 18.7576 148.007C16.5813 154.008 15.4956 157.009 13.3241 163.01C9.19349 165.724 7.13064 167.264 3 170.748C8.7296 155.691 14.4641 140.634 20.1937 125.577C25.8246 121.096 31.9984 117.276 38.6163 114.439C45.7376 110.461 49.9817 117.449 47.6573 123.727C45.0763 130.69 39.6773 136.257 33.2124 140.116C36.2524 144.084 37.8958 146.221 41.4293 150.82C36.4399 151.955 33.9477 152.72 28.9683 154.738ZM31.0755 134.031C34.5005 132.422 37.3628 129.649 38.3695 126.584C39.3565 123.583 37.881 122.3 34.5695 123.811C31.0706 125.409 29.3186 126.342 25.8197 128.509C24.2997 132.708 23.5348 134.811 22.0148 139.01C25.642 136.721 27.4532 135.734 31.0755 134.031Z" fill="#FDF7F7"/>
<path d="M77.2618 137.337C69.9629 136.252 62.5405 135.906 55.1824 136.523C54.9998 140.057 56.9294 142.04 60.2309 141.986C62.4961 141.952 65.2647 141.483 67.5595 138.685C70.8413 139.563 72.4896 140.076 75.8109 141.226C71.9517 147.054 64.7564 149.226 58.3457 149.591C49.9167 150.075 44.1081 143.664 46.5016 135.393C48.9148 127.043 57.26 117.75 66.2468 117.972C74.3649 118.175 79.6405 127.013 77.7405 134.939C77.548 135.901 77.4543 136.38 77.2618 137.337ZM56.9343 130.636C61.8003 130.265 64.2382 130.275 69.1042 130.581C68.9512 127.339 66.987 125.71 64.327 125.7C61.7262 125.691 58.632 127.512 56.9343 130.636Z" fill="#FDF7F7"/>
<path d="M113.075 159.515C109.068 158.114 107.069 157.438 103.062 156.189C103.156 155.261 103.205 154.797 103.304 153.869C100.674 155.133 97.1943 155.192 93.1821 154.235C84.7679 152.226 79.1666 143.614 80.7113 135.427C82.0388 128.385 89.3131 120.671 97.3917 123.346C100.915 124.511 103.822 126.608 105.831 129.401C105.924 128.474 105.974 128.01 106.073 127.082C109.685 128.345 111.486 129.017 115.099 130.413C114.423 140.111 113.751 149.813 113.075 159.515ZM104.567 141.631C105.031 137.164 101.991 132.94 98.2258 131.8C94.1741 130.576 90.7442 132.92 90.0484 137.401C89.3476 141.937 91.9928 145.682 96.2715 146.891C100.244 148.017 104.098 146.156 104.567 141.631Z" fill="#FDF7F7"/>
<path d="M120.336 162.116C120.963 148.194 121.585 134.272 122.211 120.346C125.651 121.797 127.368 122.542 130.808 124.037C130.655 137.979 130.502 151.92 130.354 165.862C126.342 164.347 124.338 163.587 120.336 162.116Z" fill="#FDF7F7"/>
<path d="M146.97 134.978C147.123 137.949 145.065 139.286 142.059 138.038C139.054 136.789 136.907 133.69 136.868 130.724C136.833 127.876 138.832 126.322 141.719 127.566C144.611 128.804 146.822 132.126 146.97 134.978ZM138.106 168.808C137.958 159.076 137.81 149.344 137.657 139.612C141.27 141.107 143.071 141.857 146.683 143.303C147.162 153.05 147.641 162.792 148.12 172.539C144.112 171.078 142.109 170.323 138.106 168.808Z" fill="#FDF7F7"/>
<path d="M178.964 180.85C176.724 181.506 174.217 181.699 170.698 180.8C163.503 178.955 157.956 172.687 157.181 165.255C156.816 160.828 156.633 158.612 156.268 154.186C154.156 153.421 153.104 153.026 150.992 152.222C150.805 149.261 150.711 147.785 150.523 144.824C152.576 145.628 153.603 146.023 155.656 146.788C155.37 143.338 155.227 141.616 154.945 138.167C158.439 139.514 160.186 140.16 163.68 141.359C164.08 144.809 164.282 146.531 164.682 149.976C168.023 151.082 169.691 151.6 173.032 152.528C173.471 155.479 173.689 156.954 174.123 159.905C170.693 158.983 168.976 158.469 165.541 157.369C166.015 161.42 166.251 163.449 166.72 167.5C167.071 170.531 168.739 172.223 171.305 172.944C172.647 173.319 174.414 173.344 175.589 172.973C176.911 176.137 177.587 177.711 178.964 180.85Z" fill="#FDF7F7"/>
<path d="M186.544 147.346C187.151 150.282 185.433 152.152 182.428 151.536C179.422 150.919 176.94 148.17 176.447 145.214C175.973 142.371 177.601 140.491 180.488 141.128C183.37 141.759 185.961 144.523 186.544 147.346ZM183.474 183.061C181.831 173.358 180.192 163.656 178.549 153.954C182.161 154.812 183.963 155.178 187.575 155.755C189.544 165.398 191.518 175.046 193.487 184.689C189.485 184.201 187.481 183.865 183.474 183.061Z" fill="#FDF7F7"/>
<path d="M227.975 170.195C220.819 172.351 213.367 173.442 205.895 173.541C207.563 176.936 210.638 178.984 213.944 178.658C216.209 178.436 218.702 177.543 219.476 174.528C223.113 174.572 224.944 174.493 228.621 174.103C228.083 180.825 222.447 185.281 216.007 185.859C207.001 186.668 197.723 179.764 195.941 170.841C194.421 163.212 199.381 156.071 207.464 155.932C215.331 155.799 224.49 159.787 227.175 167.959C227.501 168.852 227.659 169.302 227.975 170.195ZM204.622 167.974C209.488 167.93 211.926 167.747 216.792 166.957C214.971 164.095 212.237 163.034 209.577 163.241C206.971 163.449 204.745 165.072 204.622 167.974Z" fill="#FDF7F7"/>
<path d="M241.304 167.796C242.671 169.849 245.415 169.479 248.05 167.915C250.627 166.39 251.609 164.5 251.085 163.379C250.681 162.516 249.585 162.412 247.187 163.399C244.537 164.475 243.219 164.939 240.594 165.738C234.632 167.624 230.413 165.832 228.883 161.593C226.568 155.172 232.604 149.798 237.608 147.113C242.123 144.69 249.398 141.566 254.111 145.598C251.021 148.9 249.467 150.42 246.333 153.208C245.307 151.817 242.913 151.53 240.09 153.09C237.613 154.457 237.267 155.908 237.667 156.85C237.973 157.586 238.629 158.178 240.663 157.536C243.643 156.549 245.139 155.972 248.144 154.615C254.214 151.915 258.577 152.404 260.196 155.918C263.463 162.994 256.104 170.708 250.222 174.409C245.045 177.661 236.493 179.774 232.495 173.526C236.039 171.493 237.805 170.353 241.304 167.796Z" fill="#FDF7F7"/>
<path d="M109.781 102.496C106.746 101.524 105.275 101.045 102.383 100.255C95.8642 92.5815 89.0044 85.6724 81.1083 79.3851C82.1792 85.9191 83.1712 92.4877 84.6369 98.9477C81.1478 99.6583 79.3811 100.285 75.6946 102.382C74.8606 91.2737 74.2141 80.1501 73.3652 69.0462C73.9328 67.5262 74.8063 66.9537 77.1998 66.0802C86.0533 71.4298 93.3078 78.0428 100.261 85.6329C100.148 78.5067 100.079 71.3706 99.4322 64.269C104.382 64.4516 106.919 64.649 111.178 65.0784C111.109 77.574 109.929 90.0054 109.781 102.496Z" fill="#FDF7F7"/>
<path d="M146.892 100.645C139.376 98.6761 131.885 96.6231 124.383 94.6146C124.985 98.4195 127.438 101.297 130.789 102.229C133.084 102.871 135.763 103.088 137.515 100.551C140.995 102.215 142.737 103.044 146.152 104.697C143.457 110.89 136.346 111.596 130.671 109.74C122.567 107.09 114.187 99.0907 115.12 89.7535C115.939 81.5663 123.52 75.2247 131.885 77.7613C140.743 80.4509 147.001 88.6333 146.946 98.0839C146.922 99.1104 146.912 99.6236 146.892 100.645ZM124.896 88.7616C129.901 90.0546 132.447 90.7504 137.481 92.0779C136.686 88.5198 134.332 86.3582 131.559 85.6328C128.845 84.9221 125.982 85.9141 124.896 88.7616Z" fill="#FDF7F7"/>
<path d="M183.432 117.829C180.264 118.703 178.68 118.95 175.507 119.162C174.016 112.924 172.501 106.701 170.961 100.473C169.061 106.548 167.156 112.623 165.187 118.673C162.019 118.2 160.435 117.834 157.262 116.966C154.468 105.507 151.552 94.0819 148.502 82.6918C152.208 83.4814 154.034 83.8565 157.721 84.3155C159.221 90.4103 160.662 96.5149 162.093 102.625C164.151 96.7024 166.135 90.7557 168.114 84.809C170.769 84.7053 172.096 84.577 174.747 84.1131C176.405 90.124 178.004 96.1497 179.603 102.175C181.483 95.1232 183.329 88.0661 185.14 80.9991C188.826 79.3952 190.672 78.3687 194.358 75.7334C190.84 89.7934 187.203 103.829 183.432 117.829Z" fill="#FDF7F7"/>
</svg>
