<svg width="263" height="250" viewBox="0 0 263 250" fill="none" xmlns="http://www.w3.org/2000/svg">
<rect width="263" height="250" rx="8" fill="#3BC2E2"/>
<mask id="mask0_91_112" style="mask-type:alpha" maskUnits="userSpaceOnUse" x="0" y="0" width="263" height="250">
<rect width="263" height="250" rx="8" fill="#D2FF1D"/>
</mask>
<g mask="url(#mask0_91_112)">
<path d="M130.785 81C123.935 107.025 108.302 118.815 87 124.683C111.291 131.742 123.055 144.907 130.785 168.366C136.81 146.044 151.406 131.483 174.571 124.683C150.225 117.161 135.616 102.613 130.785 81Z" stroke="#D2FF1D" stroke-width="5" stroke-miterlimit="10"/>
<path d="M131 31C116.293 86.7037 82.7329 111.94 37 124.5C89.149 139.61 114.403 167.789 131 218C143.935 170.223 175.268 139.056 225 124.5C172.734 108.399 141.371 77.2619 131 31Z" stroke="#D2FF1D" stroke-width="5" stroke-miterlimit="10"/>
<path d="M131 -17C108.783 67.3002 58.0859 105.492 -11 124.5C67.7782 147.367 105.928 190.013 131 266C150.54 193.695 197.873 146.529 273 124.5C194.045 100.134 146.667 53.0113 131 -17Z" stroke="#D2FF1D" stroke-width="5" stroke-miterlimit="10"/>
<path d="M131 -71C100.334 45.4713 30.358 98.2383 -65 124.5C43.7362 156.093 96.3938 215.014 131 320C157.97 220.102 223.304 154.935 327 124.5C218.019 90.8351 152.625 25.7294 131 -71Z" stroke="#D2FF1D" stroke-width="5" stroke-miterlimit="10"/>
<path d="M131 -131C90.9464 21.217 -0.450833 90.1785 -125 124.5C17.0227 165.789 85.8001 242.794 131 380C166.226 249.443 251.56 164.276 387 124.5C244.658 80.5032 159.245 -4.58385 131 -131Z" stroke="#D2FF1D" stroke-width="5" stroke-miterlimit="10"/>
<path d="M131 -200C80.1507 -6.6755 -35.8809 80.9096 -194 124.5C-13.6977 176.94 73.6173 274.74 131 449C175.721 283.185 284.054 175.018 456 124.5C275.292 68.6214 166.858 -39.4441 131 -200Z" stroke="#D2FF1D" stroke-width="5" stroke-miterlimit="10"/>
</g>
</svg>
